<?xml version="1.0" encoding="UTF-8" standalone="no"?>
<!DOCTYPE svg PUBLIC "-//W3C//DTD SVG 1.1//EN" "http://www.w3.org/Graphics/SVG/1.1/DTD/svg11.dtd">
<svg version="1.1" xmlns="http://www.w3.org/2000/svg" xmlns:xlink="http://www.w3.org/1999/xlink" preserveAspectRatio="xMidYMid meet" viewBox="0 0 800 800" width="800" height="800"><defs><path d="M627.25 444.8C627.25 444.8 607.44 448.42 606.04 452.02C606.04 452.02 628.65 456.09 632.43 456.09C632.43 456.09 654.1 461.52 654.1 461.52C653.73 458.44 652.6 449.21 652.23 446.16C647.23 445.88 631.02 447.51 627.25 444.8Z" id="d7f0RalEBO"></path><path d="M627.25 444.8C627.25 444.8 607.44 448.42 606.04 452.02C606.04 452.02 628.65 456.09 632.43 456.09C632.43 456.09 654.1 461.52 654.1 461.52C653.73 458.44 652.6 449.21 652.23 446.16C647.23 445.88 631.02 447.51 627.25 444.8Z" id="aSfRuFcI"></path><path d="M653.49 338.43C651.66 337.07 651.51 334.48 650.18 332.68C648.26 330.1 644.39 329.77 641.06 329.9C639.03 330 636.84 330.1 635.11 329.03C633.36 327.95 632.57 325.93 631.96 324C631.27 321.71 630.82 318.95 632.55 317.25C633.76 316.09 635.66 315.84 637.01 314.8C638.39 313.74 638.96 312.02 639.73 310.46C640.59 308.59 641.94 306.94 643.67 305.73C646.21 304.03 649.44 303.66 652.52 303.68C655.61 303.73 658.69 304.1 661.75 303.76C664.26 303.46 666.76 302.65 669.25 303.02C672.43 303.46 675.07 305.75 676.64 308.47C678.2 311.15 678.89 314.24 679.53 317.25C679.7 318.06 681.13 324.64 681.31 325.46C681.85 328.02 682.42 330.64 682 333.2C681.11 338.53 676.2 342.77 675.86 348.15C675.19 345.14 672.99 342.62 670.01 341.49C669.64 341.32 669.22 341.27 668.83 341.37C668.33 341.51 668.04 341.98 667.74 342.38C666.93 343.39 664.39 344.97 662.96 344.23C661.67 343.59 662.64 341.51 661.01 340.48C659.85 339.86 658.54 339.52 657.24 339.49C655.9 339.49 654.6 339.12 653.49 338.43Z" id="b19zh1f2fm"></path><path d="M653.49 338.43C651.66 337.07 651.51 334.48 650.18 332.68C648.26 330.1 644.39 329.77 641.06 329.9C639.03 330 636.84 330.1 635.11 329.03C633.36 327.95 632.57 325.93 631.96 324C631.27 321.71 630.82 318.95 632.55 317.25C633.76 316.09 635.66 315.84 637.01 314.8C638.39 313.74 638.96 312.02 639.73 310.46C640.59 308.59 641.94 306.94 643.67 305.73C646.21 304.03 649.44 303.66 652.52 303.68C655.61 303.73 658.69 304.1 661.75 303.76C664.26 303.46 666.76 302.65 669.25 303.02C672.43 303.46 675.07 305.75 676.64 308.47C678.2 311.15 678.89 314.24 679.53 317.25C679.7 318.06 681.13 324.64 681.31 325.46C681.85 328.02 682.42 330.64 682 333.2C681.11 338.53 676.2 342.77 675.86 348.15C675.19 345.14 672.99 342.62 670.01 341.49C669.64 341.32 669.22 341.27 668.83 341.37C668.33 341.51 668.04 341.98 667.74 342.38C666.93 343.39 664.39 344.97 662.96 344.23C661.67 343.59 662.64 341.51 661.01 340.48C659.85 339.86 658.54 339.52 657.24 339.49C655.9 339.49 654.6 339.12 653.49 338.43Z" id="a4GLRuHI3"></path><path d="M699.36 443C699.36 443 692.28 442.09 691.34 443C690.41 443.89 655.51 438.02 650.8 433.04C650.8 433.04 645.15 431.23 642.31 433.95C639.5 436.66 611.22 439.37 619.7 431.23C628.18 423.1 641.38 421.3 641.38 421.3C643.18 421.37 657.51 422.11 659.28 422.18C659.28 422.18 668.73 424.9 674.38 422.18C674.38 422.18 696.05 420.38 696.05 420.38C698.79 421.3 706.98 424.01 709.72 424.9C707.64 428.52 713.02 444.8 699.36 443Z" id="a5OJIZ7BFj"></path><path d="M699.36 443C699.36 443 692.28 442.09 691.34 443C690.41 443.89 655.51 438.02 650.8 433.04C650.8 433.04 645.15 431.23 642.31 433.95C639.5 436.66 611.22 439.37 619.7 431.23C628.18 423.1 641.38 421.3 641.38 421.3C643.18 421.37 657.51 422.11 659.28 422.18C659.28 422.18 668.73 424.9 674.38 422.18C674.38 422.18 696.05 420.38 696.05 420.38C698.79 421.3 706.98 424.01 709.72 424.9C707.64 428.52 713.02 444.8 699.36 443Z" id="b15gVp8G4d"></path><path d="M711.62 431.23C711.62 431.23 699.83 426.25 697.46 426.72C697.46 426.72 685.7 420.83 685.7 420.83C685.7 420.83 674.84 396.44 675.78 389.65C676.72 382.87 676.25 362.97 690.41 362.06C694.65 368.4 711.62 364.33 711.62 393.72C711.62 397.47 711.62 427.49 711.62 431.23Z" id="b5VAKW0eW2"></path><path d="M711.62 431.23C711.62 431.23 699.83 426.25 697.46 426.72C697.46 426.72 685.7 420.83 685.7 420.83C685.7 420.83 674.84 396.44 675.78 389.65C676.72 382.87 676.25 362.97 690.41 362.06C694.65 368.4 711.62 364.33 711.62 393.72C711.62 397.47 711.62 427.49 711.62 431.23Z" id="e3t4CSMqL"></path><path d="M656.47 336.06C666.48 336.06 674.6 332.02 674.6 327.04C674.6 322.03 666.48 317.99 656.47 317.99C646.43 317.99 638.32 322.03 638.32 327.04C638.32 332.02 646.43 336.06 656.47 336.06Z" id="aUYcNXZZH"></path><path d="M656.47 336.06C666.48 336.06 674.6 332.02 674.6 327.04C674.6 322.03 666.48 317.99 656.47 317.99C646.43 317.99 638.32 322.03 638.32 327.04C638.32 332.02 646.43 336.06 656.47 336.06Z" id="b4fYZt5Pel"></path><path d="M673.44 343.76C676.94 343.76 679.8 336.98 679.8 328.62C679.8 320.25 676.94 313.47 673.44 313.47C669.91 313.47 667.08 320.25 667.08 328.62C667.08 336.98 669.91 343.76 673.44 343.76Z" id="b1IkCMWaUN"></path><path d="M673.44 343.76C676.94 343.76 679.8 336.98 679.8 328.62C679.8 320.25 676.94 313.47 673.44 313.47C669.91 313.47 667.08 320.25 667.08 328.62C667.08 336.98 669.91 343.76 673.44 343.76Z" id="f2WEE8Yr9C"></path><path d="M635.68 461.47C634.94 464.28 633.93 467.02 632.67 469.66C629.52 468.28 613.76 461.37 585.42 448.97C592.35 423.27 596.69 407.19 598.44 400.75C626.21 407.66 642.88 434.84 635.68 461.47Z" id="aZOmq4eSH"></path><path d="M635.68 461.47C634.94 464.28 633.93 467.02 632.67 469.66C629.52 468.28 613.76 461.37 585.42 448.97C592.35 423.27 596.69 407.19 598.44 400.75C626.21 407.66 642.88 434.84 635.68 461.47Z" id="fVIzdpFld"></path><path d="M621.5 477.38C609.61 502.41 578.79 513.43 552.69 502.02C526.6 490.6 515.08 461.05 526.99 436.02C537.45 414.02 562.88 402.4 587.29 408.47C585.54 414.91 581.2 430.96 574.25 456.69C602.61 469.09 618.37 476 621.5 477.38Z" id="a2pV3NklRD"></path><path d="M621.5 477.38C609.61 502.41 578.79 513.43 552.69 502.02C526.6 490.6 515.08 461.05 526.99 436.02C537.45 414.02 562.88 402.4 587.29 408.47C585.54 414.91 581.2 430.96 574.25 456.69C602.61 469.09 618.37 476 621.5 477.38Z" id="h1nBEWAdma"></path><path d="M662.12 565.2C662.12 565.2 664.49 592.33 671.54 598.2C671.54 598.2 671.54 606.78 673.91 609.49C674.23 613.07 676.87 641.65 677.21 645.23C677.21 645.23 672.48 658.32 672.97 660.59C672.97 660.59 671.07 670.09 671.54 670.98C671.54 670.98 694.18 670.98 694.18 670.98C693.86 666.14 692.28 641.87 689.44 598.2C688.47 591.45 683.6 557.69 674.84 496.93L654.6 496.81C659.28 539.36 661.79 562.16 662.12 565.2Z" id="b1iXvOzTRh"></path><path d="M662.12 565.2C662.12 565.2 664.49 592.33 671.54 598.2C671.54 598.2 671.54 606.78 673.91 609.49C674.23 613.07 676.87 641.65 677.21 645.23C677.21 645.23 672.48 658.32 672.97 660.59C672.97 660.59 671.07 670.09 671.54 670.98C671.54 670.98 694.18 670.98 694.18 670.98C693.86 666.14 692.28 641.87 689.44 598.2C688.47 591.45 683.6 557.69 674.84 496.93L654.6 496.81C659.28 539.36 661.79 562.16 662.12 565.2Z" id="a9Oibs0Hu"></path><path d="M662.12 565.2C662.12 565.2 664.49 592.33 671.54 598.2C671.54 598.2 671.54 606.78 673.91 609.49C674.23 613.07 676.87 641.65 677.21 645.23C677.21 645.23 672.48 658.32 672.97 660.59C672.97 660.59 671.07 670.09 671.54 670.98C671.54 670.98 694.18 670.98 694.18 670.98C693.86 666.14 692.28 641.87 689.44 598.2C688.47 591.45 683.6 557.69 674.84 496.93L654.6 496.81C659.28 539.36 661.79 562.16 662.12 565.2Z" id="b1bjdI5FJv"></path><path d="M662.12 565.2C662.12 565.2 664.49 592.33 671.54 598.2C671.54 598.2 671.54 606.78 673.91 609.49C674.23 613.07 676.87 641.65 677.21 645.23C677.21 645.23 672.48 658.32 672.97 660.59C672.97 660.59 671.07 670.09 671.54 670.98C671.54 670.98 694.18 670.98 694.18 670.98C693.86 666.14 692.28 641.87 689.44 598.2C688.47 591.45 683.6 557.69 674.84 496.93L654.6 496.81C659.28 539.36 661.79 562.16 662.12 565.2Z" id="d2G7Waxc1k"></path><path d="M740.54 694.9L411.77 694.9" id="bWeEb18ce"></path><path d="M740.54 694.9L411.77 694.9" id="b4u3db6UeG"></path><path d="M656.22 342.4C669.25 342.4 679.8 334.51 679.8 324.77C679.8 315.03 669.25 307.13 656.22 307.13C643.2 307.13 632.67 315.03 632.67 324.77C632.67 334.51 643.2 342.4 656.22 342.4Z" id="g28LU5cbUd"></path><path d="M656.22 342.4C669.25 342.4 679.8 334.51 679.8 324.77C679.8 315.03 669.25 307.13 656.22 307.13C643.2 307.13 632.67 315.03 632.67 324.77C632.67 334.51 643.2 342.4 656.22 342.4Z" id="aoK9qHdV"></path><path d="M700.62 694.08C700.62 694.08 641.3 694.9 641.3 694.9C641.3 694.9 632.3 689.55 642.61 685.85C642.61 685.85 651.19 685.43 656.79 682.12C662.37 678.82 668.83 672.65 668.83 672.65C668.83 672.65 669.25 663.58 672.7 665.65C674.77 666.96 676.18 669.05 676.55 671.42C680.42 670.58 692.03 668.11 695.91 667.28C696.85 672.64 705.77 691.2 700.62 694.08Z" id="b5lNAisXee"></path><path d="M700.62 694.08C700.62 694.08 641.3 694.9 641.3 694.9C641.3 694.9 632.3 689.55 642.61 685.85C642.61 685.85 651.19 685.43 656.79 682.12C662.37 678.82 668.83 672.65 668.83 672.65C668.83 672.65 669.25 663.58 672.7 665.65C674.77 666.96 676.18 669.05 676.55 671.42C680.42 670.58 692.03 668.11 695.91 667.28C696.85 672.64 705.77 691.2 700.62 694.08Z" id="ctrENzzXz"></path><path d="M700.62 694.08C700.62 694.08 641.3 694.9 641.3 694.9C641.3 694.9 632.3 689.55 642.61 685.85C642.61 685.85 651.19 685.43 656.79 682.12C662.37 678.82 668.83 672.65 668.83 672.65C668.83 672.65 669.25 663.58 672.7 665.65C674.77 666.96 676.18 669.05 676.55 671.42C680.42 670.58 692.03 668.11 695.91 667.28C696.85 672.64 705.77 691.2 700.62 694.08Z" id="e1mQWKJS7F"></path><path d="M700.62 694.08C700.62 694.08 641.3 694.9 641.3 694.9C641.3 694.9 632.3 689.55 642.61 685.85C642.61 685.85 651.19 685.43 656.79 682.12C662.37 678.82 668.83 672.65 668.83 672.65C668.83 672.65 669.25 663.58 672.7 665.65C674.77 666.96 676.18 669.05 676.55 671.42C680.42 670.58 692.03 668.11 695.91 667.28C696.85 672.64 705.77 691.2 700.62 694.08Z" id="a11XXWsUoj"></path><path d="M716.33 693.42C716.33 693.42 651.27 694.33 651.27 694.33C651.27 694.33 641.38 688.46 652.7 684.39C652.7 684.39 662.12 683.95 668.23 680.32C674.38 676.7 681.45 669.92 681.45 669.92C681.45 669.92 681.92 659.98 685.7 662.25C687.96 663.68 689.49 665.97 689.94 668.56C694.18 667.67 706.88 664.96 711.12 664.05C712.16 669.92 721.97 690.26 716.33 693.42Z" id="j1Bi8YqN7"></path><path d="M716.33 693.42C716.33 693.42 651.27 694.33 651.27 694.33C651.27 694.33 641.38 688.46 652.7 684.39C652.7 684.39 662.12 683.95 668.23 680.32C674.38 676.7 681.45 669.92 681.45 669.92C681.45 669.92 681.92 659.98 685.7 662.25C687.96 663.68 689.49 665.97 689.94 668.56C694.18 667.67 706.88 664.96 711.12 664.05C712.16 669.92 721.97 690.26 716.33 693.42Z" id="a2uW2Uij"></path><path d="M674.84 552.38C676.32 558.94 677.26 565.59 677.68 572.28C677.68 572.28 678.15 586.75 682.39 590.82C684.88 593.19 686.26 596.47 686.16 599.85C686.16 599.85 690.41 645.5 688.04 650.93C688.04 650.93 682.49 663.4 684.83 667.03C684.83 667.03 713.96 668.11 713.96 665.4C713.96 665.4 713.96 660.42 715.36 659.06C715.36 659.06 715.36 649.13 715.36 649.13C715.36 649.13 721.04 608.9 715.86 597.14C715.86 597.14 708.31 553.29 708.31 553.29C708.31 553.29 712.08 516.66 716.79 510.79C716.79 510.79 715.86 484.14 715.86 484.14C706.14 486.48 677.01 493.53 667.3 495.87C668.81 507.17 672.48 542.44 674.84 552.38Z" id="a2f5S2FZfE"></path><path d="M674.84 552.38C676.32 558.94 677.26 565.59 677.68 572.28C677.68 572.28 678.15 586.75 682.39 590.82C684.88 593.19 686.26 596.47 686.16 599.85C686.16 599.85 690.41 645.5 688.04 650.93C688.04 650.93 682.49 663.4 684.83 667.03C684.83 667.03 713.96 668.11 713.96 665.4C713.96 665.4 713.96 660.42 715.36 659.06C715.36 659.06 715.36 649.13 715.36 649.13C715.36 649.13 721.04 608.9 715.86 597.14C715.86 597.14 708.31 553.29 708.31 553.29C708.31 553.29 712.08 516.66 716.79 510.79C716.79 510.79 715.86 484.14 715.86 484.14C706.14 486.48 677.01 493.53 667.3 495.87C668.81 507.17 672.48 542.44 674.84 552.38Z" id="bhmdKCuAl"></path><path d="M659.11 367.98C660.52 363.34 660.22 358.38 658.25 353.94C657.56 352.44 656.67 350.81 657.16 349.23C657.63 348.1 658.47 347.14 659.55 346.5C661.87 344.77 664.31 343.17 666.83 341.71C668.6 340.7 672.23 338.01 674.25 338.31C674.35 340.92 674.4 343.26 675.61 345.73C675.9 346.3 680.37 351.75 680.57 351.28C680.02 352.49 678.72 353.15 677.51 353.77C670.6 357.45 664.81 362.72 659.11 367.98Z" id="a5iHJ85KHM"></path><path d="M659.11 367.98C660.52 363.34 660.22 358.38 658.25 353.94C657.56 352.44 656.67 350.81 657.16 349.23C657.63 348.1 658.47 347.14 659.55 346.5C661.87 344.77 664.31 343.17 666.83 341.71C668.6 340.7 672.23 338.01 674.25 338.31C674.35 340.92 674.4 343.26 675.61 345.73C675.9 346.3 680.37 351.75 680.57 351.28C680.02 352.49 678.72 353.15 677.51 353.77C670.6 357.45 664.81 362.72 659.11 367.98Z" id="bUepaSgXc"></path><path d="M675.78 338.55C675.78 348.79 667.12 357.1 656.47 357.1C645.79 357.1 637.14 348.79 637.14 338.55C637.14 328.32 645.79 320.03 656.47 320.03C667.12 320.03 675.78 328.32 675.78 338.55Z" id="a6raHcNZHG"></path><path d="M675.78 338.55C675.78 348.79 667.12 357.1 656.47 357.1C645.79 357.1 637.14 348.79 637.14 338.55C637.14 328.32 645.79 320.03 656.47 320.03C667.12 320.03 675.78 328.32 675.78 338.55Z" id="c1WDQ0YGS9"></path><path d="M681.92 349.41C681.92 349.41 685.2 348.96 686.63 355.74C686.63 355.74 713.49 360.7 716.33 385.12C719.14 409.53 714.43 445.24 714.43 445.24C714.43 445.24 718.67 476.44 723.85 493.16C723.85 493.16 728.09 496.79 709.25 491.36C690.41 485.94 657.41 506.73 657.41 506.73C657.41 506.73 654.1 503.57 654.1 501.3C654.1 499.03 650.33 485.94 650.33 485.94C650.33 485.94 647.03 430.32 645.62 424.01C644.21 417.67 651.27 383.32 655.51 382.4C656.74 378.16 652.23 366.6 661.65 361.17C671.07 355.74 677.87 351.76 681.92 349.41Z" id="a1oSknew5S"></path><path d="M681.92 349.41C681.92 349.41 685.2 348.96 686.63 355.74C686.63 355.74 713.49 360.7 716.33 385.12C719.14 409.53 714.43 445.24 714.43 445.24C714.43 445.24 718.67 476.44 723.85 493.16C723.85 493.16 728.09 496.79 709.25 491.36C690.41 485.94 657.41 506.73 657.41 506.73C657.41 506.73 654.1 503.57 654.1 501.3C654.1 499.03 650.33 485.94 650.33 485.94C650.33 485.94 647.03 430.32 645.62 424.01C644.21 417.67 651.27 383.32 655.51 382.4C656.74 378.16 652.23 366.6 661.65 361.17C671.07 355.74 677.87 351.76 681.92 349.41Z" id="b8EDDbshJ"></path><path d="M47.22 643.9C47.22 643.9 240.72 535.7 490.17 643.9" id="btNThNIJl"></path><path d="M47.22 643.9C47.22 643.9 240.72 535.7 490.17 643.9" id="b2zGkJzgK1"></path><path d="M86.16 626.9C69.88 623.7 58.22 609.96 58.22 594.03C58.22 548.5 58.22 184.19 58.22 138.64C58.22 120.12 73.88 105.1 93.19 105.1C93.19 105.1 93.19 105.1 93.19 105.1C128.31 105.1 409.08 105.1 444.18 105.1C463.49 105.1 479.15 120.12 479.15 138.64C479.15 138.64 479.15 138.64 479.15 138.64C479.15 184.19 479.15 548.5 479.15 594.03C479.15 611.17 465.71 625.55 447.95 627.4" id="b16mc30Ith"></path><path d="M86.16 626.9C69.88 623.7 58.22 609.96 58.22 594.03C58.22 548.5 58.22 184.19 58.22 138.64C58.22 120.12 73.88 105.1 93.19 105.1C93.19 105.1 93.19 105.1 93.19 105.1C128.31 105.1 409.08 105.1 444.18 105.1C463.49 105.1 479.15 120.12 479.15 138.64C479.15 138.64 479.15 138.64 479.15 138.64C479.15 184.19 479.15 548.5 479.15 594.03C479.15 611.17 465.71 625.55 447.95 627.4" id="cydpJQxj"></path><path d="M453.95 159.16C453.95 407.78 453.95 545.89 453.95 573.51C453.95 573.51 453.95 573.51 453.95 573.51C229.45 573.51 104.7 573.51 79.77 573.51C79.77 573.51 79.77 573.51 79.77 573.51C79.77 324.92 79.77 186.78 79.77 159.16C79.77 159.16 79.77 159.16 79.77 159.16C304.27 159.16 428.99 159.16 453.95 159.16C453.95 159.16 453.95 159.16 453.95 159.16Z" id="cz55wJ0lb"></path><path d="M453.95 159.16C453.95 407.78 453.95 545.89 453.95 573.51C453.95 573.51 453.95 573.51 453.95 573.51C229.45 573.51 104.7 573.51 79.77 573.51C79.77 573.51 79.77 573.51 79.77 573.51C79.77 324.92 79.77 186.78 79.77 159.16C79.77 159.16 79.77 159.16 79.77 159.16C304.27 159.16 428.99 159.16 453.95 159.16C453.95 159.16 453.95 159.16 453.95 159.16Z" id="a22AGX57C5"></path><path d="M259.51 131.93C259.51 136.79 263.63 140.71 268.68 140.71C273.76 140.71 277.86 136.79 277.86 131.93C277.86 127.08 273.76 123.13 268.68 123.13C263.63 123.13 259.51 127.08 259.51 131.93Z" id="l37lGhyKs1"></path><path d="M259.51 131.93C259.51 136.79 263.63 140.71 268.68 140.71C273.76 140.71 277.86 136.79 277.86 131.93C277.86 127.08 273.76 123.13 268.68 123.13C263.63 123.13 259.51 127.08 259.51 131.93Z" id="g13mT8oUsG"></path><path d="M249 596.03C251.49 585.6 262.3 579.08 273.17 581.45C280.87 583.13 286.81 588.95 288.44 596.35" id="bj5hZ4VT3"></path><path d="M249 596.03C251.49 585.6 262.3 579.08 273.17 581.45C280.87 583.13 286.81 588.95 288.44 596.35" id="cq0iuiSkB"></path><path d="M37.94 189.05C29.95 189.5 22.92 194.21 19.77 201.24C15.23 211.77 21.07 224.15 29.85 231.84C38.63 239.51 49.9 243.9 60.16 249.67C73.93 257.42 86.28 268.17 93.19 282C100.07 295.81 100.81 312.91 92.69 326.1C85.2 338.36 71.53 345.68 58.49 352.44" id="fafDelyii"></path><path d="M37.94 189.05C29.95 189.5 22.92 194.21 19.77 201.24C15.23 211.77 21.07 224.15 29.85 231.84C38.63 239.51 49.9 243.9 60.16 249.67C73.93 257.42 86.28 268.17 93.19 282C100.07 295.81 100.81 312.91 92.69 326.1C85.2 338.36 71.53 345.68 58.49 352.44" id="d6CtXLAbdE"></path><path d="M49.51 197.46C40.63 197.46 33.45 194.11 33.45 189.99C33.45 185.85 40.63 182.49 49.51 182.49C58.36 182.49 65.56 185.85 65.56 189.99C65.56 194.11 58.36 197.46 49.51 197.46Z" id="aS8mcFM5"></path><path d="M49.51 197.46C40.63 197.46 33.45 194.11 33.45 189.99C33.45 185.85 40.63 182.49 49.51 182.49C58.36 182.49 65.56 185.85 65.56 189.99C65.56 194.11 58.36 197.46 49.51 197.46Z" id="dEJS3dOBl"></path><path d="M62.33 246.71C53.48 246.71 46.3 243.36 46.3 239.24C46.3 235.1 53.48 231.77 62.33 231.77C71.21 231.77 78.39 235.1 78.39 239.24C78.39 243.36 71.21 246.71 62.33 246.71Z" id="c1muAzpQJI"></path><path d="M62.33 246.71C53.48 246.71 46.3 243.36 46.3 239.24C46.3 235.1 53.48 231.77 62.33 231.77C71.21 231.77 78.39 235.1 78.39 239.24C78.39 243.36 71.21 246.71 62.33 246.71Z" id="agiuQT0si"></path><path d="M32.99 254.63C24.13 254.63 16.96 251.27 16.96 247.16C16.96 243.01 24.13 239.68 32.99 239.68C41.86 239.68 49.04 243.01 49.04 247.16C49.04 251.27 41.86 254.63 32.99 254.63Z" id="lTSLZPBwO"></path><path d="M32.99 254.63C24.13 254.63 16.96 251.27 16.96 247.16C16.96 243.01 24.13 239.68 32.99 239.68C41.86 239.68 49.04 243.01 49.04 247.16C49.04 251.27 41.86 254.63 32.99 254.63Z" id="b1krzZK1w2"></path><path d="M78.86 295.96C69.98 295.96 62.8 292.63 62.8 288.49C62.8 284.37 69.98 281.02 78.86 281.02C87.71 281.02 94.89 284.37 94.89 288.49C94.89 292.63 87.71 295.96 78.86 295.96Z" id="b6cWKNS3c"></path><path d="M78.86 295.96C69.98 295.96 62.8 292.63 62.8 288.49C62.8 284.37 69.98 281.02 78.86 281.02C87.71 281.02 94.89 284.37 94.89 288.49C94.89 292.63 87.71 295.96 78.86 295.96Z" id="b2fDQTbMN"></path><path d="M110.94 295.96C102.09 295.96 94.89 292.63 94.89 288.49C94.89 284.37 102.09 281.02 110.94 281.02C119.82 281.02 127 284.37 127 288.49C127 292.63 119.82 295.96 110.94 295.96Z" id="b6RJ0vQHx"></path><path d="M110.94 295.96C102.09 295.96 94.89 292.63 94.89 288.49C94.89 284.37 102.09 281.02 110.94 281.02C119.82 281.02 127 284.37 127 288.49C127 292.63 119.82 295.96 110.94 295.96Z" id="ajP6ly1L5"></path><path d="M469.38 491.09C461.96 491.48 455.42 495.9 452.47 502.43C448.25 512.25 453.7 523.77 461.86 530.92C470.05 538.07 480.56 542.17 490.08 547.54C502.9 554.74 514.42 564.78 520.83 577.63C527.24 590.5 527.93 606.41 520.38 618.72C513.41 630.11 500.68 636.94 488.55 643.23" id="a8ugnvZMG6"></path><path d="M469.38 491.09C461.96 491.48 455.42 495.9 452.47 502.43C448.25 512.25 453.7 523.77 461.86 530.92C470.05 538.07 480.56 542.17 490.08 547.54C502.9 554.74 514.42 564.78 520.83 577.63C527.24 590.5 527.93 606.41 520.38 618.72C513.41 630.11 500.68 636.94 488.55 643.23" id="a8r3ojOWJ"></path><path d="M480.16 498.91C471.9 498.91 465.22 495.8 465.22 491.95C465.22 488.11 471.9 485 480.16 485C488.42 485 495.11 488.11 495.11 491.95C495.11 495.8 488.42 498.91 480.16 498.91Z" id="a1IW6p4NOo"></path><path d="M480.16 498.91C471.9 498.91 465.22 495.8 465.22 491.95C465.22 488.11 471.9 485 480.16 485C488.42 485 495.11 488.11 495.11 491.95C495.11 495.8 488.42 498.91 480.16 498.91Z" id="dNzghi8kK"></path><path d="M492.12 544.78C483.86 544.78 477.18 541.67 477.18 537.82C477.18 533.98 483.86 530.85 492.12 530.85C500.38 530.85 507.07 533.98 507.07 537.82C507.07 541.67 500.38 544.78 492.12 544.78Z" id="b19j9FEaEI"></path><path d="M492.12 544.78C483.86 544.78 477.18 541.67 477.18 537.82C477.18 533.98 483.86 530.85 492.12 530.85C500.38 530.85 507.07 533.98 507.07 537.82C507.07 541.67 500.38 544.78 492.12 544.78Z" id="b10DsDbdAq"></path><path d="M464.8 552.15C456.53 552.15 449.85 549.05 449.85 545.2C449.85 541.35 456.53 538.22 464.8 538.22C473.06 538.22 479.74 541.35 479.74 545.2C479.74 549.05 473.06 552.15 464.8 552.15Z" id="bUAv2l6o7"></path><path d="M464.8 552.15C456.53 552.15 449.85 549.05 449.85 545.2C449.85 541.35 456.53 538.22 464.8 538.22C473.06 538.22 479.74 541.35 479.74 545.2C479.74 549.05 473.06 552.15 464.8 552.15Z" id="f2jJKxRhwL"></path><path d="M507.49 590.65C499.25 590.65 492.54 587.54 492.54 583.7C492.54 579.85 499.25 576.72 507.49 576.72C515.75 576.72 522.43 579.85 522.43 583.7C522.43 587.54 515.75 590.65 507.49 590.65Z" id="aQdxfrUf8"></path><path d="M507.49 590.65C499.25 590.65 492.54 587.54 492.54 583.7C492.54 579.85 499.25 576.72 507.49 576.72C515.75 576.72 522.43 579.85 522.43 583.7C522.43 587.54 515.75 590.65 507.49 590.65Z" id="h2pvbBExbE"></path><path d="M537.38 590.65C529.14 590.65 522.43 587.54 522.43 583.7C522.43 579.85 529.14 576.72 537.38 576.72C545.64 576.72 552.32 579.85 552.32 583.7C552.32 587.54 545.64 590.65 537.38 590.65Z" id="eymJjlz2M"></path><path d="M537.38 590.65C529.14 590.65 522.43 587.54 522.43 583.7C522.43 579.85 529.14 576.72 537.38 576.72C545.64 576.72 552.32 579.85 552.32 583.7C552.32 587.54 545.64 590.65 537.38 590.65Z" id="a1s1xgGG1P"></path><path d="M505.64 519.23C511.68 519.55 517.03 523.15 519.45 528.48C522.9 536.49 518.44 545.91 511.78 551.76C505.09 557.58 496.51 560.93 488.72 565.32C478.26 571.22 468.84 579.38 463.61 589.89C458.38 600.39 457.82 613.41 463.98 623.45C469.68 632.75 480.09 638.32 489.98 643.48" id="c46zdRrVri"></path><path d="M505.64 519.23C511.68 519.55 517.03 523.15 519.45 528.48C522.9 536.49 518.44 545.91 511.78 551.76C505.09 557.58 496.51 560.93 488.72 565.32C478.26 571.22 468.84 579.38 463.61 589.89C458.38 600.39 457.82 613.41 463.98 623.45C469.68 632.75 480.09 638.32 489.98 643.48" id="bIovDLhTI"></path><path d="M496.83 525.62C490.08 525.62 484.62 523.05 484.62 519.92C484.62 516.79 490.08 514.25 496.83 514.25C503.57 514.25 509.04 516.79 509.04 519.92C509.04 523.05 503.57 525.62 496.83 525.62Z" id="az5OEVlVZ"></path><path d="M496.83 525.62C490.08 525.62 484.62 523.05 484.62 519.92C484.62 516.79 490.08 514.25 496.83 514.25C503.57 514.25 509.04 516.79 509.04 519.92C509.04 523.05 503.57 525.62 496.83 525.62Z" id="b1YJnwSv53"></path><path d="M487.07 563.08C480.31 563.08 474.86 560.51 474.86 557.38C474.86 554.25 480.31 551.68 487.07 551.68C493.8 551.68 499.27 554.25 499.27 557.38C499.27 560.51 493.8 563.08 487.07 563.08Z" id="b11MuXHqfw"></path><path d="M487.07 563.08C480.31 563.08 474.86 560.51 474.86 557.38C474.86 554.25 480.31 551.68 487.07 551.68C493.8 551.68 499.27 554.25 499.27 557.38C499.27 560.51 493.8 563.08 487.07 563.08Z" id="a2xZ58roJU"></path><path d="M509.39 569.1C502.63 569.1 497.18 566.53 497.18 563.4C497.18 560.27 502.63 557.73 509.39 557.73C516.12 557.73 521.59 560.27 521.59 563.4C521.59 566.53 516.12 569.1 509.39 569.1Z" id="a1AGdfC6sB"></path><path d="M509.39 569.1C502.63 569.1 497.18 566.53 497.18 563.4C497.18 560.27 502.63 557.73 509.39 557.73C516.12 557.73 521.59 560.27 521.59 563.4C521.59 566.53 516.12 569.1 509.39 569.1Z" id="a1gnsH7gQ"></path><path d="M474.51 600.52C467.76 600.52 462.31 597.98 462.31 594.84C462.31 591.71 467.76 589.15 474.51 589.15C481.25 589.15 486.72 591.71 486.72 594.84C486.72 597.98 481.25 600.52 474.51 600.52Z" id="b4twRvWlFh"></path><path d="M474.51 600.52C467.76 600.52 462.31 597.98 462.31 594.84C462.31 591.71 467.76 589.15 474.51 589.15C481.25 589.15 486.72 591.71 486.72 594.84C486.72 597.98 481.25 600.52 474.51 600.52Z" id="cv8qQJjxN"></path><path d="M450.1 600.52C443.36 600.52 437.89 597.98 437.89 594.84C437.89 591.71 443.36 589.15 450.1 589.15C456.83 589.15 462.31 591.71 462.31 594.84C462.31 597.98 456.83 600.52 450.1 600.52Z" id="a4KwAZIUFt"></path><path d="M450.1 600.52C443.36 600.52 437.89 597.98 437.89 594.84C437.89 591.71 443.36 589.15 450.1 589.15C456.83 589.15 462.31 591.71 462.31 594.84C462.31 597.98 456.83 600.52 450.1 600.52Z" id="eVosA2lRW"></path><path d="M142.58 246.29L142.58 445.09L385.61 445.09" id="a1HWTguOaL"></path><path d="M142.58 246.29L142.58 445.09L385.61 445.09" id="dzBMg88xC"></path><path d="M193.96 379.12C193.96 409.73 193.96 426.75 193.96 430.15C193.96 430.15 193.96 430.15 193.96 430.15C181.85 430.15 175.11 430.15 173.76 430.15C173.76 430.15 173.76 430.15 173.76 430.15C173.76 399.54 173.76 382.53 173.76 379.12C173.76 379.12 173.76 379.12 173.76 379.12C185.87 379.12 192.6 379.12 193.96 379.12C193.96 379.12 193.96 379.12 193.96 379.12Z" id="bk1rC2ht7"></path><path d="M193.96 379.12C193.96 409.73 193.96 426.75 193.96 430.15C193.96 430.15 193.96 430.15 193.96 430.15C181.85 430.15 175.11 430.15 173.76 430.15C173.76 430.15 173.76 430.15 173.76 430.15C173.76 399.54 173.76 382.53 173.76 379.12C173.76 379.12 173.76 379.12 173.76 379.12C185.87 379.12 192.6 379.12 193.96 379.12C193.96 379.12 193.96 379.12 193.96 379.12Z" id="d1m5siOHAr"></path><path d="M235.22 361.54C235.22 402.7 235.22 425.56 235.22 430.15C235.22 430.15 235.22 430.15 235.22 430.15C223.11 430.15 216.37 430.15 215.04 430.15C215.04 430.15 215.04 430.15 215.04 430.15C215.04 388.99 215.04 366.1 215.04 361.54C215.04 361.54 215.04 361.54 215.04 361.54C227.15 361.54 233.86 361.54 235.22 361.54C235.22 361.54 235.22 361.54 235.22 361.54Z" id="g1zQFgXr58"></path><path d="M235.22 361.54C235.22 402.7 235.22 425.56 235.22 430.15C235.22 430.15 235.22 430.15 235.22 430.15C223.11 430.15 216.37 430.15 215.04 430.15C215.04 430.15 215.04 430.15 215.04 430.15C215.04 388.99 215.04 366.1 215.04 361.54C215.04 361.54 215.04 361.54 215.04 361.54C227.15 361.54 233.86 361.54 235.22 361.54C235.22 361.54 235.22 361.54 235.22 361.54Z" id="b2LF9NFQL"></path><path d="M276.48 340.43C276.48 394.27 276.48 424.16 276.48 430.15C276.48 430.15 276.48 430.15 276.48 430.15C264.37 430.15 257.66 430.15 256.3 430.15C256.3 430.15 256.3 430.15 256.3 430.15C256.3 376.31 256.3 346.4 256.3 340.43C256.3 340.43 256.3 340.43 256.3 340.43C268.41 340.43 275.14 340.43 276.48 340.43C276.48 340.43 276.48 340.43 276.48 340.43Z" id="chAbatSna"></path><path d="M276.48 340.43C276.48 394.27 276.48 424.16 276.48 430.15C276.48 430.15 276.48 430.15 276.48 430.15C264.37 430.15 257.66 430.15 256.3 430.15C256.3 430.15 256.3 430.15 256.3 430.15C256.3 376.31 256.3 346.4 256.3 340.43C256.3 340.43 256.3 340.43 256.3 340.43C268.41 340.43 275.14 340.43 276.48 340.43C276.48 340.43 276.48 340.43 276.48 340.43Z" id="aJdx82zl"></path><path d="M317.76 302.6C317.76 379.12 317.76 421.64 317.76 430.15C317.76 430.15 317.76 430.15 317.76 430.15C305.65 430.15 298.92 430.15 297.59 430.15C297.59 430.15 297.59 430.15 297.59 430.15C297.59 353.62 297.59 311.11 297.59 302.6C297.59 302.6 297.59 302.6 297.59 302.6C309.67 302.6 316.4 302.6 317.76 302.6C317.76 302.6 317.76 302.6 317.76 302.6Z" id="afNmpS93M"></path><path d="M317.76 302.6C317.76 379.12 317.76 421.64 317.76 430.15C317.76 430.15 317.76 430.15 317.76 430.15C305.65 430.15 298.92 430.15 297.59 430.15C297.59 430.15 297.59 430.15 297.59 430.15C297.59 353.62 297.59 311.11 297.59 302.6C297.59 302.6 297.59 302.6 297.59 302.6C309.67 302.6 316.4 302.6 317.76 302.6C317.76 302.6 317.76 302.6 317.76 302.6Z" id="b2PxwswFFt"></path><path d="M359.02 272.68C359.02 367.16 359.02 419.64 359.02 430.15C359.02 430.15 359.02 430.15 359.02 430.15C346.91 430.15 340.2 430.15 338.85 430.15C338.85 430.15 338.85 430.15 338.85 430.15C338.85 335.67 338.85 283.19 338.85 272.68C338.85 272.68 338.85 272.68 338.85 272.68C350.96 272.68 357.69 272.68 359.02 272.68C359.02 272.68 359.02 272.68 359.02 272.68Z" id="cg4X0zdB"></path><path d="M359.02 272.68C359.02 367.16 359.02 419.64 359.02 430.15C359.02 430.15 359.02 430.15 359.02 430.15C346.91 430.15 340.2 430.15 338.85 430.15C338.85 430.15 338.85 430.15 338.85 430.15C338.85 335.67 338.85 283.19 338.85 272.68C338.85 272.68 338.85 272.68 338.85 272.68C350.96 272.68 357.69 272.68 359.02 272.68C359.02 272.68 359.02 272.68 359.02 272.68Z" id="abGRutxFj"></path><path d="M187.52 372.96C187.52 403.59 187.52 420.58 187.52 423.98C187.52 423.98 187.52 423.98 187.52 423.98C175.41 423.98 168.7 423.98 167.35 423.98C167.35 423.98 167.35 423.98 167.35 423.98C167.35 393.38 167.35 376.36 167.35 372.96C167.35 372.96 167.35 372.96 167.35 372.96C179.45 372.96 186.19 372.96 187.52 372.96C187.52 372.96 187.52 372.96 187.52 372.96Z" id="b8x51q4WX5"></path><path d="M187.52 372.96C187.52 403.59 187.52 420.58 187.52 423.98C187.52 423.98 187.52 423.98 187.52 423.98C175.41 423.98 168.7 423.98 167.35 423.98C167.35 423.98 167.35 423.98 167.35 423.98C167.35 393.38 167.35 376.36 167.35 372.96C167.35 372.96 167.35 372.96 167.35 372.96C179.45 372.96 186.19 372.96 187.52 372.96C187.52 372.96 187.52 372.96 187.52 372.96Z" id="b1GogjJrUo"></path><path d="M228.8 355.37C228.8 396.53 228.8 419.42 228.8 423.98C228.8 423.98 228.8 423.98 228.8 423.98C216.69 423.98 209.96 423.98 208.63 423.98C208.63 423.98 208.63 423.98 208.63 423.98C208.63 382.82 208.63 359.96 208.63 355.37C208.63 355.37 208.63 355.37 208.63 355.37C220.71 355.37 227.45 355.37 228.8 355.37C228.8 355.37 228.8 355.37 228.8 355.37Z" id="b4oI62FyuX"></path><path d="M228.8 355.37C228.8 396.53 228.8 419.42 228.8 423.98C228.8 423.98 228.8 423.98 228.8 423.98C216.69 423.98 209.96 423.98 208.63 423.98C208.63 423.98 208.63 423.98 208.63 423.98C208.63 382.82 208.63 359.96 208.63 355.37C208.63 355.37 208.63 355.37 208.63 355.37C220.71 355.37 227.45 355.37 228.8 355.37C228.8 355.37 228.8 355.37 228.8 355.37Z" id="anq0bbGlv"></path><path d="M270.06 334.26C270.06 388.1 270.06 418.02 270.06 423.98C270.06 423.98 270.06 423.98 270.06 423.98C257.95 423.98 251.22 423.98 249.89 423.98C249.89 423.98 249.89 423.98 249.89 423.98C249.89 370.15 249.89 340.26 249.89 334.26C249.89 334.26 249.89 334.26 249.89 334.26C262 334.26 268.71 334.26 270.06 334.26C270.06 334.26 270.06 334.26 270.06 334.26Z" id="d4NeMkmQY"></path><path d="M270.06 334.26C270.06 388.1 270.06 418.02 270.06 423.98C270.06 423.98 270.06 423.98 270.06 423.98C257.95 423.98 251.22 423.98 249.89 423.98C249.89 423.98 249.89 423.98 249.89 423.98C249.89 370.15 249.89 340.26 249.89 334.26C249.89 334.26 249.89 334.26 249.89 334.26C262 334.26 268.71 334.26 270.06 334.26C270.06 334.26 270.06 334.26 270.06 334.26Z" id="a5LG9ZS0FL"></path><path d="M311.32 296.43C311.32 372.96 311.32 415.48 311.32 423.98C311.32 423.98 311.32 423.98 311.32 423.98C299.24 423.98 292.51 423.98 291.15 423.98C291.15 423.98 291.15 423.98 291.15 423.98C291.15 347.46 291.15 304.94 291.15 296.43C291.15 296.43 291.15 296.43 291.15 296.43C303.26 296.43 309.99 296.43 311.32 296.43C311.32 296.43 311.32 296.43 311.32 296.43Z" id="b2a0DHrTxg"></path><path d="M311.32 296.43C311.32 372.96 311.32 415.48 311.32 423.98C311.32 423.98 311.32 423.98 311.32 423.98C299.24 423.98 292.51 423.98 291.15 423.98C291.15 423.98 291.15 423.98 291.15 423.98C291.15 347.46 291.15 304.94 291.15 296.43C291.15 296.43 291.15 296.43 291.15 296.43C303.26 296.43 309.99 296.43 311.32 296.43C311.32 296.43 311.32 296.43 311.32 296.43Z" id="bD6xtCGrN"></path><path d="M352.61 266.54C352.61 361 352.61 413.5 352.61 423.98C352.61 423.98 352.61 423.98 352.61 423.98C340.5 423.98 333.77 423.98 332.43 423.98C332.43 423.98 332.43 423.98 332.43 423.98C332.43 329.5 332.43 277.02 332.43 266.54C332.43 266.54 332.43 266.54 332.43 266.54C344.54 266.54 351.25 266.54 352.61 266.54C352.61 266.54 352.61 266.54 352.61 266.54Z" id="aMbG4Ca4g"></path><path d="M352.61 266.54C352.61 361 352.61 413.5 352.61 423.98C352.61 423.98 352.61 423.98 352.61 423.98C340.5 423.98 333.77 423.98 332.43 423.98C332.43 423.98 332.43 423.98 332.43 423.98C332.43 329.5 332.43 277.02 332.43 266.54C332.43 266.54 332.43 266.54 332.43 266.54C344.54 266.54 351.25 266.54 352.61 266.54C352.61 266.54 352.61 266.54 352.61 266.54Z" id="a8jTSXYOy"></path></defs><g><g><g><use xlink:href="#d7f0RalEBO" opacity="1" fill="#fbbebe" fill-opacity="1"></use><g><use xlink:href="#d7f0RalEBO" opacity="1" fill-opacity="0" stroke="#000000" stroke-width="1" stroke-opacity="0"></use></g></g><g><use xlink:href="#aSfRuFcI" opacity="1" fill="#000000" fill-opacity="0"></use><g><use xlink:href="#aSfRuFcI" opacity="1" fill-opacity="0" stroke="#000000" stroke-width="1" stroke-opacity="0"></use></g></g><g><use xlink:href="#b19zh1f2fm" opacity="1" fill="#3f3d56" fill-opacity="1"></use><g><use xlink:href="#b19zh1f2fm" opacity="1" fill-opacity="0" stroke="#000000" stroke-width="1" stroke-opacity="0"></use></g></g><g><use xlink:href="#a4GLRuHI3" opacity="1" fill="#000000" fill-opacity="0"></use><g><use xlink:href="#a4GLRuHI3" opacity="1" fill-opacity="0" stroke="#000000" stroke-width="1" stroke-opacity="0"></use></g></g><g><use xlink:href="#a5OJIZ7BFj" opacity="1" fill="#fbbebe" fill-opacity="1"></use><g><use xlink:href="#a5OJIZ7BFj" opacity="1" fill-opacity="0" stroke="#000000" stroke-width="1" stroke-opacity="0"></use></g></g><g><use xlink:href="#b15gVp8G4d" opacity="1" fill="#000000" fill-opacity="0"></use><g><use xlink:href="#b15gVp8G4d" opacity="1" fill-opacity="0" stroke="#000000" stroke-width="1" stroke-opacity="0"></use></g></g><g><use xlink:href="#b5VAKW0eW2" opacity="1" fill="#3f3d56" fill-opacity="1"></use><g><use xlink:href="#b5VAKW0eW2" opacity="1" fill-opacity="0" stroke="#000000" stroke-width="1" stroke-opacity="0"></use></g></g><g><use xlink:href="#e3t4CSMqL" opacity="1" fill="#000000" fill-opacity="0"></use><g><use xlink:href="#e3t4CSMqL" opacity="1" fill-opacity="0" stroke="#000000" stroke-width="1" stroke-opacity="0"></use></g></g><g><use xlink:href="#aUYcNXZZH" opacity="1" fill="#3f3d56" fill-opacity="1"></use><g><use xlink:href="#aUYcNXZZH" opacity="1" fill-opacity="0" stroke="#000000" stroke-width="1" stroke-opacity="0"></use></g></g><g><use xlink:href="#b4fYZt5Pel" opacity="1" fill="#000000" fill-opacity="0"></use><g><use xlink:href="#b4fYZt5Pel" opacity="1" fill-opacity="0" stroke="#000000" stroke-width="1" stroke-opacity="0"></use></g></g><g><use xlink:href="#b1IkCMWaUN" opacity="1" fill="#3f3d56" fill-opacity="1"></use><g><use xlink:href="#b1IkCMWaUN" opacity="1" fill-opacity="0" stroke="#000000" stroke-width="1" stroke-opacity="0"></use></g></g><g><use xlink:href="#f2WEE8Yr9C" opacity="1" fill="#000000" fill-opacity="0"></use><g><use xlink:href="#f2WEE8Yr9C" opacity="1" fill-opacity="0" stroke="#000000" stroke-width="1" stroke-opacity="0"></use></g></g><g><use xlink:href="#aZOmq4eSH" opacity="1" fill="#6c63ff" fill-opacity="1"></use><g><use xlink:href="#aZOmq4eSH" opacity="1" fill-opacity="0" stroke="#000000" stroke-width="1" stroke-opacity="0"></use></g></g><g><use xlink:href="#fVIzdpFld" opacity="1" fill="#eda219" fill-opacity="1"></use><g><use xlink:href="#fVIzdpFld" opacity="1" fill-opacity="0" stroke="#000000" stroke-width="1" stroke-opacity="0"></use></g></g><g><use xlink:href="#a2pV3NklRD" opacity="1" fill="#6c63ff" fill-opacity="1"></use><g><use xlink:href="#a2pV3NklRD" opacity="1" fill-opacity="0" stroke="#000000" stroke-width="1" stroke-opacity="0"></use></g></g><g><use xlink:href="#h1nBEWAdma" opacity="1" fill="#61e357" fill-opacity="1"></use><g><use xlink:href="#h1nBEWAdma" opacity="1" fill-opacity="0" stroke="#000000" stroke-width="0" stroke-opacity="0"></use></g></g><g><use xlink:href="#b1iXvOzTRh" opacity="1" fill="#3c354c" fill-opacity="1"></use><g><use xlink:href="#b1iXvOzTRh" opacity="1" fill-opacity="0" stroke="#000000" stroke-width="1" stroke-opacity="0"></use></g></g><g><use xlink:href="#a9Oibs0Hu" opacity="1" fill="#000000" fill-opacity="0"></use><g><use xlink:href="#a9Oibs0Hu" opacity="1" fill-opacity="0" stroke="#000000" stroke-width="1" stroke-opacity="0"></use></g></g><g><use xlink:href="#b1bjdI5FJv" opacity="1" fill="#000000" fill-opacity="1"></use><g><use xlink:href="#b1bjdI5FJv" opacity="1" fill-opacity="0" stroke="#000000" stroke-width="1" stroke-opacity="0"></use></g></g><g><use xlink:href="#d2G7Waxc1k" opacity="1" fill="#000000" fill-opacity="0"></use><g><use xlink:href="#d2G7Waxc1k" opacity="1" fill-opacity="0" stroke="#000000" stroke-width="1" stroke-opacity="0"></use></g></g><g><use xlink:href="#bWeEb18ce" opacity="1" fill="#000000" fill-opacity="0"></use><g><use xlink:href="#bWeEb18ce" opacity="1" fill-opacity="0" stroke="#000000" stroke-width="1" stroke-opacity="0"></use></g></g><g><use xlink:href="#b4u3db6UeG" opacity="1" fill="#000000" fill-opacity="0"></use><g><use xlink:href="#b4u3db6UeG" opacity="1" fill-opacity="0" stroke="#a9a5a5" stroke-width="1" stroke-opacity="1"></use></g></g><g><use xlink:href="#g28LU5cbUd" opacity="1" fill="#3f3d56" fill-opacity="1"></use><g><use xlink:href="#g28LU5cbUd" opacity="1" fill-opacity="0" stroke="#000000" stroke-width="1" stroke-opacity="0"></use></g></g><g><use xlink:href="#aoK9qHdV" opacity="1" fill="#000000" fill-opacity="0"></use><g><use xlink:href="#aoK9qHdV" opacity="1" fill-opacity="0" stroke="#000000" stroke-width="1" stroke-opacity="0"></use></g></g><g><use xlink:href="#b5lNAisXee" opacity="1" fill="#3f3d56" fill-opacity="1"></use><g><use xlink:href="#b5lNAisXee" opacity="1" fill-opacity="0" stroke="#000000" stroke-width="1" stroke-opacity="0"></use></g></g><g><use xlink:href="#ctrENzzXz" opacity="1" fill="#000000" fill-opacity="0"></use><g><use xlink:href="#ctrENzzXz" opacity="1" fill-opacity="0" stroke="#000000" stroke-width="1" stroke-opacity="0"></use></g></g><g><use xlink:href="#e1mQWKJS7F" opacity="1" fill="#000000" fill-opacity="1"></use><g><use xlink:href="#e1mQWKJS7F" opacity="1" fill-opacity="0" stroke="#000000" stroke-width="1" stroke-opacity="0"></use></g></g><g><use xlink:href="#a11XXWsUoj" opacity="1" fill="#000000" fill-opacity="0"></use><g><use xlink:href="#a11XXWsUoj" opacity="1" fill-opacity="0" stroke="#000000" stroke-width="1" stroke-opacity="0"></use></g></g><g><use xlink:href="#j1Bi8YqN7" opacity="1" fill="#3f3d56" fill-opacity="1"></use><g><use xlink:href="#j1Bi8YqN7" opacity="1" fill-opacity="0" stroke="#000000" stroke-width="1" stroke-opacity="0"></use></g></g><g><use xlink:href="#a2uW2Uij" opacity="1" fill="#000000" fill-opacity="0"></use><g><use xlink:href="#a2uW2Uij" opacity="1" fill-opacity="0" stroke="#000000" stroke-width="1" stroke-opacity="0"></use></g></g><g><use xlink:href="#a2f5S2FZfE" opacity="1" fill="#3c354c" fill-opacity="1"></use><g><use xlink:href="#a2f5S2FZfE" opacity="1" fill-opacity="0" stroke="#000000" stroke-width="1" stroke-opacity="0"></use></g></g><g><use xlink:href="#bhmdKCuAl" opacity="1" fill="#000000" fill-opacity="0"></use><g><use xlink:href="#bhmdKCuAl" opacity="1" fill-opacity="0" stroke="#000000" stroke-width="1" stroke-opacity="0"></use></g></g><g><use xlink:href="#a5iHJ85KHM" opacity="1" fill="#fbbebe" fill-opacity="1"></use><g><use xlink:href="#a5iHJ85KHM" opacity="1" fill-opacity="0" stroke="#000000" stroke-width="1" stroke-opacity="0"></use></g></g><g><use xlink:href="#bUepaSgXc" opacity="1" fill="#000000" fill-opacity="0"></use><g><use xlink:href="#bUepaSgXc" opacity="1" fill-opacity="0" stroke="#000000" stroke-width="1" stroke-opacity="0"></use></g></g><g><use xlink:href="#a6raHcNZHG" opacity="1" fill="#fbbebe" fill-opacity="1"></use><g><use xlink:href="#a6raHcNZHG" opacity="1" fill-opacity="0" stroke="#000000" stroke-width="1" stroke-opacity="0"></use></g></g><g><use xlink:href="#c1WDQ0YGS9" opacity="1" fill="#000000" fill-opacity="0"></use><g><use xlink:href="#c1WDQ0YGS9" opacity="1" fill-opacity="0" stroke="#000000" stroke-width="1" stroke-opacity="0"></use></g></g><g><use xlink:href="#a1oSknew5S" opacity="1" fill="#3f3d56" fill-opacity="1"></use><g><use xlink:href="#a1oSknew5S" opacity="1" fill-opacity="0" stroke="#000000" stroke-width="1" stroke-opacity="0"></use></g></g><g><use xlink:href="#b8EDDbshJ" opacity="1" fill="#000000" fill-opacity="0"></use><g><use xlink:href="#b8EDDbshJ" opacity="1" fill-opacity="0" stroke="#000000" stroke-width="1" stroke-opacity="0"></use></g></g><g><use xlink:href="#btNThNIJl" opacity="1" fill="#000000" fill-opacity="0"></use><g><use xlink:href="#btNThNIJl" opacity="1" fill-opacity="0" stroke="#000000" stroke-width="1" stroke-opacity="0"></use></g></g><g><use xlink:href="#b2zGkJzgK1" opacity="1" fill="#000000" fill-opacity="0"></use><g><use xlink:href="#b2zGkJzgK1" opacity="1" fill-opacity="0" stroke="#ffffff" stroke-width="2" stroke-opacity="1"></use></g></g><g><use xlink:href="#b16mc30Ith" opacity="1" fill="#000000" fill-opacity="0"></use><g><use xlink:href="#b16mc30Ith" opacity="1" fill-opacity="0" stroke="#000000" stroke-width="1" stroke-opacity="0"></use></g></g><g><use xlink:href="#cydpJQxj" opacity="1" fill="#3f3d56" fill-opacity="1"></use><g><use xlink:href="#cydpJQxj" opacity="1" fill-opacity="0" stroke="#ffffff" stroke-width="2" stroke-opacity="1"></use></g></g><g><use xlink:href="#cz55wJ0lb" opacity="1" fill="#c2ffbd" fill-opacity="1"></use><g><use xlink:href="#cz55wJ0lb" opacity="1" fill-opacity="0" stroke="#000000" stroke-width="1" stroke-opacity="0"></use></g></g><g><use xlink:href="#a22AGX57C5" opacity="1" fill="#000000" fill-opacity="0"></use><g><use xlink:href="#a22AGX57C5" opacity="1" fill-opacity="0" stroke="#3f3d56" stroke-width="1" stroke-opacity="1"></use></g></g><g><use xlink:href="#l37lGhyKs1" opacity="1" fill="#000000" fill-opacity="0"></use><g><use xlink:href="#l37lGhyKs1" opacity="1" fill-opacity="0" stroke="#000000" stroke-width="1" stroke-opacity="0"></use></g></g><g><use xlink:href="#g13mT8oUsG" opacity="1" fill="#000000" fill-opacity="0"></use><g><use xlink:href="#g13mT8oUsG" opacity="1" fill-opacity="0" stroke="#3f3d56" stroke-width="1" stroke-opacity="1"></use></g></g><g><use xlink:href="#bj5hZ4VT3" opacity="1" fill="#000000" fill-opacity="0"></use><g><use xlink:href="#bj5hZ4VT3" opacity="1" fill-opacity="0" stroke="#000000" stroke-width="1" stroke-opacity="0"></use></g></g><g><use xlink:href="#cq0iuiSkB" opacity="1" fill="#000000" fill-opacity="0"></use><g><use xlink:href="#cq0iuiSkB" opacity="1" fill-opacity="0" stroke="#3f3d56" stroke-width="1" stroke-opacity="1"></use></g></g><g><use xlink:href="#fafDelyii" opacity="1" fill="#000000" fill-opacity="0"></use><g><use xlink:href="#fafDelyii" opacity="1" fill-opacity="0" stroke="#000000" stroke-width="1" stroke-opacity="0"></use></g></g><g><use xlink:href="#d6CtXLAbdE" opacity="1" fill="#000000" fill-opacity="0"></use><g><use xlink:href="#d6CtXLAbdE" opacity="1" fill-opacity="0" stroke="#3f3d56" stroke-width="1" stroke-opacity="1"></use></g></g><g><use xlink:href="#aS8mcFM5" opacity="1" fill="#57b894" fill-opacity="1"></use><g><use xlink:href="#aS8mcFM5" opacity="1" fill-opacity="0" stroke="#000000" stroke-width="1" stroke-opacity="0"></use></g></g><g><use xlink:href="#dEJS3dOBl" opacity="1" fill="#000000" fill-opacity="0"></use><g><use xlink:href="#dEJS3dOBl" opacity="1" fill-opacity="0" stroke="#000000" stroke-width="1" stroke-opacity="0"></use></g></g><g><use xlink:href="#c1muAzpQJI" opacity="1" fill="#57b894" fill-opacity="1"></use><g><use xlink:href="#c1muAzpQJI" opacity="1" fill-opacity="0" stroke="#000000" stroke-width="1" stroke-opacity="0"></use></g></g><g><use xlink:href="#agiuQT0si" opacity="1" fill="#000000" fill-opacity="0"></use><g><use xlink:href="#agiuQT0si" opacity="1" fill-opacity="0" stroke="#000000" stroke-width="1" stroke-opacity="0"></use></g></g><g><use xlink:href="#lTSLZPBwO" opacity="1" fill="#57b894" fill-opacity="1"></use><g><use xlink:href="#lTSLZPBwO" opacity="1" fill-opacity="0" stroke="#000000" stroke-width="1" stroke-opacity="0"></use></g></g><g><use xlink:href="#b1krzZK1w2" opacity="1" fill="#000000" fill-opacity="0"></use><g><use xlink:href="#b1krzZK1w2" opacity="1" fill-opacity="0" stroke="#000000" stroke-width="1" stroke-opacity="0"></use></g></g><g><use xlink:href="#b6cWKNS3c" opacity="1" fill="#57b894" fill-opacity="1"></use><g><use xlink:href="#b6cWKNS3c" opacity="1" fill-opacity="0" stroke="#000000" stroke-width="1" stroke-opacity="0"></use></g></g><g><use xlink:href="#b2fDQTbMN" opacity="1" fill="#000000" fill-opacity="0"></use><g><use xlink:href="#b2fDQTbMN" opacity="1" fill-opacity="0" stroke="#000000" stroke-width="1" stroke-opacity="0"></use></g></g><g><use xlink:href="#b6RJ0vQHx" opacity="1" fill="#57b894" fill-opacity="1"></use><g><use xlink:href="#b6RJ0vQHx" opacity="1" fill-opacity="0" stroke="#000000" stroke-width="1" stroke-opacity="0"></use></g></g><g><use xlink:href="#ajP6ly1L5" opacity="1" fill="#000000" fill-opacity="0"></use><g><use xlink:href="#ajP6ly1L5" opacity="1" fill-opacity="0" stroke="#000000" stroke-width="1" stroke-opacity="0"></use></g></g><g><use xlink:href="#a8ugnvZMG6" opacity="1" fill="#000000" fill-opacity="0"></use><g><use xlink:href="#a8ugnvZMG6" opacity="1" fill-opacity="0" stroke="#000000" stroke-width="1" stroke-opacity="0"></use></g></g><g><use xlink:href="#a8r3ojOWJ" opacity="1" fill="#000000" fill-opacity="0"></use><g><use xlink:href="#a8r3ojOWJ" opacity="1" fill-opacity="0" stroke="#3f3d56" stroke-width="1" stroke-opacity="1"></use></g></g><g><use xlink:href="#a1IW6p4NOo" opacity="1" fill="#57b894" fill-opacity="1"></use><g><use xlink:href="#a1IW6p4NOo" opacity="1" fill-opacity="0" stroke="#000000" stroke-width="1" stroke-opacity="0"></use></g></g><g><use xlink:href="#dNzghi8kK" opacity="1" fill="#000000" fill-opacity="0"></use><g><use xlink:href="#dNzghi8kK" opacity="1" fill-opacity="0" stroke="#000000" stroke-width="1" stroke-opacity="0"></use></g></g><g><use xlink:href="#b19j9FEaEI" opacity="1" fill="#57b894" fill-opacity="1"></use><g><use xlink:href="#b19j9FEaEI" opacity="1" fill-opacity="0" stroke="#000000" stroke-width="1" stroke-opacity="0"></use></g></g><g><use xlink:href="#b10DsDbdAq" opacity="1" fill="#000000" fill-opacity="0"></use><g><use xlink:href="#b10DsDbdAq" opacity="1" fill-opacity="0" stroke="#000000" stroke-width="1" stroke-opacity="0"></use></g></g><g><use xlink:href="#bUAv2l6o7" opacity="1" fill="#57b894" fill-opacity="1"></use><g><use xlink:href="#bUAv2l6o7" opacity="1" fill-opacity="0" stroke="#000000" stroke-width="1" stroke-opacity="0"></use></g></g><g><use xlink:href="#f2jJKxRhwL" opacity="1" fill="#000000" fill-opacity="0"></use><g><use xlink:href="#f2jJKxRhwL" opacity="1" fill-opacity="0" stroke="#000000" stroke-width="1" stroke-opacity="0"></use></g></g><g><use xlink:href="#aQdxfrUf8" opacity="1" fill="#57b894" fill-opacity="1"></use><g><use xlink:href="#aQdxfrUf8" opacity="1" fill-opacity="0" stroke="#000000" stroke-width="1" stroke-opacity="0"></use></g></g><g><use xlink:href="#h2pvbBExbE" opacity="1" fill="#000000" fill-opacity="0"></use><g><use xlink:href="#h2pvbBExbE" opacity="1" fill-opacity="0" stroke="#000000" stroke-width="1" stroke-opacity="0"></use></g></g><g><use xlink:href="#eymJjlz2M" opacity="1" fill="#57b894" fill-opacity="1"></use><g><use xlink:href="#eymJjlz2M" opacity="1" fill-opacity="0" stroke="#000000" stroke-width="1" stroke-opacity="0"></use></g></g><g><use xlink:href="#a1s1xgGG1P" opacity="1" fill="#000000" fill-opacity="0"></use><g><use xlink:href="#a1s1xgGG1P" opacity="1" fill-opacity="0" stroke="#000000" stroke-width="1" stroke-opacity="0"></use></g></g><g><use xlink:href="#c46zdRrVri" opacity="1" fill="#000000" fill-opacity="0"></use><g><use xlink:href="#c46zdRrVri" opacity="1" fill-opacity="0" stroke="#000000" stroke-width="1" stroke-opacity="0"></use></g></g><g><use xlink:href="#bIovDLhTI" opacity="1" fill="#000000" fill-opacity="0"></use><g><use xlink:href="#bIovDLhTI" opacity="1" fill-opacity="0" stroke="#3f3d56" stroke-width="1" stroke-opacity="1"></use></g></g><g><use xlink:href="#az5OEVlVZ" opacity="1" fill="#57b894" fill-opacity="1"></use><g><use xlink:href="#az5OEVlVZ" opacity="1" fill-opacity="0" stroke="#000000" stroke-width="1" stroke-opacity="0"></use></g></g><g><use xlink:href="#b1YJnwSv53" opacity="1" fill="#000000" fill-opacity="0"></use><g><use xlink:href="#b1YJnwSv53" opacity="1" fill-opacity="0" stroke="#000000" stroke-width="1" stroke-opacity="0"></use></g></g><g><use xlink:href="#b11MuXHqfw" opacity="1" fill="#57b894" fill-opacity="1"></use><g><use xlink:href="#b11MuXHqfw" opacity="1" fill-opacity="0" stroke="#000000" stroke-width="1" stroke-opacity="0"></use></g></g><g><use xlink:href="#a2xZ58roJU" opacity="1" fill="#000000" fill-opacity="0"></use><g><use xlink:href="#a2xZ58roJU" opacity="1" fill-opacity="0" stroke="#000000" stroke-width="1" stroke-opacity="0"></use></g></g><g><use xlink:href="#a1AGdfC6sB" opacity="1" fill="#57b894" fill-opacity="1"></use><g><use xlink:href="#a1AGdfC6sB" opacity="1" fill-opacity="0" stroke="#000000" stroke-width="1" stroke-opacity="0"></use></g></g><g><use xlink:href="#a1gnsH7gQ" opacity="1" fill="#000000" fill-opacity="0"></use><g><use xlink:href="#a1gnsH7gQ" opacity="1" fill-opacity="0" stroke="#000000" stroke-width="1" stroke-opacity="0"></use></g></g><g><use xlink:href="#b4twRvWlFh" opacity="1" fill="#57b894" fill-opacity="1"></use><g><use xlink:href="#b4twRvWlFh" opacity="1" fill-opacity="0" stroke="#000000" stroke-width="1" stroke-opacity="0"></use></g></g><g><use xlink:href="#cv8qQJjxN" opacity="1" fill="#000000" fill-opacity="0"></use><g><use xlink:href="#cv8qQJjxN" opacity="1" fill-opacity="0" stroke="#000000" stroke-width="1" stroke-opacity="0"></use></g></g><g><use xlink:href="#a4KwAZIUFt" opacity="1" fill="#57b894" fill-opacity="1"></use><g><use xlink:href="#a4KwAZIUFt" opacity="1" fill-opacity="0" stroke="#000000" stroke-width="1" stroke-opacity="0"></use></g></g><g><use xlink:href="#eVosA2lRW" opacity="1" fill="#000000" fill-opacity="0"></use><g><use xlink:href="#eVosA2lRW" opacity="1" fill-opacity="0" stroke="#000000" stroke-width="1" stroke-opacity="0"></use></g></g><g><use xlink:href="#a1HWTguOaL" opacity="1" fill="#000000" fill-opacity="0"></use><g><use xlink:href="#a1HWTguOaL" opacity="1" fill-opacity="0" stroke="#000000" stroke-width="1" stroke-opacity="0"></use></g></g><g><use xlink:href="#dzBMg88xC" opacity="1" fill="#000000" fill-opacity="0"></use><g><use xlink:href="#dzBMg88xC" opacity="1" fill-opacity="0" stroke="#3f3d56" stroke-width="1" stroke-opacity="1"></use></g></g><g><use xlink:href="#bk1rC2ht7" opacity="1" fill="#6c63ff" fill-opacity="1"></use><g><use xlink:href="#bk1rC2ht7" opacity="1" fill-opacity="0" stroke="#000000" stroke-width="1" stroke-opacity="0"></use></g></g><g><use xlink:href="#d1m5siOHAr" opacity="1" fill="#000000" fill-opacity="0"></use><g><use xlink:href="#d1m5siOHAr" opacity="1" fill-opacity="0" stroke="#000000" stroke-width="1" stroke-opacity="0"></use></g></g><g><use xlink:href="#g1zQFgXr58" opacity="1" fill="#6c63ff" fill-opacity="1"></use><g><use xlink:href="#g1zQFgXr58" opacity="1" fill-opacity="0" stroke="#000000" stroke-width="1" stroke-opacity="0"></use></g></g><g><use xlink:href="#b2LF9NFQL" opacity="1" fill="#000000" fill-opacity="0"></use><g><use xlink:href="#b2LF9NFQL" opacity="1" fill-opacity="0" stroke="#000000" stroke-width="1" stroke-opacity="0"></use></g></g><g><use xlink:href="#chAbatSna" opacity="1" fill="#6c63ff" fill-opacity="1"></use><g><use xlink:href="#chAbatSna" opacity="1" fill-opacity="0" stroke="#000000" stroke-width="1" stroke-opacity="0"></use></g></g><g><use xlink:href="#aJdx82zl" opacity="1" fill="#000000" fill-opacity="0"></use><g><use xlink:href="#aJdx82zl" opacity="1" fill-opacity="0" stroke="#000000" stroke-width="1" stroke-opacity="0"></use></g></g><g><use xlink:href="#afNmpS93M" opacity="1" fill="#6c63ff" fill-opacity="1"></use><g><use xlink:href="#afNmpS93M" opacity="1" fill-opacity="0" stroke="#000000" stroke-width="1" stroke-opacity="0"></use></g></g><g><use xlink:href="#b2PxwswFFt" opacity="1" fill="#000000" fill-opacity="0"></use><g><use xlink:href="#b2PxwswFFt" opacity="1" fill-opacity="0" stroke="#000000" stroke-width="1" stroke-opacity="0"></use></g></g><g><use xlink:href="#cg4X0zdB" opacity="1" fill="#6c63ff" fill-opacity="1"></use><g><use xlink:href="#cg4X0zdB" opacity="1" fill-opacity="0" stroke="#000000" stroke-width="1" stroke-opacity="0"></use></g></g><g><use xlink:href="#abGRutxFj" opacity="1" fill="#000000" fill-opacity="0"></use><g><use xlink:href="#abGRutxFj" opacity="1" fill-opacity="0" stroke="#000000" stroke-width="1" stroke-opacity="0"></use></g></g><g><use xlink:href="#b8x51q4WX5" opacity="1" fill="#000000" fill-opacity="0"></use><g><use xlink:href="#b8x51q4WX5" opacity="1" fill-opacity="0" stroke="#000000" stroke-width="1" stroke-opacity="0"></use></g></g><g><use xlink:href="#b1GogjJrUo" opacity="1" fill="#000000" fill-opacity="0"></use><g><use xlink:href="#b1GogjJrUo" opacity="1" fill-opacity="0" stroke="#3f3d56" stroke-width="1" stroke-opacity="1"></use></g></g><g><use xlink:href="#b4oI62FyuX" opacity="1" fill="#000000" fill-opacity="0"></use><g><use xlink:href="#b4oI62FyuX" opacity="1" fill-opacity="0" stroke="#000000" stroke-width="1" stroke-opacity="0"></use></g></g><g><use xlink:href="#anq0bbGlv" opacity="1" fill="#000000" fill-opacity="0"></use><g><use xlink:href="#anq0bbGlv" opacity="1" fill-opacity="0" stroke="#3f3d56" stroke-width="1" stroke-opacity="1"></use></g></g><g><use xlink:href="#d4NeMkmQY" opacity="1" fill="#000000" fill-opacity="0"></use><g><use xlink:href="#d4NeMkmQY" opacity="1" fill-opacity="0" stroke="#000000" stroke-width="1" stroke-opacity="0"></use></g></g><g><use xlink:href="#a5LG9ZS0FL" opacity="1" fill="#000000" fill-opacity="0"></use><g><use xlink:href="#a5LG9ZS0FL" opacity="1" fill-opacity="0" stroke="#3f3d56" stroke-width="1" stroke-opacity="1"></use></g></g><g><use xlink:href="#b2a0DHrTxg" opacity="1" fill="#000000" fill-opacity="0"></use><g><use xlink:href="#b2a0DHrTxg" opacity="1" fill-opacity="0" stroke="#000000" stroke-width="1" stroke-opacity="0"></use></g></g><g><use xlink:href="#bD6xtCGrN" opacity="1" fill="#000000" fill-opacity="0"></use><g><use xlink:href="#bD6xtCGrN" opacity="1" fill-opacity="0" stroke="#3f3d56" stroke-width="1" stroke-opacity="1"></use></g></g><g><use xlink:href="#aMbG4Ca4g" opacity="1" fill="#000000" fill-opacity="0"></use><g><use xlink:href="#aMbG4Ca4g" opacity="1" fill-opacity="0" stroke="#000000" stroke-width="1" stroke-opacity="0"></use></g></g><g><use xlink:href="#a8jTSXYOy" opacity="1" fill="#000000" fill-opacity="0"></use><g><use xlink:href="#a8jTSXYOy" opacity="1" fill-opacity="0" stroke="#3f3d56" stroke-width="1" stroke-opacity="1"></use></g></g></g></g></svg>