<?xml version="1.0" encoding="UTF-8" standalone="no"?>
<!DOCTYPE svg PUBLIC "-//W3C//DTD SVG 1.1//EN" "http://www.w3.org/Graphics/SVG/1.1/DTD/svg11.dtd">
<svg version="1.1" xmlns="http://www.w3.org/2000/svg" xmlns:xlink="http://www.w3.org/1999/xlink" preserveAspectRatio="xMidYMid meet" viewBox="0 0 400 400" width="400" height="400"><defs><path d="M282.67 228.64C282.67 228.64 274.77 230.09 274.21 231.52C274.21 231.52 283.23 233.14 284.73 233.14C284.73 233.14 293.37 235.31 293.37 235.31C293.22 234.08 292.77 230.4 292.62 229.18C290.63 229.08 284.17 229.72 282.67 228.64Z" id="kA68eC9fY"></path><path d="M282.67 228.64C282.67 228.64 274.77 230.09 274.21 231.52C274.21 231.52 283.23 233.14 284.73 233.14C284.73 233.14 293.37 235.31 293.37 235.31C293.22 234.08 292.77 230.4 292.62 229.18C290.63 229.08 284.17 229.72 282.67 228.64Z" id="e4bmiIjuP9"></path><path d="M293.13 186.25C292.4 185.71 292.34 184.68 291.81 183.96C291.04 182.93 289.5 182.8 288.17 182.85C287.37 182.89 286.49 182.93 285.8 182.51C285.1 182.07 284.79 181.27 284.54 180.5C284.27 179.59 284.09 178.49 284.78 177.81C285.26 177.35 286.02 177.25 286.56 176.83C287.11 176.41 287.34 175.72 287.64 175.1C287.98 174.36 288.53 173.7 289.21 173.22C290.23 172.54 291.51 172.39 292.74 172.4C293.97 172.42 295.2 172.57 296.42 172.43C297.42 172.31 298.41 171.99 299.41 172.14C300.67 172.31 301.73 173.23 302.35 174.31C302.97 175.38 303.25 176.61 303.5 177.81C303.57 178.13 304.14 180.76 304.21 181.08C304.43 182.1 304.65 183.14 304.49 184.17C304.13 186.29 302.18 187.98 302.04 190.12C301.77 188.92 300.9 187.92 299.71 187.47C299.56 187.4 299.4 187.38 299.24 187.42C299.04 187.48 298.92 187.67 298.81 187.82C298.48 188.23 297.47 188.85 296.9 188.56C296.39 188.3 296.77 187.48 296.12 187.07C295.66 186.82 295.14 186.68 294.62 186.67C294.09 186.67 293.57 186.53 293.13 186.25Z" id="b1sNPL1qlD"></path><path d="M293.13 186.25C292.4 185.71 292.34 184.68 291.81 183.96C291.04 182.93 289.5 182.8 288.17 182.85C287.37 182.89 286.49 182.93 285.8 182.51C285.1 182.07 284.79 181.27 284.54 180.5C284.27 179.59 284.09 178.49 284.78 177.81C285.26 177.35 286.02 177.25 286.56 176.83C287.11 176.41 287.34 175.72 287.64 175.1C287.98 174.36 288.53 173.7 289.21 173.22C290.23 172.54 291.51 172.39 292.74 172.4C293.97 172.42 295.2 172.57 296.42 172.43C297.42 172.31 298.41 171.99 299.41 172.14C300.67 172.31 301.73 173.23 302.35 174.31C302.97 175.38 303.25 176.61 303.5 177.81C303.57 178.13 304.14 180.76 304.21 181.08C304.43 182.1 304.65 183.14 304.49 184.17C304.13 186.29 302.18 187.98 302.04 190.12C301.77 188.92 300.9 187.92 299.71 187.47C299.56 187.4 299.4 187.38 299.24 187.42C299.04 187.48 298.92 187.67 298.81 187.82C298.48 188.23 297.47 188.85 296.9 188.56C296.39 188.3 296.77 187.48 296.12 187.07C295.66 186.82 295.14 186.68 294.62 186.67C294.09 186.67 293.57 186.53 293.13 186.25Z" id="e7etm0M0o"></path><path d="M311.41 227.93C311.41 227.93 308.59 227.56 308.21 227.93C307.84 228.28 293.93 225.94 292.05 223.95C292.05 223.95 289.8 223.24 288.67 224.32C287.55 225.4 276.28 226.48 279.66 223.24C283.04 219.99 288.3 219.28 288.3 219.28C289.02 219.31 294.73 219.6 295.44 219.63C295.44 219.63 299.2 220.71 301.45 219.63C301.45 219.63 310.09 218.91 310.09 218.91C311.18 219.28 314.44 220.36 315.54 220.71C314.71 222.15 316.85 228.64 311.41 227.93Z" id="a4ObfVk4Mf"></path><path d="M311.41 227.93C311.41 227.93 308.59 227.56 308.21 227.93C307.84 228.28 293.93 225.94 292.05 223.95C292.05 223.95 289.8 223.24 288.67 224.32C287.55 225.4 276.28 226.48 279.66 223.24C283.04 219.99 288.3 219.28 288.3 219.28C289.02 219.31 294.73 219.6 295.44 219.63C295.44 219.63 299.2 220.71 301.45 219.63C301.45 219.63 310.09 218.91 310.09 218.91C311.18 219.28 314.44 220.36 315.54 220.71C314.71 222.15 316.85 228.64 311.41 227.93Z" id="f4QIrlVRqY"></path><path d="M316.29 223.24C316.29 223.24 311.59 221.25 310.65 221.44C310.65 221.44 305.96 219.09 305.96 219.09C305.96 219.09 301.64 209.37 302.01 206.67C302.38 203.96 302.2 196.03 307.84 195.67C309.53 198.19 316.29 196.57 316.29 208.29C316.29 209.78 316.29 221.74 316.29 223.24Z" id="f3rurKc29"></path><path d="M316.29 223.24C316.29 223.24 311.59 221.25 310.65 221.44C310.65 221.44 305.96 219.09 305.96 219.09C305.96 219.09 301.64 209.37 302.01 206.67C302.38 203.96 302.2 196.03 307.84 195.67C309.53 198.19 316.29 196.57 316.29 208.29C316.29 209.78 316.29 221.74 316.29 223.24Z" id="bJHtpSbz1"></path><path d="M294.31 185.31C298.31 185.31 301.54 183.69 301.54 181.71C301.54 179.71 298.31 178.1 294.31 178.1C290.31 178.1 287.08 179.71 287.08 181.71C287.08 183.69 290.31 185.31 294.31 185.31Z" id="cxrBHqDEE"></path><path d="M294.31 185.31C298.31 185.31 301.54 183.69 301.54 181.71C301.54 179.71 298.31 178.1 294.31 178.1C290.31 178.1 287.08 179.71 287.08 181.71C287.08 183.69 290.31 185.31 294.31 185.31Z" id="c8SR86mKY"></path><path d="M301.08 188.37C302.47 188.37 303.61 185.67 303.61 182.34C303.61 179.01 302.47 176.3 301.08 176.3C299.67 176.3 298.54 179.01 298.54 182.34C298.54 185.67 299.67 188.37 301.08 188.37Z" id="a7UlALFyP"></path><path d="M301.08 188.37C302.47 188.37 303.61 185.67 303.61 182.34C303.61 179.01 302.47 176.3 301.08 176.3C299.67 176.3 298.54 179.01 298.54 182.34C298.54 185.67 299.67 188.37 301.08 188.37Z" id="dj850yqjS"></path><path d="M286.03 235.29C285.73 236.41 285.33 237.5 284.83 238.55C283.57 238 277.29 235.25 266 230.3C268.76 220.06 270.49 213.65 271.19 211.09C282.25 213.84 288.9 224.67 286.03 235.29Z" id="c46SFOHvQi"></path><path d="M286.03 235.29C285.73 236.41 285.33 237.5 284.83 238.55C283.57 238 277.29 235.25 266 230.3C268.76 220.06 270.49 213.65 271.19 211.09C282.25 213.84 288.9 224.67 286.03 235.29Z" id="a2gVqWx2n"></path><path d="M280.38 241.63C275.64 251.6 263.35 256 252.95 251.45C242.55 246.9 237.96 235.12 242.71 225.14C246.88 216.38 257.01 211.75 266.74 214.16C266.05 216.73 264.32 223.13 261.54 233.38C272.85 238.32 279.13 241.08 280.38 241.63Z" id="azhJMD0M4"></path><path d="M280.38 241.63C275.64 251.6 263.35 256 252.95 251.45C242.55 246.9 237.96 235.12 242.71 225.14C246.88 216.38 257.01 211.75 266.74 214.16C266.05 216.73 264.32 223.13 261.54 233.38C272.85 238.32 279.13 241.08 280.38 241.63Z" id="a1wwvwy8em"></path><path d="M296.57 276.63C296.57 276.63 297.51 287.44 300.32 289.78C300.32 289.78 300.32 293.2 301.26 294.28C301.39 295.71 302.44 307.1 302.58 308.52C302.58 308.52 300.69 313.74 300.89 314.65C300.89 314.65 300.13 318.43 300.32 318.79C300.32 318.79 309.34 318.79 309.34 318.79C309.22 316.86 308.59 307.19 307.46 289.78C307.07 287.09 305.13 273.64 301.64 249.42L293.57 249.37C295.44 266.33 296.43 275.42 296.57 276.63Z" id="b3NpYqk5ZO"></path><path d="M296.57 276.63C296.57 276.63 297.51 287.44 300.32 289.78C300.32 289.78 300.32 293.2 301.26 294.28C301.39 295.71 302.44 307.1 302.58 308.52C302.58 308.52 300.69 313.74 300.89 314.65C300.89 314.65 300.13 318.43 300.32 318.79C300.32 318.79 309.34 318.79 309.34 318.79C309.22 316.86 308.59 307.19 307.46 289.78C307.07 287.09 305.13 273.64 301.64 249.42L293.57 249.37C295.44 266.33 296.43 275.42 296.57 276.63Z" id="i5PvchcP1x"></path><path d="M296.57 276.63C296.57 276.63 297.51 287.44 300.32 289.78C300.32 289.78 300.32 293.2 301.26 294.28C301.39 295.71 302.44 307.1 302.58 308.52C302.58 308.52 300.69 313.74 300.89 314.65C300.89 314.65 300.13 318.43 300.32 318.79C300.32 318.79 309.34 318.79 309.34 318.79C309.22 316.86 308.59 307.19 307.46 289.78C307.07 287.09 305.13 273.64 301.64 249.42L293.57 249.37C295.44 266.33 296.43 275.42 296.57 276.63Z" id="b36rICAebP"></path><path d="M296.57 276.63C296.57 276.63 297.51 287.44 300.32 289.78C300.32 289.78 300.32 293.2 301.26 294.28C301.39 295.71 302.44 307.1 302.58 308.52C302.58 308.52 300.69 313.74 300.89 314.65C300.89 314.65 300.13 318.43 300.32 318.79C300.32 318.79 309.34 318.79 309.34 318.79C309.22 316.86 308.59 307.19 307.46 289.78C307.07 287.09 305.13 273.64 301.64 249.42L293.57 249.37C295.44 266.33 296.43 275.42 296.57 276.63Z" id="c1uDStAbOq"></path><path d="M327.82 328.32L196.79 328.32" id="ahEUTjTM9"></path><path d="M327.82 328.32L196.79 328.32" id="e1MtsFBvsZ"></path><path d="M294.22 187.83C299.41 187.83 303.61 184.69 303.61 180.8C303.61 176.92 299.41 173.78 294.22 173.78C289.03 173.78 284.83 176.92 284.83 180.8C284.83 184.69 289.03 187.83 294.22 187.83Z" id="euOOUr2pK"></path><path d="M294.22 187.83C299.41 187.83 303.61 184.69 303.61 180.8C303.61 176.92 299.41 173.78 294.22 173.78C289.03 173.78 284.83 176.92 284.83 180.8C284.83 184.69 289.03 187.83 294.22 187.83Z" id="c1ZMI2oUGq"></path><path d="M311.91 328C311.91 328 288.27 328.32 288.27 328.32C288.27 328.32 284.68 326.19 288.79 324.71C288.79 324.71 292.21 324.55 294.44 323.23C296.66 321.91 299.24 319.45 299.24 319.45C299.24 319.45 299.41 315.84 300.78 316.66C301.61 317.18 302.17 318.02 302.32 318.96C303.86 318.63 308.49 317.65 310.03 317.31C310.41 319.45 313.96 326.85 311.91 328Z" id="j2epW1pUV"></path><path d="M311.91 328C311.91 328 288.27 328.32 288.27 328.32C288.27 328.32 284.68 326.19 288.79 324.71C288.79 324.71 292.21 324.55 294.44 323.23C296.66 321.91 299.24 319.45 299.24 319.45C299.24 319.45 299.41 315.84 300.78 316.66C301.61 317.18 302.17 318.02 302.32 318.96C303.86 318.63 308.49 317.65 310.03 317.31C310.41 319.45 313.96 326.85 311.91 328Z" id="b6iuJTxLJy"></path><path d="M311.91 328C311.91 328 288.27 328.32 288.27 328.32C288.27 328.32 284.68 326.19 288.79 324.71C288.79 324.71 292.21 324.55 294.44 323.23C296.66 321.91 299.24 319.45 299.24 319.45C299.24 319.45 299.41 315.84 300.78 316.66C301.61 317.18 302.17 318.02 302.32 318.96C303.86 318.63 308.49 317.65 310.03 317.31C310.41 319.45 313.96 326.85 311.91 328Z" id="dEqM6a1rB"></path><path d="M311.91 328C311.91 328 288.27 328.32 288.27 328.32C288.27 328.32 284.68 326.19 288.79 324.71C288.79 324.71 292.21 324.55 294.44 323.23C296.66 321.91 299.24 319.45 299.24 319.45C299.24 319.45 299.41 315.84 300.78 316.66C301.61 317.18 302.17 318.02 302.32 318.96C303.86 318.63 308.49 317.65 310.03 317.31C310.41 319.45 313.96 326.85 311.91 328Z" id="a6y4fHCHC"></path><path d="M318.17 327.73C318.17 327.73 292.24 328.09 292.24 328.09C292.24 328.09 288.3 325.75 292.81 324.13C292.81 324.13 296.57 323.96 299 322.51C301.45 321.07 304.27 318.36 304.27 318.36C304.27 318.36 304.46 314.4 305.96 315.31C306.87 315.88 307.48 316.79 307.65 317.82C309.34 317.47 314.41 316.39 316.1 316.02C316.51 318.37 320.42 326.47 318.17 327.73Z" id="brRwsPF26"></path><path d="M318.17 327.73C318.17 327.73 292.24 328.09 292.24 328.09C292.24 328.09 288.3 325.75 292.81 324.13C292.81 324.13 296.57 323.96 299 322.51C301.45 321.07 304.27 318.36 304.27 318.36C304.27 318.36 304.46 314.4 305.96 315.31C306.87 315.88 307.48 316.79 307.65 317.82C309.34 317.47 314.41 316.39 316.1 316.02C316.51 318.37 320.42 326.47 318.17 327.73Z" id="adKPwxKc"></path><path d="M301.64 271.52C302.23 274.13 302.6 276.79 302.77 279.45C302.77 279.45 302.95 285.22 304.64 286.84C305.64 287.78 306.19 289.09 306.15 290.44C306.15 290.44 307.84 308.63 306.9 310.79C306.9 310.79 304.68 315.77 305.62 317.21C305.62 317.21 317.23 317.65 317.23 316.56C317.23 316.56 317.23 314.58 317.79 314.04C317.79 314.04 317.79 310.08 317.79 310.08C317.79 310.08 320.05 294.05 317.98 289.36C317.98 289.36 314.98 271.88 314.98 271.88C314.98 271.88 316.48 257.29 318.36 254.95C318.36 254.95 317.98 244.32 317.98 244.32C314.11 245.25 302.5 248.07 298.63 249C299.23 253.5 300.69 267.56 301.64 271.52Z" id="eKVJ5pS33"></path><path d="M301.64 271.52C302.23 274.13 302.6 276.79 302.77 279.45C302.77 279.45 302.95 285.22 304.64 286.84C305.64 287.78 306.19 289.09 306.15 290.44C306.15 290.44 307.84 308.63 306.9 310.79C306.9 310.79 304.68 315.77 305.62 317.21C305.62 317.21 317.23 317.65 317.23 316.56C317.23 316.56 317.23 314.58 317.79 314.04C317.79 314.04 317.79 310.08 317.79 310.08C317.79 310.08 320.05 294.05 317.98 289.36C317.98 289.36 314.98 271.88 314.98 271.88C314.98 271.88 316.48 257.29 318.36 254.95C318.36 254.95 317.98 244.32 317.98 244.32C314.11 245.25 302.5 248.07 298.63 249C299.23 253.5 300.69 267.56 301.64 271.52Z" id="a3RlamcKX"></path><path d="M295.37 198.03C295.93 196.18 295.81 194.2 295.02 192.43C294.75 191.83 294.39 191.18 294.59 190.56C294.78 190.1 295.11 189.72 295.54 189.46C296.47 188.78 297.44 188.14 298.44 187.56C299.15 187.15 300.6 186.08 301.4 186.2C301.44 187.24 301.46 188.18 301.94 189.16C302.06 189.39 303.84 191.56 303.92 191.37C303.7 191.85 303.18 192.12 302.7 192.36C299.95 193.83 297.64 195.93 295.37 198.03Z" id="aVEADwLRp"></path><path d="M295.37 198.03C295.93 196.18 295.81 194.2 295.02 192.43C294.75 191.83 294.39 191.18 294.59 190.56C294.78 190.1 295.11 189.72 295.54 189.46C296.47 188.78 297.44 188.14 298.44 187.56C299.15 187.15 300.6 186.08 301.4 186.2C301.44 187.24 301.46 188.18 301.94 189.16C302.06 189.39 303.84 191.56 303.92 191.37C303.7 191.85 303.18 192.12 302.7 192.36C299.95 193.83 297.64 195.93 295.37 198.03Z" id="g6crZwahC"></path><path d="M302.01 186.3C302.01 190.38 298.56 193.69 294.31 193.69C290.06 193.69 286.61 190.38 286.61 186.3C286.61 182.22 290.06 178.92 294.31 178.92C298.56 178.92 302.01 182.22 302.01 186.3Z" id="aZ2fpfMI"></path><path d="M302.01 186.3C302.01 190.38 298.56 193.69 294.31 193.69C290.06 193.69 286.61 190.38 286.61 186.3C286.61 182.22 290.06 178.92 294.31 178.92C298.56 178.92 302.01 182.22 302.01 186.3Z" id="i16Cv8xCQP"></path><path d="M304.46 190.62C304.46 190.62 305.77 190.45 306.34 193.15C306.34 193.15 317.04 195.13 318.17 204.86C319.29 214.59 317.41 228.82 317.41 228.82C317.41 228.82 319.1 241.25 321.17 247.92C321.17 247.92 322.86 249.36 315.35 247.2C307.84 245.04 294.69 253.32 294.69 253.32C294.69 253.32 293.37 252.07 293.37 251.16C293.37 250.26 291.87 245.04 291.87 245.04C291.87 245.04 290.55 222.87 289.99 220.36C289.43 217.83 292.24 204.14 293.93 203.78C294.42 202.08 292.62 197.48 296.38 195.31C300.13 193.15 302.84 191.56 304.46 190.62Z" id="b1E8ofd1ry"></path><path d="M304.46 190.62C304.46 190.62 305.77 190.45 306.34 193.15C306.34 193.15 317.04 195.13 318.17 204.86C319.29 214.59 317.41 228.82 317.41 228.82C317.41 228.82 319.1 241.25 321.17 247.92C321.17 247.92 322.86 249.36 315.35 247.2C307.84 245.04 294.69 253.32 294.69 253.32C294.69 253.32 293.37 252.07 293.37 251.16C293.37 250.26 291.87 245.04 291.87 245.04C291.87 245.04 290.55 222.87 289.99 220.36C289.43 217.83 292.24 204.14 293.93 203.78C294.42 202.08 292.62 197.48 296.38 195.31C300.13 193.15 302.84 191.56 304.46 190.62Z" id="d2MKWUpDSK"></path><path d="M51.5 307.99C51.5 307.99 128.62 264.87 228.04 307.99" id="i2aOR3WWmb"></path><path d="M51.5 307.99C51.5 307.99 128.62 264.87 228.04 307.99" id="e2AKLkZn"></path><path d="M67.02 301.22C60.53 299.94 55.88 294.47 55.88 288.12C55.88 269.97 55.88 124.78 55.88 106.62C55.88 99.24 62.12 93.26 69.82 93.26C69.82 93.26 69.82 93.26 69.82 93.26C83.81 93.26 195.72 93.26 209.71 93.26C217.4 93.26 223.64 99.24 223.64 106.62C223.64 106.62 223.64 106.62 223.64 106.62C223.64 124.78 223.64 269.97 223.64 288.12C223.64 294.95 218.29 300.68 211.21 301.42" id="b2pGnJwCD"></path><path d="M67.02 301.22C60.53 299.94 55.88 294.47 55.88 288.12C55.88 269.97 55.88 124.78 55.88 106.62C55.88 99.24 62.12 93.26 69.82 93.26C69.82 93.26 69.82 93.26 69.82 93.26C83.81 93.26 195.72 93.26 209.71 93.26C217.4 93.26 223.64 99.24 223.64 106.62C223.64 106.62 223.64 106.62 223.64 106.62C223.64 124.78 223.64 269.97 223.64 288.12C223.64 294.95 218.29 300.68 211.21 301.42" id="ccMxZQiSH"></path><path d="M213.6 114.8C213.6 213.89 213.6 268.93 213.6 279.94C213.6 279.94 213.6 279.94 213.6 279.94C124.12 279.94 74.41 279.94 64.47 279.94C64.47 279.94 64.47 279.94 64.47 279.94C64.47 180.86 64.47 125.81 64.47 114.8C64.47 114.8 64.47 114.8 64.47 114.8C153.95 114.8 203.65 114.8 213.6 114.8C213.6 114.8 213.6 114.8 213.6 114.8Z" id="c6ojMnKkQ"></path><path d="M213.6 114.8C213.6 213.89 213.6 268.93 213.6 279.94C213.6 279.94 213.6 279.94 213.6 279.94C124.12 279.94 74.41 279.94 64.47 279.94C64.47 279.94 64.47 279.94 64.47 279.94C64.47 180.86 64.47 125.81 64.47 114.8C64.47 114.8 64.47 114.8 64.47 114.8C153.95 114.8 203.65 114.8 213.6 114.8C213.6 114.8 213.6 114.8 213.6 114.8Z" id="a4sFxbjH1e"></path><path d="M136.11 103.95C136.11 105.89 137.75 107.45 139.76 107.45C141.79 107.45 143.42 105.89 143.42 103.95C143.42 102.01 141.79 100.44 139.76 100.44C137.75 100.44 136.11 102.01 136.11 103.95Z" id="aJHJrycRM"></path><path d="M136.11 103.95C136.11 105.89 137.75 107.45 139.76 107.45C141.79 107.45 143.42 105.89 143.42 103.95C143.42 102.01 141.79 100.44 139.76 100.44C137.75 100.44 136.11 102.01 136.11 103.95Z" id="fdXZ2fK8t"></path><path d="M131.92 288.92C132.91 284.76 137.22 282.16 141.55 283.11C144.62 283.77 146.99 286.09 147.63 289.04" id="a1YAXwYf3U"></path><path d="M131.92 288.92C132.91 284.76 137.22 282.16 141.55 283.11C144.62 283.77 146.99 286.09 147.63 289.04" id="a1w8RLQSG6"></path><path d="M47.8 126.72C44.62 126.89 41.81 128.77 40.56 131.57C38.75 135.77 41.08 140.7 44.58 143.77C48.08 146.83 52.57 148.58 56.66 150.88C62.14 153.96 67.07 158.25 69.82 163.76C72.56 169.27 72.86 176.08 69.62 181.34C66.63 186.22 61.19 189.14 55.99 191.83" id="a2D05PIwim"></path><path d="M47.8 126.72C44.62 126.89 41.81 128.77 40.56 131.57C38.75 135.77 41.08 140.7 44.58 143.77C48.08 146.83 52.57 148.58 56.66 150.88C62.14 153.96 67.07 158.25 69.82 163.76C72.56 169.27 72.86 176.08 69.62 181.34C66.63 186.22 61.19 189.14 55.99 191.83" id="c5gnsqL9n"></path><path d="M52.41 130.07C48.87 130.07 46.01 128.73 46.01 127.09C46.01 125.44 48.87 124.1 52.41 124.1C55.94 124.1 58.81 125.44 58.81 127.09C58.81 128.73 55.94 130.07 52.41 130.07Z" id="b16D17bYnq"></path><path d="M52.41 130.07C48.87 130.07 46.01 128.73 46.01 127.09C46.01 125.44 48.87 124.1 52.41 124.1C55.94 124.1 58.81 125.44 58.81 127.09C58.81 128.73 55.94 130.07 52.41 130.07Z" id="e5Z5l3YC3G"></path><path d="M57.52 149.7C53.99 149.7 51.13 148.36 51.13 146.72C51.13 145.07 53.99 143.74 57.52 143.74C61.06 143.74 63.92 145.07 63.92 146.72C63.92 148.36 61.06 149.7 57.52 149.7Z" id="a2tSycQkiP"></path><path d="M57.52 149.7C53.99 149.7 51.13 148.36 51.13 146.72C51.13 145.07 53.99 143.74 57.52 143.74C61.06 143.74 63.92 145.07 63.92 146.72C63.92 148.36 61.06 149.7 57.52 149.7Z" id="bbF51pdV2"></path><path d="M45.83 152.85C42.3 152.85 39.44 151.51 39.44 149.87C39.44 148.22 42.3 146.89 45.83 146.89C49.36 146.89 52.22 148.22 52.22 149.87C52.22 151.51 49.36 152.85 45.83 152.85Z" id="f1Pt82SwqY"></path><path d="M45.83 152.85C42.3 152.85 39.44 151.51 39.44 149.87C39.44 148.22 42.3 146.89 45.83 146.89C49.36 146.89 52.22 148.22 52.22 149.87C52.22 151.51 49.36 152.85 45.83 152.85Z" id="b8CJvCTl8o"></path><path d="M64.11 169.32C60.57 169.32 57.71 168 57.71 166.35C57.71 164.7 60.57 163.37 64.11 163.37C67.64 163.37 70.5 164.7 70.5 166.35C70.5 168 67.64 169.32 64.11 169.32Z" id="a8O1oTyV7v"></path><path d="M64.11 169.32C60.57 169.32 57.71 168 57.71 166.35C57.71 164.7 60.57 163.37 64.11 163.37C67.64 163.37 70.5 164.7 70.5 166.35C70.5 168 67.64 169.32 64.11 169.32Z" id="gbB9it7y5"></path><path d="M76.89 169.32C73.37 169.32 70.5 168 70.5 166.35C70.5 164.7 73.37 163.37 76.89 163.37C80.43 163.37 83.29 164.7 83.29 166.35C83.29 168 80.43 169.32 76.89 169.32Z" id="a3AOs4682e"></path><path d="M76.89 169.32C73.37 169.32 70.5 168 70.5 166.35C70.5 164.7 73.37 163.37 76.89 163.37C80.43 163.37 83.29 164.7 83.29 166.35C83.29 168 80.43 169.32 76.89 169.32Z" id="a3708FbzTQ"></path><path d="M219.75 247.09C216.79 247.25 214.19 249.01 213.01 251.61C211.33 255.53 213.5 260.12 216.75 262.97C220.02 265.82 224.2 267.45 228 269.59C233.11 272.46 237.7 276.46 240.25 281.58C242.81 286.71 243.09 293.05 240.08 297.96C237.3 302.5 232.22 305.22 227.39 307.73" id="bFHzDC1nn"></path><path d="M219.75 247.09C216.79 247.25 214.19 249.01 213.01 251.61C211.33 255.53 213.5 260.12 216.75 262.97C220.02 265.82 224.2 267.45 228 269.59C233.11 272.46 237.7 276.46 240.25 281.58C242.81 286.71 243.09 293.05 240.08 297.96C237.3 302.5 232.22 305.22 227.39 307.73" id="d2x2ePIlB"></path><path d="M224.05 250.21C220.75 250.21 218.09 248.97 218.09 247.44C218.09 245.9 220.75 244.66 224.05 244.66C227.34 244.66 230 245.9 230 247.44C230 248.97 227.34 250.21 224.05 250.21Z" id="b15WGRKoj"></path><path d="M224.05 250.21C220.75 250.21 218.09 248.97 218.09 247.44C218.09 245.9 220.75 244.66 224.05 244.66C227.34 244.66 230 245.9 230 247.44C230 248.97 227.34 250.21 224.05 250.21Z" id="a32XaTRLyW"></path><path d="M228.81 268.49C225.52 268.49 222.86 267.25 222.86 265.72C222.86 264.19 225.52 262.94 228.81 262.94C232.11 262.94 234.77 264.19 234.77 265.72C234.77 267.25 232.11 268.49 228.81 268.49Z" id="ebbVeubOt"></path><path d="M228.81 268.49C225.52 268.49 222.86 267.25 222.86 265.72C222.86 264.19 225.52 262.94 228.81 262.94C232.11 262.94 234.77 264.19 234.77 265.72C234.77 267.25 232.11 268.49 228.81 268.49Z" id="b1p8CLcxCN"></path><path d="M217.92 271.43C214.63 271.43 211.97 270.19 211.97 268.66C211.97 267.12 214.63 265.88 217.92 265.88C221.22 265.88 223.88 267.12 223.88 268.66C223.88 270.19 221.22 271.43 217.92 271.43Z" id="b2eNuDC3xN"></path><path d="M217.92 271.43C214.63 271.43 211.97 270.19 211.97 268.66C211.97 267.12 214.63 265.88 217.92 265.88C221.22 265.88 223.88 267.12 223.88 268.66C223.88 270.19 221.22 271.43 217.92 271.43Z" id="b22ZPNgEJP"></path><path d="M234.94 286.77C231.65 286.77 228.98 285.53 228.98 284C228.98 282.47 231.65 281.22 234.94 281.22C238.23 281.22 240.89 282.47 240.89 284C240.89 285.53 238.23 286.77 234.94 286.77Z" id="j6TUvgNK6"></path><path d="M234.94 286.77C231.65 286.77 228.98 285.53 228.98 284C228.98 282.47 231.65 281.22 234.94 281.22C238.23 281.22 240.89 282.47 240.89 284C240.89 285.53 238.23 286.77 234.94 286.77Z" id="c1sceHYsFJ"></path><path d="M246.85 286.77C243.57 286.77 240.89 285.53 240.89 284C240.89 282.47 243.57 281.22 246.85 281.22C250.14 281.22 252.81 282.47 252.81 284C252.81 285.53 250.14 286.77 246.85 286.77Z" id="c17CTaB4PV"></path><path d="M246.85 286.77C243.57 286.77 240.89 285.53 240.89 284C240.89 282.47 243.57 281.22 246.85 281.22C250.14 281.22 252.81 282.47 252.81 284C252.81 285.53 250.14 286.77 246.85 286.77Z" id="a409yOpvI"></path><path d="M234.2 258.31C236.61 258.44 238.74 259.87 239.7 261.99C241.08 265.19 239.3 268.94 236.65 271.27C233.98 273.59 230.56 274.93 227.46 276.68C223.29 279.03 219.53 282.28 217.45 286.47C215.37 290.65 215.14 295.84 217.6 299.85C219.87 303.55 224.02 305.77 227.96 307.83" id="bfwKnpXYM"></path><path d="M234.2 258.31C236.61 258.44 238.74 259.87 239.7 261.99C241.08 265.19 239.3 268.94 236.65 271.27C233.98 273.59 230.56 274.93 227.46 276.68C223.29 279.03 219.53 282.28 217.45 286.47C215.37 290.65 215.14 295.84 217.6 299.85C219.87 303.55 224.02 305.77 227.96 307.83" id="adgWCHcRc"></path><path d="M230.69 260.85C228 260.85 225.83 259.83 225.83 258.58C225.83 257.33 228 256.32 230.69 256.32C233.37 256.32 235.56 257.33 235.56 258.58C235.56 259.83 233.37 260.85 230.69 260.85Z" id="e5XfvPebmh"></path><path d="M230.69 260.85C228 260.85 225.83 259.83 225.83 258.58C225.83 257.33 228 256.32 230.69 256.32C233.37 256.32 235.56 257.33 235.56 258.58C235.56 259.83 233.37 260.85 230.69 260.85Z" id="a3NJcbzZJp"></path><path d="M226.8 275.78C224.11 275.78 221.93 274.76 221.93 273.51C221.93 272.26 224.11 271.24 226.8 271.24C229.48 271.24 231.66 272.26 231.66 273.51C231.66 274.76 229.48 275.78 226.8 275.78Z" id="a1iwzU6E87"></path><path d="M226.8 275.78C224.11 275.78 221.93 274.76 221.93 273.51C221.93 272.26 224.11 271.24 226.8 271.24C229.48 271.24 231.66 272.26 231.66 273.51C231.66 274.76 229.48 275.78 226.8 275.78Z" id="b6UkSV4HS"></path><path d="M235.69 278.18C233 278.18 230.83 277.16 230.83 275.91C230.83 274.66 233 273.65 235.69 273.65C238.38 273.65 240.56 274.66 240.56 275.91C240.56 277.16 238.38 278.18 235.69 278.18Z" id="e3FQEK6Kuo"></path><path d="M235.69 278.18C233 278.18 230.83 277.16 230.83 275.91C230.83 274.66 233 273.65 235.69 273.65C238.38 273.65 240.56 274.66 240.56 275.91C240.56 277.16 238.38 278.18 235.69 278.18Z" id="gQjcjaYZc"></path><path d="M221.8 290.7C219.1 290.7 216.93 289.69 216.93 288.44C216.93 287.2 219.1 286.17 221.8 286.17C224.48 286.17 226.66 287.2 226.66 288.44C226.66 289.69 224.48 290.7 221.8 290.7Z" id="bgID7W858"></path><path d="M221.8 290.7C219.1 290.7 216.93 289.69 216.93 288.44C216.93 287.2 219.1 286.17 221.8 286.17C224.48 286.17 226.66 287.2 226.66 288.44C226.66 289.69 224.48 290.7 221.8 290.7Z" id="atefN06DX"></path><path d="M212.06 290.7C209.38 290.7 207.2 289.69 207.2 288.44C207.2 287.2 209.38 286.17 212.06 286.17C214.75 286.17 216.93 287.2 216.93 288.44C216.93 289.69 214.75 290.7 212.06 290.7Z" id="b21El0sfPM"></path><path d="M212.06 290.7C209.38 290.7 207.2 289.69 207.2 288.44C207.2 287.2 209.38 286.17 212.06 286.17C214.75 286.17 216.93 287.2 216.93 288.44C216.93 289.69 214.75 290.7 212.06 290.7Z" id="b1AWZ0tZw6"></path><path d="M89.51 149.53L89.51 228.76L186.36 228.76" id="arzBXudy7"></path><path d="M89.51 149.53L89.51 228.76L186.36 228.76" id="d1Uzjd5a6J"></path><path d="M109.98 202.47C109.98 214.67 109.98 221.45 109.98 222.8C109.98 222.8 109.98 222.8 109.98 222.8C105.15 222.8 102.47 222.8 101.93 222.8C101.93 222.8 101.93 222.8 101.93 222.8C101.93 210.61 101.93 203.82 101.93 202.47C101.93 202.47 101.93 202.47 101.93 202.47C106.76 202.47 109.44 202.47 109.98 202.47C109.98 202.47 109.98 202.47 109.98 202.47Z" id="a1ki6X4nE3"></path><path d="M109.98 202.47C109.98 214.67 109.98 221.45 109.98 222.8C109.98 222.8 109.98 222.8 109.98 222.8C105.15 222.8 102.47 222.8 101.93 222.8C101.93 222.8 101.93 222.8 101.93 222.8C101.93 210.61 101.93 203.82 101.93 202.47C101.93 202.47 101.93 202.47 101.93 202.47C106.76 202.47 109.44 202.47 109.98 202.47C109.98 202.47 109.98 202.47 109.98 202.47Z" id="bvGKJ633"></path><path d="M126.42 195.46C126.42 211.86 126.42 220.98 126.42 222.8C126.42 222.8 126.42 222.8 126.42 222.8C121.6 222.8 118.91 222.8 118.38 222.8C118.38 222.8 118.38 222.8 118.38 222.8C118.38 206.4 118.38 197.28 118.38 195.46C118.38 195.46 118.38 195.46 118.38 195.46C123.21 195.46 125.88 195.46 126.42 195.46C126.42 195.46 126.42 195.46 126.42 195.46Z" id="f2gydMAfRY"></path><path d="M126.42 195.46C126.42 211.86 126.42 220.98 126.42 222.8C126.42 222.8 126.42 222.8 126.42 222.8C121.6 222.8 118.91 222.8 118.38 222.8C118.38 222.8 118.38 222.8 118.38 222.8C118.38 206.4 118.38 197.28 118.38 195.46C118.38 195.46 118.38 195.46 118.38 195.46C123.21 195.46 125.88 195.46 126.42 195.46C126.42 195.46 126.42 195.46 126.42 195.46Z" id="fhek288bL"></path><path d="M142.87 187.05C142.87 208.5 142.87 220.42 142.87 222.8C142.87 222.8 142.87 222.8 142.87 222.8C138.04 222.8 135.37 222.8 134.83 222.8C134.83 222.8 134.83 222.8 134.83 222.8C134.83 201.35 134.83 189.43 134.83 187.05C134.83 187.05 134.83 187.05 134.83 187.05C139.65 187.05 142.34 187.05 142.87 187.05C142.87 187.05 142.87 187.05 142.87 187.05Z" id="acOedwaTk"></path><path d="M142.87 187.05C142.87 208.5 142.87 220.42 142.87 222.8C142.87 222.8 142.87 222.8 142.87 222.8C138.04 222.8 135.37 222.8 134.83 222.8C134.83 222.8 134.83 222.8 134.83 222.8C134.83 201.35 134.83 189.43 134.83 187.05C134.83 187.05 134.83 187.05 134.83 187.05C139.65 187.05 142.34 187.05 142.87 187.05C142.87 187.05 142.87 187.05 142.87 187.05Z" id="h1vwE6wHOV"></path><path d="M159.32 171.97C159.32 202.47 159.32 219.41 159.32 222.8C159.32 222.8 159.32 222.8 159.32 222.8C154.5 222.8 151.81 222.8 151.28 222.8C151.28 222.8 151.28 222.8 151.28 222.8C151.28 192.31 151.28 175.36 151.28 171.97C151.28 171.97 151.28 171.97 151.28 171.97C156.1 171.97 158.78 171.97 159.32 171.97C159.32 171.97 159.32 171.97 159.32 171.97Z" id="j8IsZyW63"></path><path d="M159.32 171.97C159.32 202.47 159.32 219.41 159.32 222.8C159.32 222.8 159.32 222.8 159.32 222.8C154.5 222.8 151.81 222.8 151.28 222.8C151.28 222.8 151.28 222.8 151.28 222.8C151.28 192.31 151.28 175.36 151.28 171.97C151.28 171.97 151.28 171.97 151.28 171.97C156.1 171.97 158.78 171.97 159.32 171.97C159.32 171.97 159.32 171.97 159.32 171.97Z" id="a3rNs8hIO"></path><path d="M175.77 160.05C175.77 197.7 175.77 218.62 175.77 222.8C175.77 222.8 175.77 222.8 175.77 222.8C170.94 222.8 168.27 222.8 167.73 222.8C167.73 222.8 167.73 222.8 167.73 222.8C167.73 185.15 167.73 164.23 167.73 160.05C167.73 160.05 167.73 160.05 167.73 160.05C172.55 160.05 175.24 160.05 175.77 160.05C175.77 160.05 175.77 160.05 175.77 160.05Z" id="b1dAlFr91y"></path><path d="M175.77 160.05C175.77 197.7 175.77 218.62 175.77 222.8C175.77 222.8 175.77 222.8 175.77 222.8C170.94 222.8 168.27 222.8 167.73 222.8C167.73 222.8 167.73 222.8 167.73 222.8C167.73 185.15 167.73 164.23 167.73 160.05C167.73 160.05 167.73 160.05 167.73 160.05C172.55 160.05 175.24 160.05 175.77 160.05C175.77 160.05 175.77 160.05 175.77 160.05Z" id="c2BJ5BBVkD"></path><path d="M107.41 200.01C107.41 212.22 107.41 218.99 107.41 220.35C107.41 220.35 107.41 220.35 107.41 220.35C102.59 220.35 99.91 220.35 99.37 220.35C99.37 220.35 99.37 220.35 99.37 220.35C99.37 208.15 99.37 201.37 99.37 200.01C99.37 200.01 99.37 200.01 99.37 200.01C104.2 200.01 106.88 200.01 107.41 200.01C107.41 200.01 107.41 200.01 107.41 200.01Z" id="b9N6EkN2Q"></path><path d="M107.41 200.01C107.41 212.22 107.41 218.99 107.41 220.35C107.41 220.35 107.41 220.35 107.41 220.35C102.59 220.35 99.91 220.35 99.37 220.35C99.37 220.35 99.37 220.35 99.37 220.35C99.37 208.15 99.37 201.37 99.37 200.01C99.37 200.01 99.37 200.01 99.37 200.01C104.2 200.01 106.88 200.01 107.41 200.01C107.41 200.01 107.41 200.01 107.41 200.01Z" id="b5Xi5oUjf"></path><path d="M123.87 193C123.87 209.41 123.87 218.53 123.87 220.35C123.87 220.35 123.87 220.35 123.87 220.35C119.04 220.35 116.36 220.35 115.83 220.35C115.83 220.35 115.83 220.35 115.83 220.35C115.83 203.94 115.83 194.83 115.83 193C115.83 193 115.83 193 115.83 193C120.64 193 123.33 193 123.87 193C123.87 193 123.87 193 123.87 193Z" id="a2ysKbPNML"></path><path d="M123.87 193C123.87 209.41 123.87 218.53 123.87 220.35C123.87 220.35 123.87 220.35 123.87 220.35C119.04 220.35 116.36 220.35 115.83 220.35C115.83 220.35 115.83 220.35 115.83 220.35C115.83 203.94 115.83 194.83 115.83 193C115.83 193 115.83 193 115.83 193C120.64 193 123.33 193 123.87 193C123.87 193 123.87 193 123.87 193Z" id="jlv3ghdM5"></path><path d="M140.31 184.59C140.31 206.05 140.31 217.97 140.31 220.35C140.31 220.35 140.31 220.35 140.31 220.35C135.49 220.35 132.8 220.35 132.27 220.35C132.27 220.35 132.27 220.35 132.27 220.35C132.27 198.89 132.27 186.98 132.27 184.59C132.27 184.59 132.27 184.59 132.27 184.59C137.1 184.59 139.77 184.59 140.31 184.59C140.31 184.59 140.31 184.59 140.31 184.59Z" id="a6J2ibEWp"></path><path d="M140.31 184.59C140.31 206.05 140.31 217.97 140.31 220.35C140.31 220.35 140.31 220.35 140.31 220.35C135.49 220.35 132.8 220.35 132.27 220.35C132.27 220.35 132.27 220.35 132.27 220.35C132.27 198.89 132.27 186.98 132.27 184.59C132.27 184.59 132.27 184.59 132.27 184.59C137.1 184.59 139.77 184.59 140.31 184.59C140.31 184.59 140.31 184.59 140.31 184.59Z" id="b8juiV9b8b"></path><path d="M156.76 169.51C156.76 200.01 156.76 216.96 156.76 220.35C156.76 220.35 156.76 220.35 156.76 220.35C151.94 220.35 149.26 220.35 148.72 220.35C148.72 220.35 148.72 220.35 148.72 220.35C148.72 189.85 148.72 172.9 148.72 169.51C148.72 169.51 148.72 169.51 148.72 169.51C153.54 169.51 156.23 169.51 156.76 169.51C156.76 169.51 156.76 169.51 156.76 169.51Z" id="dlAfebFVM"></path><path d="M156.76 169.51C156.76 200.01 156.76 216.96 156.76 220.35C156.76 220.35 156.76 220.35 156.76 220.35C151.94 220.35 149.26 220.35 148.72 220.35C148.72 220.35 148.72 220.35 148.72 220.35C148.72 189.85 148.72 172.9 148.72 169.51C148.72 169.51 148.72 169.51 148.72 169.51C153.54 169.51 156.23 169.51 156.76 169.51C156.76 169.51 156.76 169.51 156.76 169.51Z" id="a8rf6or6q"></path><path d="M173.21 157.6C173.21 195.24 173.21 216.17 173.21 220.35C173.21 220.35 173.21 220.35 173.21 220.35C168.38 220.35 165.7 220.35 165.17 220.35C165.17 220.35 165.17 220.35 165.17 220.35C165.17 182.69 165.17 161.78 165.17 157.6C165.17 157.6 165.17 157.6 165.17 157.6C170 157.6 172.67 157.6 173.21 157.6C173.21 157.6 173.21 157.6 173.21 157.6Z" id="cuzBvBMs"></path><path d="M173.21 157.6C173.21 195.24 173.21 216.17 173.21 220.35C173.21 220.35 173.21 220.35 173.21 220.35C168.38 220.35 165.7 220.35 165.17 220.35C165.17 220.35 165.17 220.35 165.17 220.35C165.17 182.69 165.17 161.78 165.17 157.6C165.17 157.6 165.17 157.6 165.17 157.6C170 157.6 172.67 157.6 173.21 157.6C173.21 157.6 173.21 157.6 173.21 157.6Z" id="g24RVuQfs0"></path></defs><g><g><g><use xlink:href="#kA68eC9fY" opacity="1" fill="#fbbebe" fill-opacity="1"></use><g><use xlink:href="#kA68eC9fY" opacity="1" fill-opacity="0" stroke="#000000" stroke-width="1" stroke-opacity="0"></use></g></g><g><use xlink:href="#e4bmiIjuP9" opacity="1" fill="#000000" fill-opacity="0"></use><g><use xlink:href="#e4bmiIjuP9" opacity="1" fill-opacity="0" stroke="#000000" stroke-width="1" stroke-opacity="0"></use></g></g><g><use xlink:href="#b1sNPL1qlD" opacity="1" fill="#3f3d56" fill-opacity="1"></use><g><use xlink:href="#b1sNPL1qlD" opacity="1" fill-opacity="0" stroke="#000000" stroke-width="1" stroke-opacity="0"></use></g></g><g><use xlink:href="#e7etm0M0o" opacity="1" fill="#000000" fill-opacity="0"></use><g><use xlink:href="#e7etm0M0o" opacity="1" fill-opacity="0" stroke="#000000" stroke-width="1" stroke-opacity="0"></use></g></g><g><use xlink:href="#a4ObfVk4Mf" opacity="1" fill="#fbbebe" fill-opacity="1"></use><g><use xlink:href="#a4ObfVk4Mf" opacity="1" fill-opacity="0" stroke="#000000" stroke-width="1" stroke-opacity="0"></use></g></g><g><use xlink:href="#f4QIrlVRqY" opacity="1" fill="#000000" fill-opacity="0"></use><g><use xlink:href="#f4QIrlVRqY" opacity="1" fill-opacity="0" stroke="#000000" stroke-width="1" stroke-opacity="0"></use></g></g><g><use xlink:href="#f3rurKc29" opacity="1" fill="#3f3d56" fill-opacity="1"></use><g><use xlink:href="#f3rurKc29" opacity="1" fill-opacity="0" stroke="#000000" stroke-width="1" stroke-opacity="0"></use></g></g><g><use xlink:href="#bJHtpSbz1" opacity="1" fill="#000000" fill-opacity="0"></use><g><use xlink:href="#bJHtpSbz1" opacity="1" fill-opacity="0" stroke="#000000" stroke-width="1" stroke-opacity="0"></use></g></g><g><use xlink:href="#cxrBHqDEE" opacity="1" fill="#3f3d56" fill-opacity="1"></use><g><use xlink:href="#cxrBHqDEE" opacity="1" fill-opacity="0" stroke="#000000" stroke-width="1" stroke-opacity="0"></use></g></g><g><use xlink:href="#c8SR86mKY" opacity="1" fill="#000000" fill-opacity="0"></use><g><use xlink:href="#c8SR86mKY" opacity="1" fill-opacity="0" stroke="#000000" stroke-width="1" stroke-opacity="0"></use></g></g><g><use xlink:href="#a7UlALFyP" opacity="1" fill="#3f3d56" fill-opacity="1"></use><g><use xlink:href="#a7UlALFyP" opacity="1" fill-opacity="0" stroke="#000000" stroke-width="1" stroke-opacity="0"></use></g></g><g><use xlink:href="#dj850yqjS" opacity="1" fill="#000000" fill-opacity="0"></use><g><use xlink:href="#dj850yqjS" opacity="1" fill-opacity="0" stroke="#000000" stroke-width="1" stroke-opacity="0"></use></g></g><g><use xlink:href="#c46SFOHvQi" opacity="1" fill="#6c63ff" fill-opacity="1"></use><g><use xlink:href="#c46SFOHvQi" opacity="1" fill-opacity="0" stroke="#000000" stroke-width="1" stroke-opacity="0"></use></g></g><g><use xlink:href="#a2gVqWx2n" opacity="1" fill="#eda219" fill-opacity="1"></use><g><use xlink:href="#a2gVqWx2n" opacity="1" fill-opacity="0" stroke="#000000" stroke-width="1" stroke-opacity="0"></use></g></g><g><use xlink:href="#azhJMD0M4" opacity="1" fill="#6c63ff" fill-opacity="1"></use><g><use xlink:href="#azhJMD0M4" opacity="1" fill-opacity="0" stroke="#000000" stroke-width="1" stroke-opacity="0"></use></g></g><g><use xlink:href="#a1wwvwy8em" opacity="1" fill="#61e357" fill-opacity="1"></use><g><use xlink:href="#a1wwvwy8em" opacity="1" fill-opacity="0" stroke="#000000" stroke-width="0" stroke-opacity="0"></use></g></g><g><use xlink:href="#b3NpYqk5ZO" opacity="1" fill="#3c354c" fill-opacity="1"></use><g><use xlink:href="#b3NpYqk5ZO" opacity="1" fill-opacity="0" stroke="#000000" stroke-width="1" stroke-opacity="0"></use></g></g><g><use xlink:href="#i5PvchcP1x" opacity="1" fill="#000000" fill-opacity="0"></use><g><use xlink:href="#i5PvchcP1x" opacity="1" fill-opacity="0" stroke="#000000" stroke-width="1" stroke-opacity="0"></use></g></g><g><use xlink:href="#b36rICAebP" opacity="1" fill="#000000" fill-opacity="1"></use><g><use xlink:href="#b36rICAebP" opacity="1" fill-opacity="0" stroke="#000000" stroke-width="1" stroke-opacity="0"></use></g></g><g><use xlink:href="#c1uDStAbOq" opacity="1" fill="#000000" fill-opacity="0"></use><g><use xlink:href="#c1uDStAbOq" opacity="1" fill-opacity="0" stroke="#000000" stroke-width="1" stroke-opacity="0"></use></g></g><g><use xlink:href="#ahEUTjTM9" opacity="1" fill="#000000" fill-opacity="0"></use><g><use xlink:href="#ahEUTjTM9" opacity="1" fill-opacity="0" stroke="#000000" stroke-width="1" stroke-opacity="0"></use></g></g><g><use xlink:href="#e1MtsFBvsZ" opacity="1" fill="#000000" fill-opacity="0"></use><g><use xlink:href="#e1MtsFBvsZ" opacity="1" fill-opacity="0" stroke="#a9a5a5" stroke-width="1" stroke-opacity="1"></use></g></g><g><use xlink:href="#euOOUr2pK" opacity="1" fill="#3f3d56" fill-opacity="1"></use><g><use xlink:href="#euOOUr2pK" opacity="1" fill-opacity="0" stroke="#000000" stroke-width="1" stroke-opacity="0"></use></g></g><g><use xlink:href="#c1ZMI2oUGq" opacity="1" fill="#000000" fill-opacity="0"></use><g><use xlink:href="#c1ZMI2oUGq" opacity="1" fill-opacity="0" stroke="#000000" stroke-width="1" stroke-opacity="0"></use></g></g><g><use xlink:href="#j2epW1pUV" opacity="1" fill="#3f3d56" fill-opacity="1"></use><g><use xlink:href="#j2epW1pUV" opacity="1" fill-opacity="0" stroke="#000000" stroke-width="1" stroke-opacity="0"></use></g></g><g><use xlink:href="#b6iuJTxLJy" opacity="1" fill="#000000" fill-opacity="0"></use><g><use xlink:href="#b6iuJTxLJy" opacity="1" fill-opacity="0" stroke="#000000" stroke-width="1" stroke-opacity="0"></use></g></g><g><use xlink:href="#dEqM6a1rB" opacity="1" fill="#000000" fill-opacity="1"></use><g><use xlink:href="#dEqM6a1rB" opacity="1" fill-opacity="0" stroke="#000000" stroke-width="1" stroke-opacity="0"></use></g></g><g><use xlink:href="#a6y4fHCHC" opacity="1" fill="#000000" fill-opacity="0"></use><g><use xlink:href="#a6y4fHCHC" opacity="1" fill-opacity="0" stroke="#000000" stroke-width="1" stroke-opacity="0"></use></g></g><g><use xlink:href="#brRwsPF26" opacity="1" fill="#3f3d56" fill-opacity="1"></use><g><use xlink:href="#brRwsPF26" opacity="1" fill-opacity="0" stroke="#000000" stroke-width="1" stroke-opacity="0"></use></g></g><g><use xlink:href="#adKPwxKc" opacity="1" fill="#000000" fill-opacity="0"></use><g><use xlink:href="#adKPwxKc" opacity="1" fill-opacity="0" stroke="#000000" stroke-width="1" stroke-opacity="0"></use></g></g><g><use xlink:href="#eKVJ5pS33" opacity="1" fill="#3c354c" fill-opacity="1"></use><g><use xlink:href="#eKVJ5pS33" opacity="1" fill-opacity="0" stroke="#000000" stroke-width="1" stroke-opacity="0"></use></g></g><g><use xlink:href="#a3RlamcKX" opacity="1" fill="#000000" fill-opacity="0"></use><g><use xlink:href="#a3RlamcKX" opacity="1" fill-opacity="0" stroke="#000000" stroke-width="1" stroke-opacity="0"></use></g></g><g><use xlink:href="#aVEADwLRp" opacity="1" fill="#fbbebe" fill-opacity="1"></use><g><use xlink:href="#aVEADwLRp" opacity="1" fill-opacity="0" stroke="#000000" stroke-width="1" stroke-opacity="0"></use></g></g><g><use xlink:href="#g6crZwahC" opacity="1" fill="#000000" fill-opacity="0"></use><g><use xlink:href="#g6crZwahC" opacity="1" fill-opacity="0" stroke="#000000" stroke-width="1" stroke-opacity="0"></use></g></g><g><use xlink:href="#aZ2fpfMI" opacity="1" fill="#fbbebe" fill-opacity="1"></use><g><use xlink:href="#aZ2fpfMI" opacity="1" fill-opacity="0" stroke="#000000" stroke-width="1" stroke-opacity="0"></use></g></g><g><use xlink:href="#i16Cv8xCQP" opacity="1" fill="#000000" fill-opacity="0"></use><g><use xlink:href="#i16Cv8xCQP" opacity="1" fill-opacity="0" stroke="#000000" stroke-width="1" stroke-opacity="0"></use></g></g><g><use xlink:href="#b1E8ofd1ry" opacity="1" fill="#3f3d56" fill-opacity="1"></use><g><use xlink:href="#b1E8ofd1ry" opacity="1" fill-opacity="0" stroke="#000000" stroke-width="1" stroke-opacity="0"></use></g></g><g><use xlink:href="#d2MKWUpDSK" opacity="1" fill="#000000" fill-opacity="0"></use><g><use xlink:href="#d2MKWUpDSK" opacity="1" fill-opacity="0" stroke="#000000" stroke-width="1" stroke-opacity="0"></use></g></g><g><use xlink:href="#i2aOR3WWmb" opacity="1" fill="#000000" fill-opacity="0"></use><g><use xlink:href="#i2aOR3WWmb" opacity="1" fill-opacity="0" stroke="#000000" stroke-width="1" stroke-opacity="0"></use></g></g><g><use xlink:href="#e2AKLkZn" opacity="1" fill="#000000" fill-opacity="0"></use><g><use xlink:href="#e2AKLkZn" opacity="1" fill-opacity="0" stroke="#ffffff" stroke-width="2" stroke-opacity="1"></use></g></g><g><use xlink:href="#b2pGnJwCD" opacity="1" fill="#000000" fill-opacity="0"></use><g><use xlink:href="#b2pGnJwCD" opacity="1" fill-opacity="0" stroke="#000000" stroke-width="1" stroke-opacity="0"></use></g></g><g><use xlink:href="#ccMxZQiSH" opacity="1" fill="#3f3d56" fill-opacity="1"></use><g><use xlink:href="#ccMxZQiSH" opacity="1" fill-opacity="0" stroke="#ffffff" stroke-width="2" stroke-opacity="1"></use></g></g><g><use xlink:href="#c6ojMnKkQ" opacity="1" fill="#c2ffbd" fill-opacity="1"></use><g><use xlink:href="#c6ojMnKkQ" opacity="1" fill-opacity="0" stroke="#000000" stroke-width="1" stroke-opacity="0"></use></g></g><g><use xlink:href="#a4sFxbjH1e" opacity="1" fill="#000000" fill-opacity="0"></use><g><use xlink:href="#a4sFxbjH1e" opacity="1" fill-opacity="0" stroke="#3f3d56" stroke-width="1" stroke-opacity="1"></use></g></g><g><use xlink:href="#aJHJrycRM" opacity="1" fill="#000000" fill-opacity="0"></use><g><use xlink:href="#aJHJrycRM" opacity="1" fill-opacity="0" stroke="#000000" stroke-width="1" stroke-opacity="0"></use></g></g><g><use xlink:href="#fdXZ2fK8t" opacity="1" fill="#000000" fill-opacity="0"></use><g><use xlink:href="#fdXZ2fK8t" opacity="1" fill-opacity="0" stroke="#3f3d56" stroke-width="1" stroke-opacity="1"></use></g></g><g><use xlink:href="#a1YAXwYf3U" opacity="1" fill="#000000" fill-opacity="0"></use><g><use xlink:href="#a1YAXwYf3U" opacity="1" fill-opacity="0" stroke="#000000" stroke-width="1" stroke-opacity="0"></use></g></g><g><use xlink:href="#a1w8RLQSG6" opacity="1" fill="#000000" fill-opacity="0"></use><g><use xlink:href="#a1w8RLQSG6" opacity="1" fill-opacity="0" stroke="#3f3d56" stroke-width="1" stroke-opacity="1"></use></g></g><g><use xlink:href="#a2D05PIwim" opacity="1" fill="#000000" fill-opacity="0"></use><g><use xlink:href="#a2D05PIwim" opacity="1" fill-opacity="0" stroke="#000000" stroke-width="1" stroke-opacity="0"></use></g></g><g><use xlink:href="#c5gnsqL9n" opacity="1" fill="#000000" fill-opacity="0"></use><g><use xlink:href="#c5gnsqL9n" opacity="1" fill-opacity="0" stroke="#3f3d56" stroke-width="1" stroke-opacity="1"></use></g></g><g><use xlink:href="#b16D17bYnq" opacity="1" fill="#57b894" fill-opacity="1"></use><g><use xlink:href="#b16D17bYnq" opacity="1" fill-opacity="0" stroke="#000000" stroke-width="1" stroke-opacity="0"></use></g></g><g><use xlink:href="#e5Z5l3YC3G" opacity="1" fill="#000000" fill-opacity="0"></use><g><use xlink:href="#e5Z5l3YC3G" opacity="1" fill-opacity="0" stroke="#000000" stroke-width="1" stroke-opacity="0"></use></g></g><g><use xlink:href="#a2tSycQkiP" opacity="1" fill="#57b894" fill-opacity="1"></use><g><use xlink:href="#a2tSycQkiP" opacity="1" fill-opacity="0" stroke="#000000" stroke-width="1" stroke-opacity="0"></use></g></g><g><use xlink:href="#bbF51pdV2" opacity="1" fill="#000000" fill-opacity="0"></use><g><use xlink:href="#bbF51pdV2" opacity="1" fill-opacity="0" stroke="#000000" stroke-width="1" stroke-opacity="0"></use></g></g><g><use xlink:href="#f1Pt82SwqY" opacity="1" fill="#57b894" fill-opacity="1"></use><g><use xlink:href="#f1Pt82SwqY" opacity="1" fill-opacity="0" stroke="#000000" stroke-width="1" stroke-opacity="0"></use></g></g><g><use xlink:href="#b8CJvCTl8o" opacity="1" fill="#000000" fill-opacity="0"></use><g><use xlink:href="#b8CJvCTl8o" opacity="1" fill-opacity="0" stroke="#000000" stroke-width="1" stroke-opacity="0"></use></g></g><g><use xlink:href="#a8O1oTyV7v" opacity="1" fill="#57b894" fill-opacity="1"></use><g><use xlink:href="#a8O1oTyV7v" opacity="1" fill-opacity="0" stroke="#000000" stroke-width="1" stroke-opacity="0"></use></g></g><g><use xlink:href="#gbB9it7y5" opacity="1" fill="#000000" fill-opacity="0"></use><g><use xlink:href="#gbB9it7y5" opacity="1" fill-opacity="0" stroke="#000000" stroke-width="1" stroke-opacity="0"></use></g></g><g><use xlink:href="#a3AOs4682e" opacity="1" fill="#57b894" fill-opacity="1"></use><g><use xlink:href="#a3AOs4682e" opacity="1" fill-opacity="0" stroke="#000000" stroke-width="1" stroke-opacity="0"></use></g></g><g><use xlink:href="#a3708FbzTQ" opacity="1" fill="#000000" fill-opacity="0"></use><g><use xlink:href="#a3708FbzTQ" opacity="1" fill-opacity="0" stroke="#000000" stroke-width="1" stroke-opacity="0"></use></g></g><g><use xlink:href="#bFHzDC1nn" opacity="1" fill="#000000" fill-opacity="0"></use><g><use xlink:href="#bFHzDC1nn" opacity="1" fill-opacity="0" stroke="#000000" stroke-width="1" stroke-opacity="0"></use></g></g><g><use xlink:href="#d2x2ePIlB" opacity="1" fill="#000000" fill-opacity="0"></use><g><use xlink:href="#d2x2ePIlB" opacity="1" fill-opacity="0" stroke="#3f3d56" stroke-width="1" stroke-opacity="1"></use></g></g><g><use xlink:href="#b15WGRKoj" opacity="1" fill="#57b894" fill-opacity="1"></use><g><use xlink:href="#b15WGRKoj" opacity="1" fill-opacity="0" stroke="#000000" stroke-width="1" stroke-opacity="0"></use></g></g><g><use xlink:href="#a32XaTRLyW" opacity="1" fill="#000000" fill-opacity="0"></use><g><use xlink:href="#a32XaTRLyW" opacity="1" fill-opacity="0" stroke="#000000" stroke-width="1" stroke-opacity="0"></use></g></g><g><use xlink:href="#ebbVeubOt" opacity="1" fill="#57b894" fill-opacity="1"></use><g><use xlink:href="#ebbVeubOt" opacity="1" fill-opacity="0" stroke="#000000" stroke-width="1" stroke-opacity="0"></use></g></g><g><use xlink:href="#b1p8CLcxCN" opacity="1" fill="#000000" fill-opacity="0"></use><g><use xlink:href="#b1p8CLcxCN" opacity="1" fill-opacity="0" stroke="#000000" stroke-width="1" stroke-opacity="0"></use></g></g><g><use xlink:href="#b2eNuDC3xN" opacity="1" fill="#57b894" fill-opacity="1"></use><g><use xlink:href="#b2eNuDC3xN" opacity="1" fill-opacity="0" stroke="#000000" stroke-width="1" stroke-opacity="0"></use></g></g><g><use xlink:href="#b22ZPNgEJP" opacity="1" fill="#000000" fill-opacity="0"></use><g><use xlink:href="#b22ZPNgEJP" opacity="1" fill-opacity="0" stroke="#000000" stroke-width="1" stroke-opacity="0"></use></g></g><g><use xlink:href="#j6TUvgNK6" opacity="1" fill="#57b894" fill-opacity="1"></use><g><use xlink:href="#j6TUvgNK6" opacity="1" fill-opacity="0" stroke="#000000" stroke-width="1" stroke-opacity="0"></use></g></g><g><use xlink:href="#c1sceHYsFJ" opacity="1" fill="#000000" fill-opacity="0"></use><g><use xlink:href="#c1sceHYsFJ" opacity="1" fill-opacity="0" stroke="#000000" stroke-width="1" stroke-opacity="0"></use></g></g><g><use xlink:href="#c17CTaB4PV" opacity="1" fill="#57b894" fill-opacity="1"></use><g><use xlink:href="#c17CTaB4PV" opacity="1" fill-opacity="0" stroke="#000000" stroke-width="1" stroke-opacity="0"></use></g></g><g><use xlink:href="#a409yOpvI" opacity="1" fill="#000000" fill-opacity="0"></use><g><use xlink:href="#a409yOpvI" opacity="1" fill-opacity="0" stroke="#000000" stroke-width="1" stroke-opacity="0"></use></g></g><g><use xlink:href="#bfwKnpXYM" opacity="1" fill="#000000" fill-opacity="0"></use><g><use xlink:href="#bfwKnpXYM" opacity="1" fill-opacity="0" stroke="#000000" stroke-width="1" stroke-opacity="0"></use></g></g><g><use xlink:href="#adgWCHcRc" opacity="1" fill="#000000" fill-opacity="0"></use><g><use xlink:href="#adgWCHcRc" opacity="1" fill-opacity="0" stroke="#3f3d56" stroke-width="1" stroke-opacity="1"></use></g></g><g><use xlink:href="#e5XfvPebmh" opacity="1" fill="#57b894" fill-opacity="1"></use><g><use xlink:href="#e5XfvPebmh" opacity="1" fill-opacity="0" stroke="#000000" stroke-width="1" stroke-opacity="0"></use></g></g><g><use xlink:href="#a3NJcbzZJp" opacity="1" fill="#000000" fill-opacity="0"></use><g><use xlink:href="#a3NJcbzZJp" opacity="1" fill-opacity="0" stroke="#000000" stroke-width="1" stroke-opacity="0"></use></g></g><g><use xlink:href="#a1iwzU6E87" opacity="1" fill="#57b894" fill-opacity="1"></use><g><use xlink:href="#a1iwzU6E87" opacity="1" fill-opacity="0" stroke="#000000" stroke-width="1" stroke-opacity="0"></use></g></g><g><use xlink:href="#b6UkSV4HS" opacity="1" fill="#000000" fill-opacity="0"></use><g><use xlink:href="#b6UkSV4HS" opacity="1" fill-opacity="0" stroke="#000000" stroke-width="1" stroke-opacity="0"></use></g></g><g><use xlink:href="#e3FQEK6Kuo" opacity="1" fill="#57b894" fill-opacity="1"></use><g><use xlink:href="#e3FQEK6Kuo" opacity="1" fill-opacity="0" stroke="#000000" stroke-width="1" stroke-opacity="0"></use></g></g><g><use xlink:href="#gQjcjaYZc" opacity="1" fill="#000000" fill-opacity="0"></use><g><use xlink:href="#gQjcjaYZc" opacity="1" fill-opacity="0" stroke="#000000" stroke-width="1" stroke-opacity="0"></use></g></g><g><use xlink:href="#bgID7W858" opacity="1" fill="#57b894" fill-opacity="1"></use><g><use xlink:href="#bgID7W858" opacity="1" fill-opacity="0" stroke="#000000" stroke-width="1" stroke-opacity="0"></use></g></g><g><use xlink:href="#atefN06DX" opacity="1" fill="#000000" fill-opacity="0"></use><g><use xlink:href="#atefN06DX" opacity="1" fill-opacity="0" stroke="#000000" stroke-width="1" stroke-opacity="0"></use></g></g><g><use xlink:href="#b21El0sfPM" opacity="1" fill="#57b894" fill-opacity="1"></use><g><use xlink:href="#b21El0sfPM" opacity="1" fill-opacity="0" stroke="#000000" stroke-width="1" stroke-opacity="0"></use></g></g><g><use xlink:href="#b1AWZ0tZw6" opacity="1" fill="#000000" fill-opacity="0"></use><g><use xlink:href="#b1AWZ0tZw6" opacity="1" fill-opacity="0" stroke="#000000" stroke-width="1" stroke-opacity="0"></use></g></g><g><use xlink:href="#arzBXudy7" opacity="1" fill="#000000" fill-opacity="0"></use><g><use xlink:href="#arzBXudy7" opacity="1" fill-opacity="0" stroke="#000000" stroke-width="1" stroke-opacity="0"></use></g></g><g><use xlink:href="#d1Uzjd5a6J" opacity="1" fill="#000000" fill-opacity="0"></use><g><use xlink:href="#d1Uzjd5a6J" opacity="1" fill-opacity="0" stroke="#3f3d56" stroke-width="1" stroke-opacity="1"></use></g></g><g><use xlink:href="#a1ki6X4nE3" opacity="1" fill="#6c63ff" fill-opacity="1"></use><g><use xlink:href="#a1ki6X4nE3" opacity="1" fill-opacity="0" stroke="#000000" stroke-width="1" stroke-opacity="0"></use></g></g><g><use xlink:href="#bvGKJ633" opacity="1" fill="#000000" fill-opacity="0"></use><g><use xlink:href="#bvGKJ633" opacity="1" fill-opacity="0" stroke="#000000" stroke-width="1" stroke-opacity="0"></use></g></g><g><use xlink:href="#f2gydMAfRY" opacity="1" fill="#6c63ff" fill-opacity="1"></use><g><use xlink:href="#f2gydMAfRY" opacity="1" fill-opacity="0" stroke="#000000" stroke-width="1" stroke-opacity="0"></use></g></g><g><use xlink:href="#fhek288bL" opacity="1" fill="#000000" fill-opacity="0"></use><g><use xlink:href="#fhek288bL" opacity="1" fill-opacity="0" stroke="#000000" stroke-width="1" stroke-opacity="0"></use></g></g><g><use xlink:href="#acOedwaTk" opacity="1" fill="#6c63ff" fill-opacity="1"></use><g><use xlink:href="#acOedwaTk" opacity="1" fill-opacity="0" stroke="#000000" stroke-width="1" stroke-opacity="0"></use></g></g><g><use xlink:href="#h1vwE6wHOV" opacity="1" fill="#000000" fill-opacity="0"></use><g><use xlink:href="#h1vwE6wHOV" opacity="1" fill-opacity="0" stroke="#000000" stroke-width="1" stroke-opacity="0"></use></g></g><g><use xlink:href="#j8IsZyW63" opacity="1" fill="#6c63ff" fill-opacity="1"></use><g><use xlink:href="#j8IsZyW63" opacity="1" fill-opacity="0" stroke="#000000" stroke-width="1" stroke-opacity="0"></use></g></g><g><use xlink:href="#a3rNs8hIO" opacity="1" fill="#000000" fill-opacity="0"></use><g><use xlink:href="#a3rNs8hIO" opacity="1" fill-opacity="0" stroke="#000000" stroke-width="1" stroke-opacity="0"></use></g></g><g><use xlink:href="#b1dAlFr91y" opacity="1" fill="#6c63ff" fill-opacity="1"></use><g><use xlink:href="#b1dAlFr91y" opacity="1" fill-opacity="0" stroke="#000000" stroke-width="1" stroke-opacity="0"></use></g></g><g><use xlink:href="#c2BJ5BBVkD" opacity="1" fill="#000000" fill-opacity="0"></use><g><use xlink:href="#c2BJ5BBVkD" opacity="1" fill-opacity="0" stroke="#000000" stroke-width="1" stroke-opacity="0"></use></g></g><g><use xlink:href="#b9N6EkN2Q" opacity="1" fill="#000000" fill-opacity="0"></use><g><use xlink:href="#b9N6EkN2Q" opacity="1" fill-opacity="0" stroke="#000000" stroke-width="1" stroke-opacity="0"></use></g></g><g><use xlink:href="#b5Xi5oUjf" opacity="1" fill="#000000" fill-opacity="0"></use><g><use xlink:href="#b5Xi5oUjf" opacity="1" fill-opacity="0" stroke="#3f3d56" stroke-width="1" stroke-opacity="1"></use></g></g><g><use xlink:href="#a2ysKbPNML" opacity="1" fill="#000000" fill-opacity="0"></use><g><use xlink:href="#a2ysKbPNML" opacity="1" fill-opacity="0" stroke="#000000" stroke-width="1" stroke-opacity="0"></use></g></g><g><use xlink:href="#jlv3ghdM5" opacity="1" fill="#000000" fill-opacity="0"></use><g><use xlink:href="#jlv3ghdM5" opacity="1" fill-opacity="0" stroke="#3f3d56" stroke-width="1" stroke-opacity="1"></use></g></g><g><use xlink:href="#a6J2ibEWp" opacity="1" fill="#000000" fill-opacity="0"></use><g><use xlink:href="#a6J2ibEWp" opacity="1" fill-opacity="0" stroke="#000000" stroke-width="1" stroke-opacity="0"></use></g></g><g><use xlink:href="#b8juiV9b8b" opacity="1" fill="#000000" fill-opacity="0"></use><g><use xlink:href="#b8juiV9b8b" opacity="1" fill-opacity="0" stroke="#3f3d56" stroke-width="1" stroke-opacity="1"></use></g></g><g><use xlink:href="#dlAfebFVM" opacity="1" fill="#000000" fill-opacity="0"></use><g><use xlink:href="#dlAfebFVM" opacity="1" fill-opacity="0" stroke="#000000" stroke-width="1" stroke-opacity="0"></use></g></g><g><use xlink:href="#a8rf6or6q" opacity="1" fill="#000000" fill-opacity="0"></use><g><use xlink:href="#a8rf6or6q" opacity="1" fill-opacity="0" stroke="#3f3d56" stroke-width="1" stroke-opacity="1"></use></g></g><g><use xlink:href="#cuzBvBMs" opacity="1" fill="#000000" fill-opacity="0"></use><g><use xlink:href="#cuzBvBMs" opacity="1" fill-opacity="0" stroke="#000000" stroke-width="1" stroke-opacity="0"></use></g></g><g><use xlink:href="#g24RVuQfs0" opacity="1" fill="#000000" fill-opacity="0"></use><g><use xlink:href="#g24RVuQfs0" opacity="1" fill-opacity="0" stroke="#3f3d56" stroke-width="1" stroke-opacity="1"></use></g></g></g></g></svg>