<?xml version="1.0" encoding="UTF-8" standalone="no"?>
<!DOCTYPE svg PUBLIC "-//W3C//DTD SVG 1.1//EN" "http://www.w3.org/Graphics/SVG/1.1/DTD/svg11.dtd">
<svg version="1.1" xmlns="http://www.w3.org/2000/svg" xmlns:xlink="http://www.w3.org/1999/xlink" preserveAspectRatio="xMidYMid meet" viewBox="0 0 1200 1200" width="1200" height="1200"><defs><path d="M987.58 669.87C987.58 669.87 956.69 675.53 954.5 681.14C954.5 681.14 989.77 687.49 995.66 687.49C995.66 687.49 1029.47 695.95 1029.47 695.95C1028.89 691.14 1027.13 676.76 1026.55 671.99C1018.75 671.57 993.47 674.1 987.58 669.87Z" id="a2hOIV6Ydl"></path><path d="M987.58 669.87C987.58 669.87 956.69 675.53 954.5 681.14C954.5 681.14 989.77 687.49 995.66 687.49C995.66 687.49 1029.47 695.95 1029.47 695.95C1028.89 691.14 1027.13 676.76 1026.55 671.99C1018.75 671.57 993.47 674.1 987.58 669.87Z" id="e4pXmF3Jb"></path><path d="M1028.51 503.97C1025.66 501.85 1025.43 497.82 1023.36 495.01C1020.36 490.97 1014.32 490.47 1009.12 490.66C1005.97 490.81 1002.55 490.97 999.85 489.31C997.12 487.62 995.89 484.47 994.93 481.47C993.85 477.89 993.16 473.58 995.85 470.93C997.74 469.12 1000.7 468.74 1002.81 467.12C1004.97 465.47 1005.85 462.77 1007.05 460.35C1008.39 457.43 1010.51 454.85 1013.2 452.96C1017.16 450.31 1022.2 449.73 1027.01 449.77C1031.82 449.85 1036.63 450.43 1041.4 449.89C1045.32 449.43 1049.2 448.16 1053.09 448.73C1058.05 449.43 1062.17 453 1064.63 457.23C1067.05 461.43 1068.13 466.23 1069.13 470.93C1069.4 472.2 1071.63 482.47 1071.9 483.74C1072.75 487.74 1073.63 491.81 1072.98 495.82C1071.59 504.12 1063.94 510.74 1063.4 519.13C1062.36 514.43 1058.94 510.51 1054.28 508.74C1053.7 508.47 1053.05 508.39 1052.44 508.55C1051.67 508.78 1051.2 509.51 1050.74 510.12C1049.47 511.7 1045.51 514.16 1043.28 513.01C1041.28 512.01 1042.78 508.78 1040.24 507.16C1038.43 506.2 1036.4 505.66 1034.36 505.62C1032.28 505.62 1030.24 505.05 1028.51 503.97Z" id="eWfsSALHd"></path><path d="M1028.51 503.97C1025.66 501.85 1025.43 497.82 1023.36 495.01C1020.36 490.97 1014.32 490.47 1009.12 490.66C1005.97 490.81 1002.55 490.97 999.85 489.31C997.12 487.62 995.89 484.47 994.93 481.47C993.85 477.89 993.16 473.58 995.85 470.93C997.74 469.12 1000.7 468.74 1002.81 467.12C1004.97 465.47 1005.85 462.77 1007.05 460.35C1008.39 457.43 1010.51 454.85 1013.2 452.96C1017.16 450.31 1022.2 449.73 1027.01 449.77C1031.82 449.85 1036.63 450.43 1041.4 449.89C1045.32 449.43 1049.2 448.16 1053.09 448.73C1058.05 449.43 1062.17 453 1064.63 457.23C1067.05 461.43 1068.13 466.23 1069.13 470.93C1069.4 472.2 1071.63 482.47 1071.9 483.74C1072.75 487.74 1073.63 491.81 1072.98 495.82C1071.59 504.12 1063.94 510.74 1063.4 519.13C1062.36 514.43 1058.94 510.51 1054.28 508.74C1053.7 508.47 1053.05 508.39 1052.44 508.55C1051.67 508.78 1051.2 509.51 1050.74 510.12C1049.47 511.7 1045.51 514.16 1043.28 513.01C1041.28 512.01 1042.78 508.78 1040.24 507.16C1038.43 506.2 1036.4 505.66 1034.36 505.62C1032.28 505.62 1030.24 505.05 1028.51 503.97Z" id="e4uSFeGc1"></path><path d="M1100.06 667.07C1100.06 667.07 1089.02 665.64 1087.55 667.07C1086.09 668.45 1031.66 659.3 1024.32 651.53C1024.32 651.53 1015.51 648.72 1011.08 652.95C1006.7 657.18 962.58 661.41 975.81 648.72C989.04 636.02 1009.62 633.22 1009.62 633.22C1012.43 633.33 1034.78 634.48 1037.55 634.6C1037.55 634.6 1052.28 638.83 1061.09 634.6C1061.09 634.6 1094.9 631.79 1094.9 631.79C1099.17 633.22 1111.94 637.45 1116.21 638.83C1112.98 644.48 1121.37 669.87 1100.06 667.07Z" id="dpYxT6Zbh"></path><path d="M1100.06 667.07C1100.06 667.07 1089.02 665.64 1087.55 667.07C1086.09 668.45 1031.66 659.3 1024.32 651.53C1024.32 651.53 1015.51 648.72 1011.08 652.95C1006.7 657.18 962.58 661.41 975.81 648.72C989.04 636.02 1009.62 633.22 1009.62 633.22C1012.43 633.33 1034.78 634.48 1037.55 634.6C1037.55 634.6 1052.28 638.83 1061.09 634.6C1061.09 634.6 1094.9 631.79 1094.9 631.79C1099.17 633.22 1111.94 637.45 1116.21 638.83C1112.98 644.48 1121.37 669.87 1100.06 667.07Z" id="a2D0zWKd98"></path><path d="M1119.17 648.72C1119.17 648.72 1100.79 640.95 1097.09 641.68C1097.09 641.68 1078.75 632.48 1078.75 632.48C1078.75 632.48 1061.82 594.44 1063.28 583.86C1064.74 573.29 1064.01 542.24 1086.09 540.82C1092.71 550.71 1119.17 544.36 1119.17 590.21C1119.17 596.06 1119.17 642.87 1119.17 648.72Z" id="aT0n7padE"></path><path d="M1119.17 648.72C1119.17 648.72 1100.79 640.95 1097.09 641.68C1097.09 641.68 1078.75 632.48 1078.75 632.48C1078.75 632.48 1061.82 594.44 1063.28 583.86C1064.74 573.29 1064.01 542.24 1086.09 540.82C1092.71 550.71 1119.17 544.36 1119.17 590.21C1119.17 596.06 1119.17 642.87 1119.17 648.72Z" id="aBeRpbcOk"></path><path d="M1033.16 500.28C1048.78 500.28 1061.44 493.97 1061.44 486.2C1061.44 478.39 1048.78 472.08 1033.16 472.08C1017.51 472.08 1004.85 478.39 1004.85 486.2C1004.85 493.97 1017.51 500.28 1033.16 500.28Z" id="b4A9Frvff5"></path><path d="M1033.16 500.28C1048.78 500.28 1061.44 493.97 1061.44 486.2C1061.44 478.39 1048.78 472.08 1033.16 472.08C1017.51 472.08 1004.85 478.39 1004.85 486.2C1004.85 493.97 1017.51 500.28 1033.16 500.28Z" id="aNiaA6TO"></path><path d="M1059.63 512.28C1065.09 512.28 1069.55 501.7 1069.55 488.66C1069.55 475.62 1065.09 465.04 1059.63 465.04C1054.13 465.04 1049.7 475.62 1049.7 488.66C1049.7 501.7 1054.13 512.28 1059.63 512.28Z" id="d2dOpwQzQp"></path><path d="M1059.63 512.28C1065.09 512.28 1069.55 501.7 1069.55 488.66C1069.55 475.62 1065.09 465.04 1059.63 465.04C1054.13 465.04 1049.7 475.62 1049.7 488.66C1049.7 501.7 1054.13 512.28 1059.63 512.28Z" id="a98sTTQ44"></path><path d="M1000.74 695.88C999.58 700.26 998.01 704.53 996.04 708.65C991.12 706.49 966.54 695.72 922.34 676.37C933.15 636.29 939.92 611.21 942.65 601.17C985.97 611.94 1011.97 654.33 1000.74 695.88Z" id="aszFpzVp2"></path><path d="M1000.74 695.88C999.58 700.26 998.01 704.53 996.04 708.65C991.12 706.49 966.54 695.72 922.34 676.37C933.15 636.29 939.92 611.21 942.65 601.17C985.97 611.94 1011.97 654.33 1000.74 695.88Z" id="b6LjxzA3l"></path><path d="M978.62 720.69C960.08 759.73 912 776.92 871.3 759.11C830.6 741.3 812.64 695.22 831.22 656.18C847.53 621.87 887.19 603.75 925.27 613.21C922.54 623.25 915.77 648.29 904.92 688.41C949.15 707.76 973.73 718.53 978.62 720.69Z" id="brdspSQ83"></path><path d="M978.62 720.69C960.08 759.73 912 776.92 871.3 759.11C830.6 741.3 812.64 695.22 831.22 656.18C847.53 621.87 887.19 603.75 925.27 613.21C922.54 623.25 915.77 648.29 904.92 688.41C949.15 707.76 973.73 718.53 978.62 720.69Z" id="a6JAjjXsu5"></path><path d="M1041.97 857.66C1041.97 857.66 1045.67 899.98 1056.67 909.13C1056.67 909.13 1056.67 922.52 1060.36 926.75C1060.86 932.33 1064.98 976.91 1065.51 982.49C1065.51 982.49 1058.13 1002.91 1058.9 1006.45C1058.9 1006.45 1055.94 1021.26 1056.67 1022.64C1056.67 1022.64 1091.98 1022.64 1091.98 1022.64C1091.48 1015.1 1089.02 977.25 1084.59 909.13C1083.07 898.6 1075.48 845.95 1061.82 751.19L1030.24 751C1037.55 817.36 1041.46 852.92 1041.97 857.66Z" id="b6LpDgTH8p"></path><path d="M1041.97 857.66C1041.97 857.66 1045.67 899.98 1056.67 909.13C1056.67 909.13 1056.67 922.52 1060.36 926.75C1060.86 932.33 1064.98 976.91 1065.51 982.49C1065.51 982.49 1058.13 1002.91 1058.9 1006.45C1058.9 1006.45 1055.94 1021.26 1056.67 1022.64C1056.67 1022.64 1091.98 1022.64 1091.98 1022.64C1091.48 1015.1 1089.02 977.25 1084.59 909.13C1083.07 898.6 1075.48 845.95 1061.82 751.19L1030.24 751C1037.55 817.36 1041.46 852.92 1041.97 857.66Z" id="a84glx8kDY"></path><path d="M1041.97 857.66C1041.97 857.66 1045.67 899.98 1056.67 909.13C1056.67 909.13 1056.67 922.52 1060.36 926.75C1060.86 932.33 1064.98 976.91 1065.51 982.49C1065.51 982.49 1058.13 1002.91 1058.9 1006.45C1058.9 1006.45 1055.94 1021.26 1056.67 1022.64C1056.67 1022.64 1091.98 1022.64 1091.98 1022.64C1091.48 1015.1 1089.02 977.25 1084.59 909.13C1083.07 898.6 1075.48 845.95 1061.82 751.19L1030.24 751C1037.55 817.36 1041.46 852.92 1041.97 857.66Z" id="b1mLzOSUSO"></path><path d="M1041.97 857.66C1041.97 857.66 1045.67 899.98 1056.67 909.13C1056.67 909.13 1056.67 922.52 1060.36 926.75C1060.86 932.33 1064.98 976.91 1065.51 982.49C1065.51 982.49 1058.13 1002.91 1058.9 1006.45C1058.9 1006.45 1055.94 1021.26 1056.67 1022.64C1056.67 1022.64 1091.98 1022.64 1091.98 1022.64C1091.48 1015.1 1089.02 977.25 1084.59 909.13C1083.07 898.6 1075.48 845.95 1061.82 751.19L1030.24 751C1037.55 817.36 1041.46 852.92 1041.97 857.66Z" id="brYlMOKVz"></path><path d="M1164.29 1059.96L651.51 1059.96" id="b35q6GpyE1"></path><path d="M1164.29 1059.96L651.51 1059.96" id="a8PV5159Q"></path><path d="M1032.78 510.16C1053.09 510.16 1069.55 497.85 1069.55 482.66C1069.55 467.47 1053.09 455.16 1032.78 455.16C1012.47 455.16 996.04 467.47 996.04 482.66C996.04 497.85 1012.47 510.16 1032.78 510.16Z" id="b1JYvmDKJF"></path><path d="M1032.78 510.16C1053.09 510.16 1069.55 497.85 1069.55 482.66C1069.55 467.47 1053.09 455.16 1032.78 455.16C1012.47 455.16 996.04 467.47 996.04 482.66C996.04 497.85 1012.47 510.16 1032.78 510.16Z" id="a3OyuI1kX"></path><path d="M1102.02 1058.69C1102.02 1058.69 1009.51 1059.96 1009.51 1059.96C1009.51 1059.96 995.47 1051.61 1011.55 1045.84C1011.55 1045.84 1024.93 1045.18 1033.66 1040.03C1042.36 1034.88 1052.44 1025.26 1052.44 1025.26C1052.44 1025.26 1053.09 1011.1 1058.47 1014.34C1061.71 1016.37 1063.9 1019.64 1064.48 1023.34C1070.51 1022.03 1088.63 1018.18 1094.67 1016.87C1096.14 1025.24 1110.06 1054.19 1102.02 1058.69Z" id="b2vnpdb4h4"></path><path d="M1102.02 1058.69C1102.02 1058.69 1009.51 1059.96 1009.51 1059.96C1009.51 1059.96 995.47 1051.61 1011.55 1045.84C1011.55 1045.84 1024.93 1045.18 1033.66 1040.03C1042.36 1034.88 1052.44 1025.26 1052.44 1025.26C1052.44 1025.26 1053.09 1011.1 1058.47 1014.34C1061.71 1016.37 1063.9 1019.64 1064.48 1023.34C1070.51 1022.03 1088.63 1018.18 1094.67 1016.87C1096.14 1025.24 1110.06 1054.19 1102.02 1058.69Z" id="fWWz7CvMU"></path><path d="M1102.02 1058.69C1102.02 1058.69 1009.51 1059.96 1009.51 1059.96C1009.51 1059.96 995.47 1051.61 1011.55 1045.84C1011.55 1045.84 1024.93 1045.18 1033.66 1040.03C1042.36 1034.88 1052.44 1025.26 1052.44 1025.26C1052.44 1025.26 1053.09 1011.1 1058.47 1014.34C1061.71 1016.37 1063.9 1019.64 1064.48 1023.34C1070.51 1022.03 1088.63 1018.18 1094.67 1016.87C1096.14 1025.24 1110.06 1054.19 1102.02 1058.69Z" id="c2uxFEefTt"></path><path d="M1102.02 1058.69C1102.02 1058.69 1009.51 1059.96 1009.51 1059.96C1009.51 1059.96 995.47 1051.61 1011.55 1045.84C1011.55 1045.84 1024.93 1045.18 1033.66 1040.03C1042.36 1034.88 1052.44 1025.26 1052.44 1025.26C1052.44 1025.26 1053.09 1011.1 1058.47 1014.34C1061.71 1016.37 1063.9 1019.64 1064.48 1023.34C1070.51 1022.03 1088.63 1018.18 1094.67 1016.87C1096.14 1025.24 1110.06 1054.19 1102.02 1058.69Z" id="c8O9ecKxv"></path><path d="M1126.52 1057.65C1126.52 1057.65 1025.05 1059.07 1025.05 1059.07C1025.05 1059.07 1009.62 1049.92 1027.28 1043.57C1027.28 1043.57 1041.97 1042.88 1051.51 1037.22C1061.09 1031.57 1072.13 1020.99 1072.13 1020.99C1072.13 1020.99 1072.86 1005.49 1078.75 1009.03C1082.29 1011.26 1084.67 1014.84 1085.36 1018.87C1091.98 1017.49 1111.79 1013.26 1118.4 1011.83C1120.03 1021 1135.33 1052.72 1126.52 1057.65Z" id="a5llS5rYc"></path><path d="M1126.52 1057.65C1126.52 1057.65 1025.05 1059.07 1025.05 1059.07C1025.05 1059.07 1009.62 1049.92 1027.28 1043.57C1027.28 1043.57 1041.97 1042.88 1051.51 1037.22C1061.09 1031.57 1072.13 1020.99 1072.13 1020.99C1072.13 1020.99 1072.86 1005.49 1078.75 1009.03C1082.29 1011.26 1084.67 1014.84 1085.36 1018.87C1091.98 1017.49 1111.79 1013.26 1118.4 1011.83C1120.03 1021 1135.33 1052.72 1126.52 1057.65Z" id="cgd7ARd3f"></path><path d="M1061.82 837.66C1064.13 847.89 1065.59 858.28 1066.24 868.7C1066.24 868.7 1066.98 891.28 1073.59 897.63C1077.48 901.32 1079.63 906.44 1079.48 911.71C1079.48 911.71 1086.09 982.91 1082.4 991.37C1082.4 991.37 1073.75 1010.83 1077.4 1016.49C1077.4 1016.49 1122.83 1018.18 1122.83 1013.95C1122.83 1013.95 1122.83 1006.18 1125.02 1004.06C1125.02 1004.06 1125.02 988.56 1125.02 988.56C1125.02 988.56 1133.87 925.83 1125.79 907.48C1125.79 907.48 1114.02 839.08 1114.02 839.08C1114.02 839.08 1119.9 781.96 1127.25 772.81C1127.25 772.81 1125.79 731.23 1125.79 731.23C1110.63 734.88 1065.21 745.88 1050.05 749.54C1052.4 767.16 1058.13 822.16 1061.82 837.66Z" id="aiJXBuy6R"></path><path d="M1061.82 837.66C1064.13 847.89 1065.59 858.28 1066.24 868.7C1066.24 868.7 1066.98 891.28 1073.59 897.63C1077.48 901.32 1079.63 906.44 1079.48 911.71C1079.48 911.71 1086.09 982.91 1082.4 991.37C1082.4 991.37 1073.75 1010.83 1077.4 1016.49C1077.4 1016.49 1122.83 1018.18 1122.83 1013.95C1122.83 1013.95 1122.83 1006.18 1125.02 1004.06C1125.02 1004.06 1125.02 988.56 1125.02 988.56C1125.02 988.56 1133.87 925.83 1125.79 907.48C1125.79 907.48 1114.02 839.08 1114.02 839.08C1114.02 839.08 1119.9 781.96 1127.25 772.81C1127.25 772.81 1125.79 731.23 1125.79 731.23C1110.63 734.88 1065.21 745.88 1050.05 749.54C1052.4 767.16 1058.13 822.16 1061.82 837.66Z" id="aSjPDUuRe"></path><path d="M1037.28 550.05C1039.47 542.82 1039.01 535.09 1035.93 528.16C1034.86 525.82 1033.47 523.28 1034.24 520.82C1034.97 519.05 1036.28 517.55 1037.97 516.55C1041.59 513.86 1045.4 511.36 1049.32 509.09C1052.09 507.51 1057.74 503.32 1060.9 503.78C1061.05 507.86 1061.13 511.51 1063.01 515.36C1063.48 516.24 1070.44 524.74 1070.75 524.01C1069.9 525.9 1067.86 526.93 1065.98 527.9C1055.21 533.63 1046.17 541.86 1037.28 550.05Z" id="f38WoEQ2b5"></path><path d="M1037.28 550.05C1039.47 542.82 1039.01 535.09 1035.93 528.16C1034.86 525.82 1033.47 523.28 1034.24 520.82C1034.97 519.05 1036.28 517.55 1037.97 516.55C1041.59 513.86 1045.4 511.36 1049.32 509.09C1052.09 507.51 1057.74 503.32 1060.9 503.78C1061.05 507.86 1061.13 511.51 1063.01 515.36C1063.48 516.24 1070.44 524.74 1070.75 524.01C1069.9 525.9 1067.86 526.93 1065.98 527.9C1055.21 533.63 1046.17 541.86 1037.28 550.05Z" id="b3MSD4D6Br"></path><path d="M1063.28 504.16C1063.28 520.13 1049.78 533.09 1033.16 533.09C1016.51 533.09 1003.01 520.13 1003.01 504.16C1003.01 488.2 1016.51 475.27 1033.16 475.27C1049.78 475.27 1063.28 488.2 1063.28 504.16Z" id="dciA6RIqC"></path><path d="M1063.28 504.16C1063.28 520.13 1049.78 533.09 1033.16 533.09C1016.51 533.09 1003.01 520.13 1003.01 504.16C1003.01 488.2 1016.51 475.27 1033.16 475.27C1049.78 475.27 1063.28 488.2 1063.28 504.16Z" id="f2X3jMS4Eq"></path><path d="M1072.86 521.09C1072.86 521.09 1077.98 520.39 1080.21 530.97C1080.21 530.97 1122.1 538.7 1126.52 576.79C1130.91 614.87 1123.56 670.57 1123.56 670.57C1123.56 670.57 1130.18 719.22 1138.25 745.3C1138.25 745.3 1144.87 750.96 1115.48 742.5C1086.09 734.03 1034.63 766.46 1034.63 766.46C1034.63 766.46 1029.47 761.54 1029.47 758C1029.47 754.46 1023.59 734.03 1023.59 734.03C1023.59 734.03 1018.43 647.29 1016.24 637.45C1014.05 627.56 1025.05 573.98 1031.66 572.55C1033.59 565.94 1026.55 547.9 1041.24 539.44C1055.94 530.97 1066.54 524.76 1072.86 521.09Z" id="a8AEPCB80H"></path><path d="M1072.86 521.09C1072.86 521.09 1077.98 520.39 1080.21 530.97C1080.21 530.97 1122.1 538.7 1126.52 576.79C1130.91 614.87 1123.56 670.57 1123.56 670.57C1123.56 670.57 1130.18 719.22 1138.25 745.3C1138.25 745.3 1144.87 750.96 1115.48 742.5C1086.09 734.03 1034.63 766.46 1034.63 766.46C1034.63 766.46 1029.47 761.54 1029.47 758C1029.47 754.46 1023.59 734.03 1023.59 734.03C1023.59 734.03 1018.43 647.29 1016.24 637.45C1014.05 627.56 1025.05 573.98 1031.66 572.55C1033.59 565.94 1026.55 547.9 1041.24 539.44C1055.94 530.97 1066.54 524.76 1072.86 521.09Z" id="ctVXQGSEL"></path><path d="M82.9 980.41C82.9 980.41 384.71 811.66 773.79 980.41" id="eeVQ8rSBE"></path><path d="M82.9 980.41C82.9 980.41 384.71 811.66 773.79 980.41" id="cVQlbVBEl"></path><path d="M143.64 953.91C118.25 948.9 100.06 927.48 100.06 902.63C100.06 831.62 100.06 263.4 100.06 192.36C100.06 163.47 124.48 140.04 154.6 140.04C154.6 140.04 154.6 140.04 154.6 140.04C209.38 140.04 647.31 140.04 702.05 140.04C732.17 140.04 756.59 163.47 756.59 192.36C756.59 192.36 756.59 192.36 756.59 192.36C756.59 263.4 756.59 831.62 756.59 902.63C756.59 929.36 735.63 951.79 707.94 954.67" id="d5XJsRBci"></path><path d="M143.64 953.91C118.25 948.9 100.06 927.48 100.06 902.63C100.06 831.62 100.06 263.4 100.06 192.36C100.06 163.47 124.48 140.04 154.6 140.04C154.6 140.04 154.6 140.04 154.6 140.04C209.38 140.04 647.31 140.04 702.05 140.04C732.17 140.04 756.59 163.47 756.59 192.36C756.59 192.36 756.59 192.36 756.59 192.36C756.59 263.4 756.59 831.62 756.59 902.63C756.59 929.36 735.63 951.79 707.94 954.67" id="b4PNP0ibL"></path><path d="M717.28 224.36C717.28 612.14 717.28 827.54 717.28 870.63C717.28 870.63 717.28 870.63 717.28 870.63C367.13 870.63 172.57 870.63 133.68 870.63C133.68 870.63 133.68 870.63 133.68 870.63C133.68 482.89 133.68 267.44 133.68 224.36C133.68 224.36 133.68 224.36 133.68 224.36C483.83 224.36 678.35 224.36 717.28 224.36C717.28 224.36 717.28 224.36 717.28 224.36Z" id="e1wT7TVtJO"></path><path d="M717.28 224.36C717.28 612.14 717.28 827.54 717.28 870.63C717.28 870.63 717.28 870.63 717.28 870.63C367.13 870.63 172.57 870.63 133.68 870.63C133.68 870.63 133.68 870.63 133.68 870.63C133.68 482.89 133.68 267.44 133.68 224.36C133.68 224.36 133.68 224.36 133.68 224.36C483.83 224.36 678.35 224.36 717.28 224.36C717.28 224.36 717.28 224.36 717.28 224.36Z" id="b2UnRzq9NR"></path><path d="M414.02 181.9C414.02 189.47 420.44 195.59 428.33 195.59C436.25 195.59 442.64 189.47 442.64 181.9C442.64 174.32 436.25 168.16 428.33 168.16C420.44 168.16 414.02 174.32 414.02 181.9Z" id="c3eZpwBVb"></path><path d="M414.02 181.9C414.02 189.47 420.44 195.59 428.33 195.59C436.25 195.59 442.64 189.47 442.64 181.9C442.64 174.32 436.25 168.16 428.33 168.16C420.44 168.16 414.02 174.32 414.02 181.9Z" id="a9O2LGL8dw"></path><path d="M397.63 905.75C401.52 889.47 418.36 879.32 435.33 883.01C447.33 885.63 456.6 894.71 459.14 906.25" id="d8h7g1lQQn"></path><path d="M397.63 905.75C401.52 889.47 418.36 879.32 435.33 883.01C447.33 885.63 456.6 894.71 459.14 906.25" id="d6lvC1UjK"></path><path d="M68.44 270.98C55.98 271.67 45.01 279.02 40.09 289.98C33.01 306.41 42.13 325.72 55.82 337.72C69.52 349.68 87.1 356.53 103.1 365.53C124.56 377.61 143.83 394.38 154.6 415.96C165.34 437.5 166.49 464.16 153.83 484.74C142.14 503.85 120.83 515.28 100.48 525.82" id="b77w74QGtp"></path><path d="M68.44 270.98C55.98 271.67 45.01 279.02 40.09 289.98C33.01 306.41 42.13 325.72 55.82 337.72C69.52 349.68 87.1 356.53 103.1 365.53C124.56 377.61 143.83 394.38 154.6 415.96C165.34 437.5 166.49 464.16 153.83 484.74C142.14 503.85 120.83 515.28 100.48 525.82" id="cO4G876xN"></path><path d="M86.48 284.1C72.63 284.1 61.44 278.87 61.44 272.44C61.44 265.98 72.63 260.75 86.48 260.75C100.29 260.75 111.52 265.98 111.52 272.44C111.52 278.87 100.29 284.1 86.48 284.1Z" id="a2ynww6P7a"></path><path d="M86.48 284.1C72.63 284.1 61.44 278.87 61.44 272.44C61.44 265.98 72.63 260.75 86.48 260.75C100.29 260.75 111.52 265.98 111.52 272.44C111.52 278.87 100.29 284.1 86.48 284.1Z" id="b1ox560HGa"></path><path d="M106.48 360.92C92.67 360.92 81.48 355.68 81.48 349.26C81.48 342.8 92.67 337.61 106.48 337.61C120.33 337.61 131.52 342.8 131.52 349.26C131.52 355.68 120.33 360.92 106.48 360.92Z" id="b4GLTyH6G"></path><path d="M106.48 360.92C92.67 360.92 81.48 355.68 81.48 349.26C81.48 342.8 92.67 337.61 106.48 337.61C120.33 337.61 131.52 342.8 131.52 349.26C131.52 355.68 120.33 360.92 106.48 360.92Z" id="f8xlEJMNH"></path><path d="M60.71 373.26C46.9 373.26 35.71 368.03 35.71 361.61C35.71 355.15 46.9 349.95 60.71 349.95C74.56 349.95 85.75 355.15 85.75 361.61C85.75 368.03 74.56 373.26 60.71 373.26Z" id="b9g27mO4Jc"></path><path d="M60.71 373.26C46.9 373.26 35.71 368.03 35.71 361.61C35.71 355.15 46.9 349.95 60.71 349.95C74.56 349.95 85.75 355.15 85.75 361.61C85.75 368.03 74.56 373.26 60.71 373.26Z" id="b1isILSscp"></path><path d="M132.26 437.73C118.41 437.73 107.21 432.54 107.21 426.08C107.21 419.65 118.41 414.42 132.26 414.42C146.06 414.42 157.26 419.65 157.26 426.08C157.26 432.54 146.06 437.73 132.26 437.73Z" id="h5VXDH6N0O"></path><path d="M132.26 437.73C118.41 437.73 107.21 432.54 107.21 426.08C107.21 419.65 118.41 414.42 132.26 414.42C146.06 414.42 157.26 419.65 157.26 426.08C157.26 432.54 146.06 437.73 132.26 437.73Z" id="ees64po0d"></path><path d="M182.3 437.73C168.49 437.73 157.26 432.54 157.26 426.08C157.26 419.65 168.49 414.42 182.3 414.42C196.15 414.42 207.34 419.65 207.34 426.08C207.34 432.54 196.15 437.73 182.3 437.73Z" id="caoafHvpu"></path><path d="M182.3 437.73C168.49 437.73 157.26 432.54 157.26 426.08C157.26 419.65 168.49 414.42 182.3 414.42C196.15 414.42 207.34 419.65 207.34 426.08C207.34 432.54 196.15 437.73 182.3 437.73Z" id="k3r4R3oTS5"></path><path d="M741.36 742.07C729.78 742.69 719.59 749.57 714.97 759.77C708.4 775.08 716.9 793.04 729.63 804.2C742.4 815.35 758.79 821.74 773.63 830.12C793.64 841.35 811.6 857.01 821.6 877.05C831.6 897.13 832.68 921.94 820.91 941.13C810.02 958.91 790.18 969.56 771.25 979.37" id="a3bnXw02iR"></path><path d="M741.36 742.07C729.78 742.69 719.59 749.57 714.97 759.77C708.4 775.08 716.9 793.04 729.63 804.2C742.4 815.35 758.79 821.74 773.63 830.12C793.64 841.35 811.6 857.01 821.6 877.05C831.6 897.13 832.68 921.94 820.91 941.13C810.02 958.91 790.18 969.56 771.25 979.37" id="a16eQ49nA"></path><path d="M758.17 754.27C745.29 754.27 734.86 749.42 734.86 743.42C734.86 737.42 745.29 732.57 758.17 732.57C771.06 732.57 781.48 737.42 781.48 743.42C781.48 749.42 771.06 754.27 758.17 754.27Z" id="b4hdQAIQNG"></path><path d="M758.17 754.27C745.29 754.27 734.86 749.42 734.86 743.42C734.86 737.42 745.29 732.57 758.17 732.57C771.06 732.57 781.48 737.42 781.48 743.42C781.48 749.42 771.06 754.27 758.17 754.27Z" id="b2wQRDqCGB"></path><path d="M776.83 825.81C763.94 825.81 753.52 820.97 753.52 814.97C753.52 808.97 763.94 804.08 776.83 804.08C789.71 804.08 800.14 808.97 800.14 814.97C800.14 820.97 789.71 825.81 776.83 825.81Z" id="d6oRYLfSHk"></path><path d="M776.83 825.81C763.94 825.81 753.52 820.97 753.52 814.97C753.52 808.97 763.94 804.08 776.83 804.08C789.71 804.08 800.14 808.97 800.14 814.97C800.14 820.97 789.71 825.81 776.83 825.81Z" id="c4KUKoAeei"></path><path d="M734.21 837.32C721.32 837.32 710.9 832.47 710.9 826.47C710.9 820.47 721.32 815.58 734.21 815.58C747.09 815.58 757.52 820.47 757.52 826.47C757.52 832.47 747.09 837.32 734.21 837.32Z" id="am2KJrprY"></path><path d="M734.21 837.32C721.32 837.32 710.9 832.47 710.9 826.47C710.9 820.47 721.32 815.58 734.21 815.58C747.09 815.58 757.52 820.47 757.52 826.47C757.52 832.47 747.09 837.32 734.21 837.32Z" id="a4GWZ9f8B"></path><path d="M800.79 897.36C787.94 897.36 777.48 892.51 777.48 886.51C777.48 880.51 787.94 875.63 800.79 875.63C813.68 875.63 824.1 880.51 824.1 886.51C824.1 892.51 813.68 897.36 800.79 897.36Z" id="a6KmAH2r0"></path><path d="M800.79 897.36C787.94 897.36 777.48 892.51 777.48 886.51C777.48 880.51 787.94 875.63 800.79 875.63C813.68 875.63 824.1 880.51 824.1 886.51C824.1 892.51 813.68 897.36 800.79 897.36Z" id="bqVyIdYQ7"></path><path d="M847.41 897.36C834.56 897.36 824.1 892.51 824.1 886.51C824.1 880.51 834.56 875.63 847.41 875.63C860.3 875.63 870.72 880.51 870.72 886.51C870.72 892.51 860.3 897.36 847.41 897.36Z" id="a3Bxkv2fjR"></path><path d="M847.41 897.36C834.56 897.36 824.1 892.51 824.1 886.51C824.1 880.51 834.56 875.63 847.41 875.63C860.3 875.63 870.72 880.51 870.72 886.51C870.72 892.51 860.3 897.36 847.41 897.36Z" id="aIiMrgF65"></path><path d="M797.91 785.96C807.33 786.46 815.68 792.08 819.45 800.39C824.83 812.89 817.87 827.58 807.48 836.7C797.06 845.78 783.67 851.01 771.52 857.86C755.21 867.05 740.52 879.78 732.36 896.17C724.21 912.55 723.32 932.86 732.94 948.52C741.82 963.02 758.06 971.71 773.48 979.75" id="a1xuxx0Cqr"></path><path d="M797.91 785.96C807.33 786.46 815.68 792.08 819.45 800.39C824.83 812.89 817.87 827.58 807.48 836.7C797.06 845.78 783.67 851.01 771.52 857.86C755.21 867.05 740.52 879.78 732.36 896.17C724.21 912.55 723.32 932.86 732.94 948.52C741.82 963.02 758.06 971.71 773.48 979.75" id="bNGiqki81"></path><path d="M784.17 795.93C773.63 795.93 765.13 791.93 765.13 787.04C765.13 782.16 773.63 778.19 784.17 778.19C794.68 778.19 803.22 782.16 803.22 787.04C803.22 791.93 794.68 795.93 784.17 795.93Z" id="aLiYrSryn"></path><path d="M784.17 795.93C773.63 795.93 765.13 791.93 765.13 787.04C765.13 782.16 773.63 778.19 784.17 778.19C794.68 778.19 803.22 782.16 803.22 787.04C803.22 791.93 794.68 795.93 784.17 795.93Z" id="p1pczSiAYd"></path><path d="M768.94 854.36C758.4 854.36 749.9 850.36 749.9 845.47C749.9 840.58 758.4 836.58 768.94 836.58C779.44 836.58 787.98 840.58 787.98 845.47C787.98 850.36 779.44 854.36 768.94 854.36Z" id="jgwaa1lVU"></path><path d="M768.94 854.36C758.4 854.36 749.9 850.36 749.9 845.47C749.9 840.58 758.4 836.58 768.94 836.58C779.44 836.58 787.98 840.58 787.98 845.47C787.98 850.36 779.44 854.36 768.94 854.36Z" id="gr8EgRsXg"></path><path d="M803.75 863.74C793.21 863.74 784.71 859.74 784.71 854.86C784.71 849.97 793.21 846.01 803.75 846.01C814.25 846.01 822.79 849.97 822.79 854.86C822.79 859.74 814.25 863.74 803.75 863.74Z" id="ahzxIzCC"></path><path d="M803.75 863.74C793.21 863.74 784.71 859.74 784.71 854.86C784.71 849.97 793.21 846.01 803.75 846.01C814.25 846.01 822.79 849.97 822.79 854.86C822.79 859.74 814.25 863.74 803.75 863.74Z" id="bQapqYtU"></path><path d="M749.36 912.75C738.82 912.75 730.32 908.78 730.32 903.9C730.32 899.01 738.82 895.01 749.36 895.01C759.86 895.01 768.4 899.01 768.4 903.9C768.4 908.78 759.86 912.75 749.36 912.75Z" id="c4OHZ4EF2b"></path><path d="M749.36 912.75C738.82 912.75 730.32 908.78 730.32 903.9C730.32 899.01 738.82 895.01 749.36 895.01C759.86 895.01 768.4 899.01 768.4 903.9C768.4 908.78 759.86 912.75 749.36 912.75Z" id="c1b9qiDV6E"></path><path d="M711.28 912.75C700.78 912.75 692.24 908.78 692.24 903.9C692.24 899.01 700.78 895.01 711.28 895.01C721.78 895.01 730.32 899.01 730.32 903.9C730.32 908.78 721.78 912.75 711.28 912.75Z" id="b9EczfHQo"></path><path d="M711.28 912.75C700.78 912.75 692.24 908.78 692.24 903.9C692.24 899.01 700.78 895.01 711.28 895.01C721.78 895.01 730.32 899.01 730.32 903.9C730.32 908.78 721.78 912.75 711.28 912.75Z" id="a6x4Jb2ge"></path><path d="M231.65 360.26L231.65 670.33L610.69 670.33" id="d2SZPRt8m9"></path><path d="M231.65 360.26L231.65 670.33L610.69 670.33" id="biGeV2il7"></path><path d="M311.78 567.44C311.78 615.17 311.78 641.72 311.78 647.02C311.78 647.02 311.78 647.02 311.78 647.02C292.89 647.02 282.39 647.02 280.27 647.02C280.27 647.02 280.27 647.02 280.27 647.02C280.27 599.29 280.27 572.75 280.27 567.44C280.27 567.44 280.27 567.44 280.27 567.44C299.16 567.44 309.66 567.44 311.78 567.44C311.78 567.44 311.78 567.44 311.78 567.44Z" id="iBgOtuYqV"></path><path d="M311.78 567.44C311.78 615.17 311.78 641.72 311.78 647.02C311.78 647.02 311.78 647.02 311.78 647.02C292.89 647.02 282.39 647.02 280.27 647.02C280.27 647.02 280.27 647.02 280.27 647.02C280.27 599.29 280.27 572.75 280.27 567.44C280.27 567.44 280.27 567.44 280.27 567.44C299.16 567.44 309.66 567.44 311.78 567.44C311.78 567.44 311.78 567.44 311.78 567.44Z" id="b3mvWdzzRZ"></path><path d="M376.13 540.01C376.13 604.21 376.13 639.87 376.13 647.02C376.13 647.02 376.13 647.02 376.13 647.02C357.24 647.02 346.74 647.02 344.66 647.02C344.66 647.02 344.66 647.02 344.66 647.02C344.66 582.82 344.66 547.13 344.66 540.01C344.66 540.01 344.66 540.01 344.66 540.01C363.55 540.01 374.01 540.01 376.13 540.01C376.13 540.01 376.13 540.01 376.13 540.01Z" id="akAdQn4zd"></path><path d="M376.13 540.01C376.13 604.21 376.13 639.87 376.13 647.02C376.13 647.02 376.13 647.02 376.13 647.02C357.24 647.02 346.74 647.02 344.66 647.02C344.66 647.02 344.66 647.02 344.66 647.02C344.66 582.82 344.66 547.13 344.66 540.01C344.66 540.01 344.66 540.01 344.66 540.01C363.55 540.01 374.01 540.01 376.13 540.01C376.13 540.01 376.13 540.01 376.13 540.01Z" id="d2qZEy4ds"></path><path d="M440.48 507.09C440.48 591.06 440.48 637.68 440.48 647.02C440.48 647.02 440.48 647.02 440.48 647.02C421.6 647.02 411.13 647.02 409.02 647.02C409.02 647.02 409.02 647.02 409.02 647.02C409.02 563.05 409.02 516.39 409.02 507.09C409.02 507.09 409.02 507.09 409.02 507.09C427.9 507.09 438.4 507.09 440.48 507.09C440.48 507.09 440.48 507.09 440.48 507.09Z" id="a8UNxI9bOq"></path><path d="M440.48 507.09C440.48 591.06 440.48 637.68 440.48 647.02C440.48 647.02 440.48 647.02 440.48 647.02C421.6 647.02 411.13 647.02 409.02 647.02C409.02 647.02 409.02 647.02 409.02 647.02C409.02 563.05 409.02 516.39 409.02 507.09C409.02 507.09 409.02 507.09 409.02 507.09C427.9 507.09 438.4 507.09 440.48 507.09C440.48 507.09 440.48 507.09 440.48 507.09Z" id="b1ZV3EUITQ"></path><path d="M504.87 448.08C504.87 567.44 504.87 633.75 504.87 647.02C504.87 647.02 504.87 647.02 504.87 647.02C485.99 647.02 475.49 647.02 473.41 647.02C473.41 647.02 473.41 647.02 473.41 647.02C473.41 527.66 473.41 461.35 473.41 448.08C473.41 448.08 473.41 448.08 473.41 448.08C492.26 448.08 502.76 448.08 504.87 448.08C504.87 448.08 504.87 448.08 504.87 448.08Z" id="bXLNQOfIX"></path><path d="M504.87 448.08C504.87 567.44 504.87 633.75 504.87 647.02C504.87 647.02 504.87 647.02 504.87 647.02C485.99 647.02 475.49 647.02 473.41 647.02C473.41 647.02 473.41 647.02 473.41 647.02C473.41 527.66 473.41 461.35 473.41 448.08C473.41 448.08 473.41 448.08 473.41 448.08C492.26 448.08 502.76 448.08 504.87 448.08C504.87 448.08 504.87 448.08 504.87 448.08Z" id="d2qO6ajNrG"></path><path d="M569.23 401.42C569.23 548.78 569.23 630.64 569.23 647.02C569.23 647.02 569.23 647.02 569.23 647.02C550.34 647.02 539.88 647.02 537.76 647.02C537.76 647.02 537.76 647.02 537.76 647.02C537.76 499.66 537.76 417.81 537.76 401.42C537.76 401.42 537.76 401.42 537.76 401.42C556.65 401.42 567.15 401.42 569.23 401.42C569.23 401.42 569.23 401.42 569.23 401.42Z" id="aCoCgsOox"></path><path d="M569.23 401.42C569.23 548.78 569.23 630.64 569.23 647.02C569.23 647.02 569.23 647.02 569.23 647.02C550.34 647.02 539.88 647.02 537.76 647.02C537.76 647.02 537.76 647.02 537.76 647.02C537.76 499.66 537.76 417.81 537.76 401.42C537.76 401.42 537.76 401.42 537.76 401.42C556.65 401.42 567.15 401.42 569.23 401.42C569.23 401.42 569.23 401.42 569.23 401.42Z" id="c2rRyxw36D"></path><path d="M301.74 557.82C301.74 605.6 301.74 632.1 301.74 637.41C301.74 637.41 301.74 637.41 301.74 637.41C282.85 637.41 272.39 637.41 270.27 637.41C270.27 637.41 270.27 637.41 270.27 637.41C270.27 589.67 270.27 563.13 270.27 557.82C270.27 557.82 270.27 557.82 270.27 557.82C289.16 557.82 299.66 557.82 301.74 557.82C301.74 557.82 301.74 557.82 301.74 557.82Z" id="ayKsaPFtc"></path><path d="M301.74 557.82C301.74 605.6 301.74 632.1 301.74 637.41C301.74 637.41 301.74 637.41 301.74 637.41C282.85 637.41 272.39 637.41 270.27 637.41C270.27 637.41 270.27 637.41 270.27 637.41C270.27 589.67 270.27 563.13 270.27 557.82C270.27 557.82 270.27 557.82 270.27 557.82C289.16 557.82 299.66 557.82 301.74 557.82C301.74 557.82 301.74 557.82 301.74 557.82Z" id="dJzTJT8Yf"></path><path d="M366.13 530.4C366.13 594.6 366.13 630.29 366.13 637.41C366.13 637.41 366.13 637.41 366.13 637.41C347.24 637.41 336.74 637.41 334.66 637.41C334.66 637.41 334.66 637.41 334.66 637.41C334.66 573.21 334.66 537.55 334.66 530.4C334.66 530.4 334.66 530.4 334.66 530.4C353.51 530.4 364.01 530.4 366.13 530.4C366.13 530.4 366.13 530.4 366.13 530.4Z" id="h1BWtb4tp8"></path><path d="M366.13 530.4C366.13 594.6 366.13 630.29 366.13 637.41C366.13 637.41 366.13 637.41 366.13 637.41C347.24 637.41 336.74 637.41 334.66 637.41C334.66 637.41 334.66 637.41 334.66 637.41C334.66 573.21 334.66 537.55 334.66 530.4C334.66 530.4 334.66 530.4 334.66 530.4C353.51 530.4 364.01 530.4 366.13 530.4C366.13 530.4 366.13 530.4 366.13 530.4Z" id="a8Cwwmc1D"></path><path d="M430.48 497.47C430.48 581.44 430.48 628.1 430.48 637.41C430.48 637.41 430.48 637.41 430.48 637.41C411.59 637.41 401.09 637.41 399.02 637.41C399.02 637.41 399.02 637.41 399.02 637.41C399.02 553.44 399.02 506.82 399.02 497.47C399.02 497.47 399.02 497.47 399.02 497.47C417.9 497.47 428.37 497.47 430.48 497.47C430.48 497.47 430.48 497.47 430.48 497.47Z" id="b18mVUbFY"></path><path d="M430.48 497.47C430.48 581.44 430.48 628.1 430.48 637.41C430.48 637.41 430.48 637.41 430.48 637.41C411.59 637.41 401.09 637.41 399.02 637.41C399.02 637.41 399.02 637.41 399.02 637.41C399.02 553.44 399.02 506.82 399.02 497.47C399.02 497.47 399.02 497.47 399.02 497.47C417.9 497.47 428.37 497.47 430.48 497.47C430.48 497.47 430.48 497.47 430.48 497.47Z" id="cRAIiWZ5"></path><path d="M494.83 438.46C494.83 557.82 494.83 624.14 494.83 637.41C494.83 637.41 494.83 637.41 494.83 637.41C475.99 637.41 465.48 637.41 463.37 637.41C463.37 637.41 463.37 637.41 463.37 637.41C463.37 518.05 463.37 451.73 463.37 438.46C463.37 438.46 463.37 438.46 463.37 438.46C482.26 438.46 492.76 438.46 494.83 438.46C494.83 438.46 494.83 438.46 494.83 438.46Z" id="aifW4zrKH"></path><path d="M494.83 438.46C494.83 557.82 494.83 624.14 494.83 637.41C494.83 637.41 494.83 637.41 494.83 637.41C475.99 637.41 465.48 637.41 463.37 637.41C463.37 637.41 463.37 637.41 463.37 637.41C463.37 518.05 463.37 451.73 463.37 438.46C463.37 438.46 463.37 438.46 463.37 438.46C482.26 438.46 492.76 438.46 494.83 438.46C494.83 438.46 494.83 438.46 494.83 438.46Z" id="a2oQHTlnYC"></path><path d="M559.23 391.84C559.23 539.17 559.23 621.06 559.23 637.41C559.23 637.41 559.23 637.41 559.23 637.41C540.34 637.41 529.84 637.41 527.76 637.41C527.76 637.41 527.76 637.41 527.76 637.41C527.76 490.05 527.76 408.19 527.76 391.84C527.76 391.84 527.76 391.84 527.76 391.84C546.65 391.84 557.11 391.84 559.23 391.84C559.23 391.84 559.23 391.84 559.23 391.84Z" id="ahYx5Gxgx"></path><path d="M559.23 391.84C559.23 539.17 559.23 621.06 559.23 637.41C559.23 637.41 559.23 637.41 559.23 637.41C540.34 637.41 529.84 637.41 527.76 637.41C527.76 637.41 527.76 637.41 527.76 637.41C527.76 490.05 527.76 408.19 527.76 391.84C527.76 391.84 527.76 391.84 527.76 391.84C546.65 391.84 557.11 391.84 559.23 391.84C559.23 391.84 559.23 391.84 559.23 391.84Z" id="a1VkxWth4"></path></defs><g><g><g><use xlink:href="#a2hOIV6Ydl" opacity="1" fill="#fbbebe" fill-opacity="1"></use><g><use xlink:href="#a2hOIV6Ydl" opacity="1" fill-opacity="0" stroke="#000000" stroke-width="1" stroke-opacity="0"></use></g></g><g><use xlink:href="#e4pXmF3Jb" opacity="1" fill="#000000" fill-opacity="0"></use><g><use xlink:href="#e4pXmF3Jb" opacity="1" fill-opacity="0" stroke="#000000" stroke-width="1" stroke-opacity="0"></use></g></g><g><use xlink:href="#eWfsSALHd" opacity="1" fill="#3f3d56" fill-opacity="1"></use><g><use xlink:href="#eWfsSALHd" opacity="1" fill-opacity="0" stroke="#000000" stroke-width="1" stroke-opacity="0"></use></g></g><g><use xlink:href="#e4uSFeGc1" opacity="1" fill="#000000" fill-opacity="0"></use><g><use xlink:href="#e4uSFeGc1" opacity="1" fill-opacity="0" stroke="#000000" stroke-width="1" stroke-opacity="0"></use></g></g><g><use xlink:href="#dpYxT6Zbh" opacity="1" fill="#fbbebe" fill-opacity="1"></use><g><use xlink:href="#dpYxT6Zbh" opacity="1" fill-opacity="0" stroke="#000000" stroke-width="1" stroke-opacity="0"></use></g></g><g><use xlink:href="#a2D0zWKd98" opacity="1" fill="#000000" fill-opacity="0"></use><g><use xlink:href="#a2D0zWKd98" opacity="1" fill-opacity="0" stroke="#000000" stroke-width="1" stroke-opacity="0"></use></g></g><g><use xlink:href="#aT0n7padE" opacity="1" fill="#3f3d56" fill-opacity="1"></use><g><use xlink:href="#aT0n7padE" opacity="1" fill-opacity="0" stroke="#000000" stroke-width="1" stroke-opacity="0"></use></g></g><g><use xlink:href="#aBeRpbcOk" opacity="1" fill="#000000" fill-opacity="0"></use><g><use xlink:href="#aBeRpbcOk" opacity="1" fill-opacity="0" stroke="#000000" stroke-width="1" stroke-opacity="0"></use></g></g><g><use xlink:href="#b4A9Frvff5" opacity="1" fill="#3f3d56" fill-opacity="1"></use><g><use xlink:href="#b4A9Frvff5" opacity="1" fill-opacity="0" stroke="#000000" stroke-width="1" stroke-opacity="0"></use></g></g><g><use xlink:href="#aNiaA6TO" opacity="1" fill="#000000" fill-opacity="0"></use><g><use xlink:href="#aNiaA6TO" opacity="1" fill-opacity="0" stroke="#000000" stroke-width="1" stroke-opacity="0"></use></g></g><g><use xlink:href="#d2dOpwQzQp" opacity="1" fill="#3f3d56" fill-opacity="1"></use><g><use xlink:href="#d2dOpwQzQp" opacity="1" fill-opacity="0" stroke="#000000" stroke-width="1" stroke-opacity="0"></use></g></g><g><use xlink:href="#a98sTTQ44" opacity="1" fill="#000000" fill-opacity="0"></use><g><use xlink:href="#a98sTTQ44" opacity="1" fill-opacity="0" stroke="#000000" stroke-width="1" stroke-opacity="0"></use></g></g><g><use xlink:href="#aszFpzVp2" opacity="1" fill="#6c63ff" fill-opacity="1"></use><g><use xlink:href="#aszFpzVp2" opacity="1" fill-opacity="0" stroke="#000000" stroke-width="1" stroke-opacity="0"></use></g></g><g><use xlink:href="#b6LjxzA3l" opacity="1" fill="#eda219" fill-opacity="1"></use><g><use xlink:href="#b6LjxzA3l" opacity="1" fill-opacity="0" stroke="#000000" stroke-width="1" stroke-opacity="0"></use></g></g><g><use xlink:href="#brdspSQ83" opacity="1" fill="#6c63ff" fill-opacity="1"></use><g><use xlink:href="#brdspSQ83" opacity="1" fill-opacity="0" stroke="#000000" stroke-width="1" stroke-opacity="0"></use></g></g><g><use xlink:href="#a6JAjjXsu5" opacity="1" fill="#61e357" fill-opacity="1"></use><g><use xlink:href="#a6JAjjXsu5" opacity="1" fill-opacity="0" stroke="#000000" stroke-width="0" stroke-opacity="0"></use></g></g><g><use xlink:href="#b6LpDgTH8p" opacity="1" fill="#3c354c" fill-opacity="1"></use><g><use xlink:href="#b6LpDgTH8p" opacity="1" fill-opacity="0" stroke="#000000" stroke-width="1" stroke-opacity="0"></use></g></g><g><use xlink:href="#a84glx8kDY" opacity="1" fill="#000000" fill-opacity="0"></use><g><use xlink:href="#a84glx8kDY" opacity="1" fill-opacity="0" stroke="#000000" stroke-width="1" stroke-opacity="0"></use></g></g><g><use xlink:href="#b1mLzOSUSO" opacity="1" fill="#000000" fill-opacity="1"></use><g><use xlink:href="#b1mLzOSUSO" opacity="1" fill-opacity="0" stroke="#000000" stroke-width="1" stroke-opacity="0"></use></g></g><g><use xlink:href="#brYlMOKVz" opacity="1" fill="#000000" fill-opacity="0"></use><g><use xlink:href="#brYlMOKVz" opacity="1" fill-opacity="0" stroke="#000000" stroke-width="1" stroke-opacity="0"></use></g></g><g><use xlink:href="#b35q6GpyE1" opacity="1" fill="#000000" fill-opacity="0"></use><g><use xlink:href="#b35q6GpyE1" opacity="1" fill-opacity="0" stroke="#000000" stroke-width="1" stroke-opacity="0"></use></g></g><g><use xlink:href="#a8PV5159Q" opacity="1" fill="#000000" fill-opacity="0"></use><g><use xlink:href="#a8PV5159Q" opacity="1" fill-opacity="0" stroke="#a9a5a5" stroke-width="1" stroke-opacity="1"></use></g></g><g><use xlink:href="#b1JYvmDKJF" opacity="1" fill="#3f3d56" fill-opacity="1"></use><g><use xlink:href="#b1JYvmDKJF" opacity="1" fill-opacity="0" stroke="#000000" stroke-width="1" stroke-opacity="0"></use></g></g><g><use xlink:href="#a3OyuI1kX" opacity="1" fill="#000000" fill-opacity="0"></use><g><use xlink:href="#a3OyuI1kX" opacity="1" fill-opacity="0" stroke="#000000" stroke-width="1" stroke-opacity="0"></use></g></g><g><use xlink:href="#b2vnpdb4h4" opacity="1" fill="#3f3d56" fill-opacity="1"></use><g><use xlink:href="#b2vnpdb4h4" opacity="1" fill-opacity="0" stroke="#000000" stroke-width="1" stroke-opacity="0"></use></g></g><g><use xlink:href="#fWWz7CvMU" opacity="1" fill="#000000" fill-opacity="0"></use><g><use xlink:href="#fWWz7CvMU" opacity="1" fill-opacity="0" stroke="#000000" stroke-width="1" stroke-opacity="0"></use></g></g><g><use xlink:href="#c2uxFEefTt" opacity="1" fill="#000000" fill-opacity="1"></use><g><use xlink:href="#c2uxFEefTt" opacity="1" fill-opacity="0" stroke="#000000" stroke-width="1" stroke-opacity="0"></use></g></g><g><use xlink:href="#c8O9ecKxv" opacity="1" fill="#000000" fill-opacity="0"></use><g><use xlink:href="#c8O9ecKxv" opacity="1" fill-opacity="0" stroke="#000000" stroke-width="1" stroke-opacity="0"></use></g></g><g><use xlink:href="#a5llS5rYc" opacity="1" fill="#3f3d56" fill-opacity="1"></use><g><use xlink:href="#a5llS5rYc" opacity="1" fill-opacity="0" stroke="#000000" stroke-width="1" stroke-opacity="0"></use></g></g><g><use xlink:href="#cgd7ARd3f" opacity="1" fill="#000000" fill-opacity="0"></use><g><use xlink:href="#cgd7ARd3f" opacity="1" fill-opacity="0" stroke="#000000" stroke-width="1" stroke-opacity="0"></use></g></g><g><use xlink:href="#aiJXBuy6R" opacity="1" fill="#3c354c" fill-opacity="1"></use><g><use xlink:href="#aiJXBuy6R" opacity="1" fill-opacity="0" stroke="#000000" stroke-width="1" stroke-opacity="0"></use></g></g><g><use xlink:href="#aSjPDUuRe" opacity="1" fill="#000000" fill-opacity="0"></use><g><use xlink:href="#aSjPDUuRe" opacity="1" fill-opacity="0" stroke="#000000" stroke-width="1" stroke-opacity="0"></use></g></g><g><use xlink:href="#f38WoEQ2b5" opacity="1" fill="#fbbebe" fill-opacity="1"></use><g><use xlink:href="#f38WoEQ2b5" opacity="1" fill-opacity="0" stroke="#000000" stroke-width="1" stroke-opacity="0"></use></g></g><g><use xlink:href="#b3MSD4D6Br" opacity="1" fill="#000000" fill-opacity="0"></use><g><use xlink:href="#b3MSD4D6Br" opacity="1" fill-opacity="0" stroke="#000000" stroke-width="1" stroke-opacity="0"></use></g></g><g><use xlink:href="#dciA6RIqC" opacity="1" fill="#fbbebe" fill-opacity="1"></use><g><use xlink:href="#dciA6RIqC" opacity="1" fill-opacity="0" stroke="#000000" stroke-width="1" stroke-opacity="0"></use></g></g><g><use xlink:href="#f2X3jMS4Eq" opacity="1" fill="#000000" fill-opacity="0"></use><g><use xlink:href="#f2X3jMS4Eq" opacity="1" fill-opacity="0" stroke="#000000" stroke-width="1" stroke-opacity="0"></use></g></g><g><use xlink:href="#a8AEPCB80H" opacity="1" fill="#3f3d56" fill-opacity="1"></use><g><use xlink:href="#a8AEPCB80H" opacity="1" fill-opacity="0" stroke="#000000" stroke-width="1" stroke-opacity="0"></use></g></g><g><use xlink:href="#ctVXQGSEL" opacity="1" fill="#000000" fill-opacity="0"></use><g><use xlink:href="#ctVXQGSEL" opacity="1" fill-opacity="0" stroke="#000000" stroke-width="1" stroke-opacity="0"></use></g></g><g><use xlink:href="#eeVQ8rSBE" opacity="1" fill="#000000" fill-opacity="0"></use><g><use xlink:href="#eeVQ8rSBE" opacity="1" fill-opacity="0" stroke="#000000" stroke-width="1" stroke-opacity="0"></use></g></g><g><use xlink:href="#cVQlbVBEl" opacity="1" fill="#000000" fill-opacity="0"></use><g><use xlink:href="#cVQlbVBEl" opacity="1" fill-opacity="0" stroke="#ffffff" stroke-width="2" stroke-opacity="1"></use></g></g><g><use xlink:href="#d5XJsRBci" opacity="1" fill="#000000" fill-opacity="0"></use><g><use xlink:href="#d5XJsRBci" opacity="1" fill-opacity="0" stroke="#000000" stroke-width="1" stroke-opacity="0"></use></g></g><g><use xlink:href="#b4PNP0ibL" opacity="1" fill="#3f3d56" fill-opacity="1"></use><g><use xlink:href="#b4PNP0ibL" opacity="1" fill-opacity="0" stroke="#ffffff" stroke-width="2" stroke-opacity="1"></use></g></g><g><use xlink:href="#e1wT7TVtJO" opacity="1" fill="#c2ffbd" fill-opacity="1"></use><g><use xlink:href="#e1wT7TVtJO" opacity="1" fill-opacity="0" stroke="#000000" stroke-width="1" stroke-opacity="0"></use></g></g><g><use xlink:href="#b2UnRzq9NR" opacity="1" fill="#000000" fill-opacity="0"></use><g><use xlink:href="#b2UnRzq9NR" opacity="1" fill-opacity="0" stroke="#3f3d56" stroke-width="1" stroke-opacity="1"></use></g></g><g><use xlink:href="#c3eZpwBVb" opacity="1" fill="#000000" fill-opacity="0"></use><g><use xlink:href="#c3eZpwBVb" opacity="1" fill-opacity="0" stroke="#000000" stroke-width="1" stroke-opacity="0"></use></g></g><g><use xlink:href="#a9O2LGL8dw" opacity="1" fill="#000000" fill-opacity="0"></use><g><use xlink:href="#a9O2LGL8dw" opacity="1" fill-opacity="0" stroke="#3f3d56" stroke-width="1" stroke-opacity="1"></use></g></g><g><use xlink:href="#d8h7g1lQQn" opacity="1" fill="#000000" fill-opacity="0"></use><g><use xlink:href="#d8h7g1lQQn" opacity="1" fill-opacity="0" stroke="#000000" stroke-width="1" stroke-opacity="0"></use></g></g><g><use xlink:href="#d6lvC1UjK" opacity="1" fill="#000000" fill-opacity="0"></use><g><use xlink:href="#d6lvC1UjK" opacity="1" fill-opacity="0" stroke="#3f3d56" stroke-width="1" stroke-opacity="1"></use></g></g><g><use xlink:href="#b77w74QGtp" opacity="1" fill="#000000" fill-opacity="0"></use><g><use xlink:href="#b77w74QGtp" opacity="1" fill-opacity="0" stroke="#000000" stroke-width="1" stroke-opacity="0"></use></g></g><g><use xlink:href="#cO4G876xN" opacity="1" fill="#000000" fill-opacity="0"></use><g><use xlink:href="#cO4G876xN" opacity="1" fill-opacity="0" stroke="#3f3d56" stroke-width="1" stroke-opacity="1"></use></g></g><g><use xlink:href="#a2ynww6P7a" opacity="1" fill="#57b894" fill-opacity="1"></use><g><use xlink:href="#a2ynww6P7a" opacity="1" fill-opacity="0" stroke="#000000" stroke-width="1" stroke-opacity="0"></use></g></g><g><use xlink:href="#b1ox560HGa" opacity="1" fill="#000000" fill-opacity="0"></use><g><use xlink:href="#b1ox560HGa" opacity="1" fill-opacity="0" stroke="#000000" stroke-width="1" stroke-opacity="0"></use></g></g><g><use xlink:href="#b4GLTyH6G" opacity="1" fill="#57b894" fill-opacity="1"></use><g><use xlink:href="#b4GLTyH6G" opacity="1" fill-opacity="0" stroke="#000000" stroke-width="1" stroke-opacity="0"></use></g></g><g><use xlink:href="#f8xlEJMNH" opacity="1" fill="#000000" fill-opacity="0"></use><g><use xlink:href="#f8xlEJMNH" opacity="1" fill-opacity="0" stroke="#000000" stroke-width="1" stroke-opacity="0"></use></g></g><g><use xlink:href="#b9g27mO4Jc" opacity="1" fill="#57b894" fill-opacity="1"></use><g><use xlink:href="#b9g27mO4Jc" opacity="1" fill-opacity="0" stroke="#000000" stroke-width="1" stroke-opacity="0"></use></g></g><g><use xlink:href="#b1isILSscp" opacity="1" fill="#000000" fill-opacity="0"></use><g><use xlink:href="#b1isILSscp" opacity="1" fill-opacity="0" stroke="#000000" stroke-width="1" stroke-opacity="0"></use></g></g><g><use xlink:href="#h5VXDH6N0O" opacity="1" fill="#57b894" fill-opacity="1"></use><g><use xlink:href="#h5VXDH6N0O" opacity="1" fill-opacity="0" stroke="#000000" stroke-width="1" stroke-opacity="0"></use></g></g><g><use xlink:href="#ees64po0d" opacity="1" fill="#000000" fill-opacity="0"></use><g><use xlink:href="#ees64po0d" opacity="1" fill-opacity="0" stroke="#000000" stroke-width="1" stroke-opacity="0"></use></g></g><g><use xlink:href="#caoafHvpu" opacity="1" fill="#57b894" fill-opacity="1"></use><g><use xlink:href="#caoafHvpu" opacity="1" fill-opacity="0" stroke="#000000" stroke-width="1" stroke-opacity="0"></use></g></g><g><use xlink:href="#k3r4R3oTS5" opacity="1" fill="#000000" fill-opacity="0"></use><g><use xlink:href="#k3r4R3oTS5" opacity="1" fill-opacity="0" stroke="#000000" stroke-width="1" stroke-opacity="0"></use></g></g><g><use xlink:href="#a3bnXw02iR" opacity="1" fill="#000000" fill-opacity="0"></use><g><use xlink:href="#a3bnXw02iR" opacity="1" fill-opacity="0" stroke="#000000" stroke-width="1" stroke-opacity="0"></use></g></g><g><use xlink:href="#a16eQ49nA" opacity="1" fill="#000000" fill-opacity="0"></use><g><use xlink:href="#a16eQ49nA" opacity="1" fill-opacity="0" stroke="#3f3d56" stroke-width="1" stroke-opacity="1"></use></g></g><g><use xlink:href="#b4hdQAIQNG" opacity="1" fill="#57b894" fill-opacity="1"></use><g><use xlink:href="#b4hdQAIQNG" opacity="1" fill-opacity="0" stroke="#000000" stroke-width="1" stroke-opacity="0"></use></g></g><g><use xlink:href="#b2wQRDqCGB" opacity="1" fill="#000000" fill-opacity="0"></use><g><use xlink:href="#b2wQRDqCGB" opacity="1" fill-opacity="0" stroke="#000000" stroke-width="1" stroke-opacity="0"></use></g></g><g><use xlink:href="#d6oRYLfSHk" opacity="1" fill="#57b894" fill-opacity="1"></use><g><use xlink:href="#d6oRYLfSHk" opacity="1" fill-opacity="0" stroke="#000000" stroke-width="1" stroke-opacity="0"></use></g></g><g><use xlink:href="#c4KUKoAeei" opacity="1" fill="#000000" fill-opacity="0"></use><g><use xlink:href="#c4KUKoAeei" opacity="1" fill-opacity="0" stroke="#000000" stroke-width="1" stroke-opacity="0"></use></g></g><g><use xlink:href="#am2KJrprY" opacity="1" fill="#57b894" fill-opacity="1"></use><g><use xlink:href="#am2KJrprY" opacity="1" fill-opacity="0" stroke="#000000" stroke-width="1" stroke-opacity="0"></use></g></g><g><use xlink:href="#a4GWZ9f8B" opacity="1" fill="#000000" fill-opacity="0"></use><g><use xlink:href="#a4GWZ9f8B" opacity="1" fill-opacity="0" stroke="#000000" stroke-width="1" stroke-opacity="0"></use></g></g><g><use xlink:href="#a6KmAH2r0" opacity="1" fill="#57b894" fill-opacity="1"></use><g><use xlink:href="#a6KmAH2r0" opacity="1" fill-opacity="0" stroke="#000000" stroke-width="1" stroke-opacity="0"></use></g></g><g><use xlink:href="#bqVyIdYQ7" opacity="1" fill="#000000" fill-opacity="0"></use><g><use xlink:href="#bqVyIdYQ7" opacity="1" fill-opacity="0" stroke="#000000" stroke-width="1" stroke-opacity="0"></use></g></g><g><use xlink:href="#a3Bxkv2fjR" opacity="1" fill="#57b894" fill-opacity="1"></use><g><use xlink:href="#a3Bxkv2fjR" opacity="1" fill-opacity="0" stroke="#000000" stroke-width="1" stroke-opacity="0"></use></g></g><g><use xlink:href="#aIiMrgF65" opacity="1" fill="#000000" fill-opacity="0"></use><g><use xlink:href="#aIiMrgF65" opacity="1" fill-opacity="0" stroke="#000000" stroke-width="1" stroke-opacity="0"></use></g></g><g><use xlink:href="#a1xuxx0Cqr" opacity="1" fill="#000000" fill-opacity="0"></use><g><use xlink:href="#a1xuxx0Cqr" opacity="1" fill-opacity="0" stroke="#000000" stroke-width="1" stroke-opacity="0"></use></g></g><g><use xlink:href="#bNGiqki81" opacity="1" fill="#000000" fill-opacity="0"></use><g><use xlink:href="#bNGiqki81" opacity="1" fill-opacity="0" stroke="#3f3d56" stroke-width="1" stroke-opacity="1"></use></g></g><g><use xlink:href="#aLiYrSryn" opacity="1" fill="#57b894" fill-opacity="1"></use><g><use xlink:href="#aLiYrSryn" opacity="1" fill-opacity="0" stroke="#000000" stroke-width="1" stroke-opacity="0"></use></g></g><g><use xlink:href="#p1pczSiAYd" opacity="1" fill="#000000" fill-opacity="0"></use><g><use xlink:href="#p1pczSiAYd" opacity="1" fill-opacity="0" stroke="#000000" stroke-width="1" stroke-opacity="0"></use></g></g><g><use xlink:href="#jgwaa1lVU" opacity="1" fill="#57b894" fill-opacity="1"></use><g><use xlink:href="#jgwaa1lVU" opacity="1" fill-opacity="0" stroke="#000000" stroke-width="1" stroke-opacity="0"></use></g></g><g><use xlink:href="#gr8EgRsXg" opacity="1" fill="#000000" fill-opacity="0"></use><g><use xlink:href="#gr8EgRsXg" opacity="1" fill-opacity="0" stroke="#000000" stroke-width="1" stroke-opacity="0"></use></g></g><g><use xlink:href="#ahzxIzCC" opacity="1" fill="#57b894" fill-opacity="1"></use><g><use xlink:href="#ahzxIzCC" opacity="1" fill-opacity="0" stroke="#000000" stroke-width="1" stroke-opacity="0"></use></g></g><g><use xlink:href="#bQapqYtU" opacity="1" fill="#000000" fill-opacity="0"></use><g><use xlink:href="#bQapqYtU" opacity="1" fill-opacity="0" stroke="#000000" stroke-width="1" stroke-opacity="0"></use></g></g><g><use xlink:href="#c4OHZ4EF2b" opacity="1" fill="#57b894" fill-opacity="1"></use><g><use xlink:href="#c4OHZ4EF2b" opacity="1" fill-opacity="0" stroke="#000000" stroke-width="1" stroke-opacity="0"></use></g></g><g><use xlink:href="#c1b9qiDV6E" opacity="1" fill="#000000" fill-opacity="0"></use><g><use xlink:href="#c1b9qiDV6E" opacity="1" fill-opacity="0" stroke="#000000" stroke-width="1" stroke-opacity="0"></use></g></g><g><use xlink:href="#b9EczfHQo" opacity="1" fill="#57b894" fill-opacity="1"></use><g><use xlink:href="#b9EczfHQo" opacity="1" fill-opacity="0" stroke="#000000" stroke-width="1" stroke-opacity="0"></use></g></g><g><use xlink:href="#a6x4Jb2ge" opacity="1" fill="#000000" fill-opacity="0"></use><g><use xlink:href="#a6x4Jb2ge" opacity="1" fill-opacity="0" stroke="#000000" stroke-width="1" stroke-opacity="0"></use></g></g><g><use xlink:href="#d2SZPRt8m9" opacity="1" fill="#000000" fill-opacity="0"></use><g><use xlink:href="#d2SZPRt8m9" opacity="1" fill-opacity="0" stroke="#000000" stroke-width="1" stroke-opacity="0"></use></g></g><g><use xlink:href="#biGeV2il7" opacity="1" fill="#000000" fill-opacity="0"></use><g><use xlink:href="#biGeV2il7" opacity="1" fill-opacity="0" stroke="#3f3d56" stroke-width="1" stroke-opacity="1"></use></g></g><g><use xlink:href="#iBgOtuYqV" opacity="1" fill="#6c63ff" fill-opacity="1"></use><g><use xlink:href="#iBgOtuYqV" opacity="1" fill-opacity="0" stroke="#000000" stroke-width="1" stroke-opacity="0"></use></g></g><g><use xlink:href="#b3mvWdzzRZ" opacity="1" fill="#000000" fill-opacity="0"></use><g><use xlink:href="#b3mvWdzzRZ" opacity="1" fill-opacity="0" stroke="#000000" stroke-width="1" stroke-opacity="0"></use></g></g><g><use xlink:href="#akAdQn4zd" opacity="1" fill="#6c63ff" fill-opacity="1"></use><g><use xlink:href="#akAdQn4zd" opacity="1" fill-opacity="0" stroke="#000000" stroke-width="1" stroke-opacity="0"></use></g></g><g><use xlink:href="#d2qZEy4ds" opacity="1" fill="#000000" fill-opacity="0"></use><g><use xlink:href="#d2qZEy4ds" opacity="1" fill-opacity="0" stroke="#000000" stroke-width="1" stroke-opacity="0"></use></g></g><g><use xlink:href="#a8UNxI9bOq" opacity="1" fill="#6c63ff" fill-opacity="1"></use><g><use xlink:href="#a8UNxI9bOq" opacity="1" fill-opacity="0" stroke="#000000" stroke-width="1" stroke-opacity="0"></use></g></g><g><use xlink:href="#b1ZV3EUITQ" opacity="1" fill="#000000" fill-opacity="0"></use><g><use xlink:href="#b1ZV3EUITQ" opacity="1" fill-opacity="0" stroke="#000000" stroke-width="1" stroke-opacity="0"></use></g></g><g><use xlink:href="#bXLNQOfIX" opacity="1" fill="#6c63ff" fill-opacity="1"></use><g><use xlink:href="#bXLNQOfIX" opacity="1" fill-opacity="0" stroke="#000000" stroke-width="1" stroke-opacity="0"></use></g></g><g><use xlink:href="#d2qO6ajNrG" opacity="1" fill="#000000" fill-opacity="0"></use><g><use xlink:href="#d2qO6ajNrG" opacity="1" fill-opacity="0" stroke="#000000" stroke-width="1" stroke-opacity="0"></use></g></g><g><use xlink:href="#aCoCgsOox" opacity="1" fill="#6c63ff" fill-opacity="1"></use><g><use xlink:href="#aCoCgsOox" opacity="1" fill-opacity="0" stroke="#000000" stroke-width="1" stroke-opacity="0"></use></g></g><g><use xlink:href="#c2rRyxw36D" opacity="1" fill="#000000" fill-opacity="0"></use><g><use xlink:href="#c2rRyxw36D" opacity="1" fill-opacity="0" stroke="#000000" stroke-width="1" stroke-opacity="0"></use></g></g><g><use xlink:href="#ayKsaPFtc" opacity="1" fill="#000000" fill-opacity="0"></use><g><use xlink:href="#ayKsaPFtc" opacity="1" fill-opacity="0" stroke="#000000" stroke-width="1" stroke-opacity="0"></use></g></g><g><use xlink:href="#dJzTJT8Yf" opacity="1" fill="#000000" fill-opacity="0"></use><g><use xlink:href="#dJzTJT8Yf" opacity="1" fill-opacity="0" stroke="#3f3d56" stroke-width="1" stroke-opacity="1"></use></g></g><g><use xlink:href="#h1BWtb4tp8" opacity="1" fill="#000000" fill-opacity="0"></use><g><use xlink:href="#h1BWtb4tp8" opacity="1" fill-opacity="0" stroke="#000000" stroke-width="1" stroke-opacity="0"></use></g></g><g><use xlink:href="#a8Cwwmc1D" opacity="1" fill="#000000" fill-opacity="0"></use><g><use xlink:href="#a8Cwwmc1D" opacity="1" fill-opacity="0" stroke="#3f3d56" stroke-width="1" stroke-opacity="1"></use></g></g><g><use xlink:href="#b18mVUbFY" opacity="1" fill="#000000" fill-opacity="0"></use><g><use xlink:href="#b18mVUbFY" opacity="1" fill-opacity="0" stroke="#000000" stroke-width="1" stroke-opacity="0"></use></g></g><g><use xlink:href="#cRAIiWZ5" opacity="1" fill="#000000" fill-opacity="0"></use><g><use xlink:href="#cRAIiWZ5" opacity="1" fill-opacity="0" stroke="#3f3d56" stroke-width="1" stroke-opacity="1"></use></g></g><g><use xlink:href="#aifW4zrKH" opacity="1" fill="#000000" fill-opacity="0"></use><g><use xlink:href="#aifW4zrKH" opacity="1" fill-opacity="0" stroke="#000000" stroke-width="1" stroke-opacity="0"></use></g></g><g><use xlink:href="#a2oQHTlnYC" opacity="1" fill="#000000" fill-opacity="0"></use><g><use xlink:href="#a2oQHTlnYC" opacity="1" fill-opacity="0" stroke="#3f3d56" stroke-width="1" stroke-opacity="1"></use></g></g><g><use xlink:href="#ahYx5Gxgx" opacity="1" fill="#000000" fill-opacity="0"></use><g><use xlink:href="#ahYx5Gxgx" opacity="1" fill-opacity="0" stroke="#000000" stroke-width="1" stroke-opacity="0"></use></g></g><g><use xlink:href="#a1VkxWth4" opacity="1" fill="#000000" fill-opacity="0"></use><g><use xlink:href="#a1VkxWth4" opacity="1" fill-opacity="0" stroke="#3f3d56" stroke-width="1" stroke-opacity="1"></use></g></g></g></g></svg>