<?xml version="1.0" encoding="UTF-8" standalone="no"?>
<!DOCTYPE svg PUBLIC "-//W3C//DTD SVG 1.1//EN" "http://www.w3.org/Graphics/SVG/1.1/DTD/svg11.dtd">
<svg version="1.1" xmlns="http://www.w3.org/2000/svg" xmlns:xlink="http://www.w3.org/1999/xlink" preserveAspectRatio="xMidYMid meet" viewBox="97.1566060642215 123.28701653134935 297.40695901159836 243.1556878246535" width="293.41" height="239.16"><defs><path d="M355.75 262.58C355.75 262.58 347.15 263.13 345.62 262.03C345.62 262.03 337.59 263.5 337.02 264.96C337.02 264.96 346.19 266.61 347.72 266.61C347.72 266.61 356.51 268.81 356.51 268.81C356.36 267.56 355.9 263.82 355.75 262.58Z" id="l4pEwlBspt"></path><path d="M357.78 219.33C357.24 219.33 356.71 219.18 356.26 218.9C355.52 218.35 355.46 217.3 354.92 216.57C354.14 215.52 352.57 215.39 351.22 215.44C350.4 215.48 349.51 215.52 348.81 215.09C348.1 214.65 347.78 213.83 347.53 213.05C347.25 212.12 347.07 211 347.77 210.31C348.26 209.84 349.03 209.74 349.58 209.32C350.14 208.89 350.37 208.19 350.68 207.56C351.03 206.8 351.58 206.13 352.28 205.64C353.31 204.95 354.62 204.8 355.87 204.81C357.12 204.83 358.37 204.98 359.61 204.84C360.63 204.72 361.64 204.39 362.65 204.54C363.94 204.72 365.01 205.65 365.65 206.75C366.28 207.84 366.56 209.09 366.82 210.31C366.89 210.64 367.47 213.31 367.54 213.64C367.76 214.68 367.99 215.74 367.82 216.78C367.46 218.94 365.47 220.66 365.33 222.84C365.06 221.62 364.17 220.6 362.96 220.14C362.81 220.07 362.64 220.05 362.48 220.09C362.28 220.15 362.16 220.34 362.04 220.5C361.71 220.91 360.68 221.55 360.1 221.25C359.58 220.99 359.97 220.15 359.31 219.73C358.84 219.48 358.31 219.34 357.78 219.33Z" id="anl1GQu9Z"></path><path d="M379.06 253.96C379.06 253.96 380.4 262.03 374.86 261.3C374.86 261.3 371.99 260.93 371.61 261.3C371.23 261.66 357.08 259.28 355.17 257.26C355.17 257.26 352.88 256.53 351.73 257.63C350.59 258.73 339.12 259.83 342.56 256.53C346 253.23 351.35 252.5 351.35 252.5C352.08 252.53 357.89 252.83 358.61 252.86C358.61 252.86 362.44 253.96 364.73 252.86C364.73 252.86 373.52 252.13 373.52 252.13C374.63 252.5 377.95 253.6 379.06 253.96Z" id="d7nYRgTEv"></path><path d="M379.83 241.32C379.83 242.84 379.83 255.01 379.83 256.53C379.83 256.53 375.05 254.51 374.09 254.7C374.09 254.7 369.32 252.31 369.32 252.31C369.32 252.31 364.92 242.42 365.3 239.67C365.68 236.92 365.49 228.85 371.23 228.48C372.95 231.05 379.83 229.4 379.83 241.32Z" id="g1pruKjnDw"></path><path d="M350.11 214.28C350.11 216.3 353.4 217.94 357.47 217.94C361.53 217.94 364.82 216.3 364.82 214.28C364.82 212.25 361.53 210.61 357.47 210.61C353.4 210.61 350.11 212.25 350.11 214.28Z" id="b1ZwJUisSN"></path><path d="M361.77 214.92C361.77 218.31 362.92 221.06 364.35 221.06C365.77 221.06 366.93 218.31 366.93 214.92C366.93 211.53 365.77 208.78 364.35 208.78C362.92 208.78 361.77 211.53 361.77 214.92Z" id="f8pEfZV4"></path><path d="M333.94 244.17C345.2 246.97 351.96 257.99 349.04 268.79C348.74 269.93 348.33 271.04 347.82 272.11C346.54 271.55 340.15 268.75 328.66 263.72C331.47 253.3 333.23 246.78 333.94 244.17Z" id="a1rDh6SKXr"></path><path d="M324.13 266.85C335.63 271.88 342.02 274.68 343.29 275.24C338.47 285.39 325.97 289.86 315.39 285.23C304.81 280.6 300.14 268.62 304.97 258.47C309.21 249.55 319.52 244.84 329.42 247.3C328.71 249.91 326.95 256.42 324.13 266.85Z" id="aZSsZWNTm"></path><path d="M356.71 283.12C358.54 299.76 359.56 309 359.76 310.85C359.76 310.85 360.72 321.85 363.58 324.23C363.58 324.23 363.58 327.71 364.54 328.81C364.67 330.26 365.74 341.85 365.88 343.3C365.88 343.3 363.96 348.61 364.16 349.53C364.16 349.53 363.39 353.38 363.58 353.74C363.58 353.74 372.76 353.74 372.76 353.74C372.63 351.78 371.99 341.94 370.84 324.23L364.92 283.17L356.71 283.12Z" id="b7ROnP6F8"></path><path d="M356.71 283.12C358.54 299.76 359.56 309 359.76 310.85C359.76 310.85 360.72 321.85 363.58 324.23C363.58 324.23 363.58 327.71 364.54 328.81C364.67 330.26 365.74 341.85 365.88 343.3C365.88 343.3 363.96 348.61 364.16 349.53C364.16 349.53 363.39 353.38 363.58 353.74C363.58 353.74 372.76 353.74 372.76 353.74C372.63 351.78 371.99 341.94 370.84 324.23L364.92 283.17L356.71 283.12Z" id="b4lN6qm6y"></path><path d="M391.56 363.44L258.25 363.44" id="c3Y5DF27uE"></path><path d="M347.82 213.36C347.82 217.31 352.09 220.51 357.37 220.51C362.65 220.51 366.93 217.31 366.93 213.36C366.93 209.41 362.65 206.21 357.37 206.21C352.09 206.21 347.82 209.41 347.82 213.36Z" id="b1rJW1eeV5"></path><path d="M373.46 352.24C373.46 352.24 377.46 361.94 375.37 363.11C375.37 363.11 351.32 363.44 351.32 363.44C351.32 363.44 347.67 361.27 351.85 359.77C351.85 359.77 355.33 359.6 357.6 358.26C359.86 356.92 362.48 354.42 362.48 354.42C362.48 354.42 362.65 350.74 364.05 351.58C364.89 352.11 365.46 352.96 365.61 353.92C367.18 353.58 371.89 352.58 373.46 352.24Z" id="ex1kTXqa3"></path><path d="M373.46 352.24C373.46 352.24 377.46 361.94 375.37 363.11C375.37 363.11 351.32 363.44 351.32 363.44C351.32 363.44 347.67 361.27 351.85 359.77C351.85 359.77 355.33 359.6 357.6 358.26C359.86 356.92 362.48 354.42 362.48 354.42C362.48 354.42 362.65 350.74 364.05 351.58C364.89 352.11 365.46 352.96 365.61 353.92C367.18 353.58 371.89 352.58 373.46 352.24Z" id="a57fvNSdX6"></path><path d="M379.63 350.93C379.63 350.93 384.03 361.56 381.74 362.84C381.74 362.84 355.36 363.21 355.36 363.21C355.36 363.21 351.35 360.83 355.94 359.18C355.94 359.18 359.76 359 362.24 357.53C364.73 356.06 367.6 353.31 367.6 353.31C367.6 353.31 367.79 349.28 369.32 350.2C370.24 350.78 370.86 351.71 371.04 352.76C372.76 352.4 377.91 351.3 379.63 350.93Z" id="a2TLV26Mf"></path><path d="M361.86 282.74C361.86 282.74 363.96 301.62 364.92 305.65C365.52 308.31 365.9 311.01 366.07 313.72C366.07 313.72 366.26 319.59 367.98 321.24C368.99 322.2 369.55 323.53 369.51 324.9C369.51 324.9 371.23 343.41 370.27 345.61C370.27 345.61 368.02 350.67 368.97 352.14C368.97 352.14 380.78 352.58 380.78 351.48C380.78 351.48 380.78 349.46 381.35 348.91C381.35 348.91 381.35 344.88 381.35 344.88C381.35 344.88 383.65 328.57 381.55 323.8C381.55 323.8 378.49 306.02 378.49 306.02C378.49 306.02 380.02 291.17 381.93 288.79C381.93 288.79 381.55 277.98 381.55 277.98C377.61 278.93 365.8 281.79 361.86 282.74Z" id="eZ9XpjBSA"></path><path d="M366 225.12C363.2 226.61 360.85 228.75 358.54 230.88C359.11 229 358.99 226.99 358.19 225.19C357.91 224.58 357.55 223.92 357.75 223.28C357.94 222.82 358.28 222.43 358.72 222.17C359.66 221.47 360.65 220.82 361.67 220.23C362.39 219.82 363.86 218.73 364.68 218.85C364.72 219.91 364.74 220.86 365.23 221.86C365.35 222.09 367.16 224.3 367.24 224.11C367.02 224.6 366.49 224.87 366 225.12Z" id="ajtI4zSd5"></path><path d="M357.47 211.44C361.79 211.44 365.3 214.8 365.3 218.95C365.3 223.1 361.79 226.47 357.47 226.47C353.14 226.47 349.63 223.1 349.63 218.95C349.63 214.8 353.14 211.44 357.47 211.44Z" id="a4CVhvx549"></path><path d="M359.57 228.12C363.39 225.92 367.79 223.35 367.79 223.35C367.79 223.35 369.12 223.17 369.7 225.92C369.7 225.92 380.59 227.93 381.74 237.83C382.88 247.73 380.97 262.21 380.97 262.21C380.97 262.21 382.69 274.86 384.79 281.64C384.79 281.64 386.51 283.11 378.87 280.91C371.23 278.71 357.85 287.14 357.85 287.14C357.85 287.14 356.51 285.86 356.51 284.94C356.51 284.02 354.98 278.71 354.98 278.71C354.98 278.71 353.64 256.16 353.07 253.6C352.5 251.03 355.36 237.1 357.08 236.73C357.58 235.01 355.75 230.32 359.57 228.12Z" id="k34dAMHX0m"></path><path d="M110.43 342.76C110.43 342.76 188.89 298.89 290.04 342.76" id="a1rNNHch9I"></path><path d="M126.22 335.87C119.62 334.57 114.89 329 114.89 322.54C114.89 304.08 114.89 156.36 114.89 137.89C114.89 130.38 121.24 124.29 129.07 124.29C129.07 124.29 129.07 124.29 129.07 124.29C143.31 124.29 257.16 124.29 271.39 124.29C279.22 124.29 285.57 130.38 285.57 137.89C285.57 137.89 285.57 137.89 285.57 137.89C285.57 156.36 285.57 304.08 285.57 322.54C285.57 329.49 280.12 335.32 272.92 336.07" id="a7ECzxdybC"></path><path d="M275.35 146.21C275.35 146.21 275.35 146.21 275.35 146.21C275.35 247.02 275.35 303.02 275.35 314.22C275.35 314.22 275.35 314.22 275.35 314.22C184.32 314.22 133.74 314.22 123.63 314.22C123.63 314.22 123.63 314.22 123.63 314.22C123.63 213.42 123.63 157.41 123.63 146.21C123.63 146.21 123.63 146.21 123.63 146.21C214.66 146.21 265.23 146.21 275.35 146.21Z" id="a3uWH25U1x"></path><path d="M200.23 131.6C198.18 131.6 196.51 133.2 196.51 135.17C196.51 137.14 198.18 138.73 200.23 138.73C202.29 138.73 203.95 137.14 203.95 135.17C203.95 133.2 202.29 131.6 200.23 131.6Z" id="a4QJfSvJ2"></path><path d="M192.25 323.35C193.26 319.12 197.64 316.48 202.05 317.44C205.17 318.12 207.58 320.48 208.24 323.48" id="bbGA7JIgQ"></path><path d="M106.67 158.33C103.43 158.51 100.58 160.42 99.3 163.27C97.46 167.54 99.83 172.56 103.39 175.68C106.95 178.79 111.52 180.57 115.68 182.91C121.26 186.05 126.27 190.41 129.07 196.02C131.86 201.62 132.16 208.55 128.87 213.9C125.83 218.87 120.29 221.84 115 224.58" id="ddpUNjbbO"></path><path d="M117.87 158.71C117.87 160.38 114.95 161.74 111.36 161.74C107.76 161.74 104.85 160.38 104.85 158.71C104.85 157.03 107.76 155.67 111.36 155.67C114.95 155.67 117.87 157.03 117.87 158.71Z" id="m8KzeN28j"></path><path d="M123.07 178.68C123.07 180.35 120.16 181.71 116.56 181.71C112.97 181.71 110.06 180.35 110.06 178.68C110.06 177 112.97 175.65 116.56 175.65C120.16 175.65 123.07 177 123.07 178.68Z" id="a4u41KuPZ"></path><path d="M111.17 181.89C111.17 183.56 108.26 184.92 104.66 184.92C101.07 184.92 98.16 183.56 98.16 181.89C98.16 180.21 101.07 178.86 104.66 178.86C108.26 178.86 111.17 180.21 111.17 181.89Z" id="b3qWyQC13y"></path><path d="M129.76 198.65C129.76 200.33 126.85 201.68 123.26 201.68C119.66 201.68 116.75 200.33 116.75 198.65C116.75 196.98 119.66 195.62 123.26 195.62C126.85 195.62 129.76 196.98 129.76 198.65Z" id="byaVKz031"></path><path d="M142.78 198.65C142.78 200.33 139.87 201.68 136.27 201.68C132.68 201.68 129.76 200.33 129.76 198.65C129.76 196.98 132.68 195.62 136.27 195.62C139.87 195.62 142.78 196.98 142.78 198.65Z" id="b2guRW1Sk"></path><path d="M281.61 280.8C278.6 280.96 275.95 282.75 274.75 285.4C273.04 289.38 275.25 294.05 278.56 296.95C281.88 299.85 286.14 301.51 290 303.69C295.2 306.61 299.87 310.68 302.47 315.89C305.07 321.11 305.35 327.56 302.29 332.55C299.46 337.17 294.3 339.94 289.38 342.49" id="e1xkfnEFFJ"></path><path d="M292.04 281.15C292.04 282.71 289.33 283.97 285.98 283.97C282.63 283.97 279.92 282.71 279.92 281.15C279.92 279.59 282.63 278.33 285.98 278.33C289.33 278.33 292.04 279.59 292.04 281.15Z" id="hq0ieJT7t"></path><path d="M296.89 299.75C296.89 301.31 294.18 302.57 290.83 302.57C287.48 302.57 284.77 301.31 284.77 299.75C284.77 298.19 287.48 296.92 290.83 296.92C294.18 296.92 296.89 298.19 296.89 299.75Z" id="ldovrEPcA"></path><path d="M285.81 302.74C285.81 304.3 283.1 305.56 279.75 305.56C276.4 305.56 273.69 304.3 273.69 302.74C273.69 301.18 276.4 299.91 279.75 299.91C283.1 299.91 285.81 301.18 285.81 302.74Z" id="a1EWRpgjvp"></path><path d="M303.12 318.35C303.12 319.91 300.41 321.17 297.06 321.17C293.72 321.17 291 319.91 291 318.35C291 316.79 293.72 315.52 297.06 315.52C300.41 315.52 303.12 316.79 303.12 318.35Z" id="b6ry1sVMg3"></path><path d="M315.24 318.35C315.24 319.91 312.53 321.17 309.18 321.17C305.84 321.17 303.12 319.91 303.12 318.35C303.12 316.79 305.84 315.52 309.18 315.52C312.53 315.52 315.24 316.79 315.24 318.35Z" id="ar2mJwWQe"></path><path d="M296.31 292.21C298.76 292.34 300.93 293.8 301.91 295.96C303.31 299.21 301.5 303.03 298.8 305.4C296.09 307.76 292.61 309.12 289.45 310.9C285.21 313.29 281.39 316.6 279.27 320.86C277.15 325.12 276.92 330.4 279.42 334.47C281.73 338.24 285.95 340.5 289.96 342.59" id="c13BHvQCPv"></path><path d="M297.69 292.49C297.69 293.76 295.47 294.8 292.74 294.8C290 294.8 287.79 293.76 287.79 292.49C287.79 291.22 290 290.19 292.74 290.19C295.47 290.19 297.69 291.22 297.69 292.49Z" id="c9H57PECe"></path><path d="M293.73 307.68C293.73 308.95 291.51 309.99 288.78 309.99C286.04 309.99 283.83 308.95 283.83 307.68C283.83 306.41 286.04 305.37 288.78 305.37C291.51 305.37 293.73 306.41 293.73 307.68Z" id="b6mvs4U2P"></path><path d="M302.78 310.12C302.78 311.39 300.56 312.43 297.83 312.43C295.09 312.43 292.88 311.39 292.88 310.12C292.88 308.85 295.09 307.82 297.83 307.82C300.56 307.82 302.78 308.85 302.78 310.12Z" id="g1E7r4I8Z"></path><path d="M288.64 322.87C288.64 324.14 286.42 325.17 283.69 325.17C280.95 325.17 278.74 324.14 278.74 322.87C278.74 321.6 280.95 320.56 283.69 320.56C286.42 320.56 288.64 321.6 288.64 322.87Z" id="agqj5SFBe"></path><path d="M278.74 322.87C278.74 324.14 276.52 325.17 273.79 325.17C271.06 325.17 268.84 324.14 268.84 322.87C268.84 321.6 271.06 320.56 273.79 320.56C276.52 320.56 278.74 321.6 278.74 322.87Z" id="b40piin9Ex"></path><path d="M149.1 181.54L149.1 262.15L247.64 262.15" id="i2VZPvNdig"></path><path d="M169.93 235.4C169.93 235.4 169.93 235.4 169.93 235.4C169.93 247.81 169.93 254.71 169.93 256.09C169.93 256.09 169.93 256.09 169.93 256.09C165.02 256.09 162.29 256.09 161.74 256.09C161.74 256.09 161.74 256.09 161.74 256.09C161.74 243.68 161.74 236.78 161.74 235.4C161.74 235.4 161.74 235.4 161.74 235.4C166.65 235.4 169.38 235.4 169.93 235.4Z" id="a2bldho5Nk"></path><path d="M186.66 228.27C186.66 228.27 186.66 228.27 186.66 228.27C186.66 244.96 186.66 254.23 186.66 256.09C186.66 256.09 186.66 256.09 186.66 256.09C181.75 256.09 179.02 256.09 178.48 256.09C178.48 256.09 178.48 256.09 178.48 256.09C178.48 239.4 178.48 230.12 178.48 228.27C178.48 228.27 178.48 228.27 178.48 228.27C183.39 228.27 186.11 228.27 186.66 228.27Z" id="fbqwoHH7Y"></path><path d="M203.39 219.71C203.39 219.71 203.39 219.71 203.39 219.71C203.39 241.54 203.39 253.66 203.39 256.09C203.39 256.09 203.39 256.09 203.39 256.09C198.48 256.09 195.76 256.09 195.21 256.09C195.21 256.09 195.21 256.09 195.21 256.09C195.21 234.26 195.21 222.13 195.21 219.71C195.21 219.71 195.21 219.71 195.21 219.71C200.12 219.71 202.85 219.71 203.39 219.71Z" id="bSljUINXj"></path><path d="M220.13 204.37C220.13 204.37 220.13 204.37 220.13 204.37C220.13 235.4 220.13 252.64 220.13 256.09C220.13 256.09 220.13 256.09 220.13 256.09C215.22 256.09 212.49 256.09 211.95 256.09C211.95 256.09 211.95 256.09 211.95 256.09C211.95 225.06 211.95 207.82 211.95 204.37C211.95 204.37 211.95 204.37 211.95 204.37C216.85 204.37 219.58 204.37 220.13 204.37Z" id="gbdkn4yf4"></path><path d="M236.86 192.24C236.86 192.24 236.86 192.24 236.86 192.24C236.86 230.55 236.86 251.83 236.86 256.09C236.86 256.09 236.86 256.09 236.86 256.09C231.95 256.09 229.23 256.09 228.68 256.09C228.68 256.09 228.68 256.09 228.68 256.09C228.68 217.78 228.68 196.5 228.68 192.24C228.68 192.24 228.68 192.24 228.68 192.24C233.59 192.24 236.32 192.24 236.86 192.24Z" id="a557omm2hv"></path><path d="M167.32 232.9C167.32 232.9 167.32 232.9 167.32 232.9C167.32 245.32 167.32 252.21 167.32 253.59C167.32 253.59 167.32 253.59 167.32 253.59C162.41 253.59 159.69 253.59 159.14 253.59C159.14 253.59 159.14 253.59 159.14 253.59C159.14 241.18 159.14 234.28 159.14 232.9C159.14 232.9 159.14 232.9 159.14 232.9C164.05 232.9 166.78 232.9 167.32 232.9Z" id="a3ClxgcV6"></path><path d="M184.06 225.77C184.06 225.77 184.06 225.77 184.06 225.77C184.06 242.46 184.06 251.74 184.06 253.59C184.06 253.59 184.06 253.59 184.06 253.59C179.15 253.59 176.42 253.59 175.88 253.59C175.88 253.59 175.88 253.59 175.88 253.59C175.88 236.9 175.88 227.63 175.88 225.77C175.88 225.77 175.88 225.77 175.88 225.77C180.78 225.77 183.51 225.77 184.06 225.77Z" id="a1PqX0lifn"></path><path d="M200.79 217.21C200.79 217.21 200.79 217.21 200.79 217.21C200.79 239.04 200.79 251.17 200.79 253.59C200.79 253.59 200.79 253.59 200.79 253.59C195.88 253.59 193.15 253.59 192.61 253.59C192.61 253.59 192.61 253.59 192.61 253.59C192.61 231.76 192.61 219.64 192.61 217.21C192.61 217.21 192.61 217.21 192.61 217.21C197.52 217.21 200.24 217.21 200.79 217.21Z" id="cyygv8sS7"></path><path d="M217.52 201.87C217.52 201.87 217.52 201.87 217.52 201.87C217.52 232.9 217.52 250.14 217.52 253.59C217.52 253.59 217.52 253.59 217.52 253.59C212.62 253.59 209.89 253.59 209.34 253.59C209.34 253.59 209.34 253.59 209.34 253.59C209.34 222.56 209.34 205.32 209.34 201.87C209.34 201.87 209.34 201.87 209.34 201.87C214.25 201.87 216.98 201.87 217.52 201.87Z" id="b7rSjrMpr"></path><path d="M234.26 189.75C234.26 189.75 234.26 189.75 234.26 189.75C234.26 228.05 234.26 249.34 234.26 253.59C234.26 253.59 234.26 253.59 234.26 253.59C229.35 253.59 226.62 253.59 226.08 253.59C226.08 253.59 226.08 253.59 226.08 253.59C226.08 215.28 226.08 194 226.08 189.75C226.08 189.75 226.08 189.75 226.08 189.75C230.99 189.75 233.71 189.75 234.26 189.75Z" id="b2QgjI22r4"></path></defs><g><g><use xlink:href="#l4pEwlBspt" opacity="1" fill="#fbbebe" fill-opacity="1"></use><g><use xlink:href="#l4pEwlBspt" opacity="1" fill-opacity="0" stroke="#000000" stroke-width="1" stroke-opacity="0"></use></g></g><g><use xlink:href="#anl1GQu9Z" opacity="1" fill="#3f3d56" fill-opacity="1"></use><g><use xlink:href="#anl1GQu9Z" opacity="1" fill-opacity="0" stroke="#000000" stroke-width="1" stroke-opacity="0"></use></g></g><g><use xlink:href="#d7nYRgTEv" opacity="1" fill="#fbbebe" fill-opacity="1"></use><g><use xlink:href="#d7nYRgTEv" opacity="1" fill-opacity="0" stroke="#000000" stroke-width="1" stroke-opacity="0"></use></g></g><g><use xlink:href="#g1pruKjnDw" opacity="1" fill="#3f3d56" fill-opacity="1"></use><g><use xlink:href="#g1pruKjnDw" opacity="1" fill-opacity="0" stroke="#000000" stroke-width="1" stroke-opacity="0"></use></g></g><g><use xlink:href="#b1ZwJUisSN" opacity="1" fill="#3f3d56" fill-opacity="1"></use><g><use xlink:href="#b1ZwJUisSN" opacity="1" fill-opacity="0" stroke="#000000" stroke-width="1" stroke-opacity="0"></use></g></g><g><use xlink:href="#f8pEfZV4" opacity="1" fill="#3f3d56" fill-opacity="1"></use><g><use xlink:href="#f8pEfZV4" opacity="1" fill-opacity="0" stroke="#000000" stroke-width="1" stroke-opacity="0"></use></g></g><g><use xlink:href="#a1rDh6SKXr" opacity="1" fill="#6c63ff" fill-opacity="1"></use><g><use xlink:href="#a1rDh6SKXr" opacity="1" fill-opacity="0" stroke="#000000" stroke-width="1" stroke-opacity="0"></use></g></g><g><use xlink:href="#aZSsZWNTm" opacity="1" fill="#6c63ff" fill-opacity="1"></use><g><use xlink:href="#aZSsZWNTm" opacity="1" fill-opacity="0" stroke="#000000" stroke-width="1" stroke-opacity="0"></use></g></g><g><use xlink:href="#b7ROnP6F8" opacity="1" fill="#3c354c" fill-opacity="1"></use><g><use xlink:href="#b7ROnP6F8" opacity="1" fill-opacity="0" stroke="#000000" stroke-width="1" stroke-opacity="0"></use></g></g><g><use xlink:href="#b4lN6qm6y" opacity="1" fill="#000000" fill-opacity="1"></use><g><use xlink:href="#b4lN6qm6y" opacity="1" fill-opacity="0" stroke="#000000" stroke-width="1" stroke-opacity="0"></use></g></g><g><use xlink:href="#c3Y5DF27uE" opacity="1" fill="#000000" fill-opacity="0"></use><g><use xlink:href="#c3Y5DF27uE" opacity="1" fill-opacity="0" stroke="#3f3d56" stroke-width="1" stroke-opacity="1"></use></g></g><g><use xlink:href="#b1rJW1eeV5" opacity="1" fill="#3f3d56" fill-opacity="1"></use><g><use xlink:href="#b1rJW1eeV5" opacity="1" fill-opacity="0" stroke="#000000" stroke-width="1" stroke-opacity="0"></use></g></g><g><use xlink:href="#ex1kTXqa3" opacity="1" fill="#3f3d56" fill-opacity="1"></use><g><use xlink:href="#ex1kTXqa3" opacity="1" fill-opacity="0" stroke="#000000" stroke-width="1" stroke-opacity="0"></use></g></g><g><use xlink:href="#a57fvNSdX6" opacity="1" fill="#000000" fill-opacity="1"></use><g><use xlink:href="#a57fvNSdX6" opacity="1" fill-opacity="0" stroke="#000000" stroke-width="1" stroke-opacity="0"></use></g></g><g><use xlink:href="#a2TLV26Mf" opacity="1" fill="#3f3d56" fill-opacity="1"></use><g><use xlink:href="#a2TLV26Mf" opacity="1" fill-opacity="0" stroke="#000000" stroke-width="1" stroke-opacity="0"></use></g></g><g><use xlink:href="#eZ9XpjBSA" opacity="1" fill="#3c354c" fill-opacity="1"></use><g><use xlink:href="#eZ9XpjBSA" opacity="1" fill-opacity="0" stroke="#000000" stroke-width="1" stroke-opacity="0"></use></g></g><g><use xlink:href="#ajtI4zSd5" opacity="1" fill="#fbbebe" fill-opacity="1"></use><g><use xlink:href="#ajtI4zSd5" opacity="1" fill-opacity="0" stroke="#000000" stroke-width="1" stroke-opacity="0"></use></g></g><g><use xlink:href="#a4CVhvx549" opacity="1" fill="#fbbebe" fill-opacity="1"></use><g><use xlink:href="#a4CVhvx549" opacity="1" fill-opacity="0" stroke="#000000" stroke-width="1" stroke-opacity="0"></use></g></g><g><use xlink:href="#k34dAMHX0m" opacity="1" fill="#3f3d56" fill-opacity="1"></use><g><use xlink:href="#k34dAMHX0m" opacity="1" fill-opacity="0" stroke="#000000" stroke-width="1" stroke-opacity="0"></use></g></g><g><use xlink:href="#a1rNNHch9I" opacity="1" fill="#000000" fill-opacity="0"></use><g><use xlink:href="#a1rNNHch9I" opacity="1" fill-opacity="0" stroke="#3f3d56" stroke-width="1" stroke-opacity="1"></use></g></g><g><use xlink:href="#a7ECzxdybC" opacity="1" fill="#000000" fill-opacity="0"></use><g><use xlink:href="#a7ECzxdybC" opacity="1" fill-opacity="0" stroke="#3f3d56" stroke-width="1" stroke-opacity="1"></use></g></g><g><use xlink:href="#a3uWH25U1x" opacity="1" fill="#c2ffbd" fill-opacity="1"></use><g><use xlink:href="#a3uWH25U1x" opacity="1" fill-opacity="0" stroke="#3f3d56" stroke-width="1" stroke-opacity="1"></use></g></g><g><use xlink:href="#a4QJfSvJ2" opacity="1" fill="#000000" fill-opacity="0"></use><g><use xlink:href="#a4QJfSvJ2" opacity="1" fill-opacity="0" stroke="#3f3d56" stroke-width="1" stroke-opacity="1"></use></g></g><g><use xlink:href="#bbGA7JIgQ" opacity="1" fill="#000000" fill-opacity="0"></use><g><use xlink:href="#bbGA7JIgQ" opacity="1" fill-opacity="0" stroke="#3f3d56" stroke-width="1" stroke-opacity="1"></use></g></g><g><use xlink:href="#ddpUNjbbO" opacity="1" fill="#000000" fill-opacity="0"></use><g><use xlink:href="#ddpUNjbbO" opacity="1" fill-opacity="0" stroke="#3f3d56" stroke-width="1" stroke-opacity="1"></use></g></g><g><use xlink:href="#m8KzeN28j" opacity="1" fill="#57b894" fill-opacity="1"></use><g><use xlink:href="#m8KzeN28j" opacity="1" fill-opacity="0" stroke="#000000" stroke-width="1" stroke-opacity="0"></use></g></g><g><use xlink:href="#a4u41KuPZ" opacity="1" fill="#57b894" fill-opacity="1"></use><g><use xlink:href="#a4u41KuPZ" opacity="1" fill-opacity="0" stroke="#000000" stroke-width="1" stroke-opacity="0"></use></g></g><g><use xlink:href="#b3qWyQC13y" opacity="1" fill="#57b894" fill-opacity="1"></use><g><use xlink:href="#b3qWyQC13y" opacity="1" fill-opacity="0" stroke="#000000" stroke-width="1" stroke-opacity="0"></use></g></g><g><use xlink:href="#byaVKz031" opacity="1" fill="#57b894" fill-opacity="1"></use><g><use xlink:href="#byaVKz031" opacity="1" fill-opacity="0" stroke="#000000" stroke-width="1" stroke-opacity="0"></use></g></g><g><use xlink:href="#b2guRW1Sk" opacity="1" fill="#57b894" fill-opacity="1"></use><g><use xlink:href="#b2guRW1Sk" opacity="1" fill-opacity="0" stroke="#000000" stroke-width="1" stroke-opacity="0"></use></g></g><g><use xlink:href="#e1xkfnEFFJ" opacity="1" fill="#000000" fill-opacity="0"></use><g><use xlink:href="#e1xkfnEFFJ" opacity="1" fill-opacity="0" stroke="#3f3d56" stroke-width="1" stroke-opacity="1"></use></g></g><g><use xlink:href="#hq0ieJT7t" opacity="1" fill="#57b894" fill-opacity="1"></use><g><use xlink:href="#hq0ieJT7t" opacity="1" fill-opacity="0" stroke="#000000" stroke-width="1" stroke-opacity="0"></use></g></g><g><use xlink:href="#ldovrEPcA" opacity="1" fill="#57b894" fill-opacity="1"></use><g><use xlink:href="#ldovrEPcA" opacity="1" fill-opacity="0" stroke="#000000" stroke-width="1" stroke-opacity="0"></use></g></g><g><use xlink:href="#a1EWRpgjvp" opacity="1" fill="#57b894" fill-opacity="1"></use><g><use xlink:href="#a1EWRpgjvp" opacity="1" fill-opacity="0" stroke="#000000" stroke-width="1" stroke-opacity="0"></use></g></g><g><use xlink:href="#b6ry1sVMg3" opacity="1" fill="#57b894" fill-opacity="1"></use><g><use xlink:href="#b6ry1sVMg3" opacity="1" fill-opacity="0" stroke="#000000" stroke-width="1" stroke-opacity="0"></use></g></g><g><use xlink:href="#ar2mJwWQe" opacity="1" fill="#57b894" fill-opacity="1"></use><g><use xlink:href="#ar2mJwWQe" opacity="1" fill-opacity="0" stroke="#000000" stroke-width="1" stroke-opacity="0"></use></g></g><g><use xlink:href="#c13BHvQCPv" opacity="1" fill="#000000" fill-opacity="0"></use><g><use xlink:href="#c13BHvQCPv" opacity="1" fill-opacity="0" stroke="#3f3d56" stroke-width="1" stroke-opacity="1"></use></g></g><g><use xlink:href="#c9H57PECe" opacity="1" fill="#57b894" fill-opacity="1"></use><g><use xlink:href="#c9H57PECe" opacity="1" fill-opacity="0" stroke="#000000" stroke-width="1" stroke-opacity="0"></use></g></g><g><use xlink:href="#b6mvs4U2P" opacity="1" fill="#57b894" fill-opacity="1"></use><g><use xlink:href="#b6mvs4U2P" opacity="1" fill-opacity="0" stroke="#000000" stroke-width="1" stroke-opacity="0"></use></g></g><g><use xlink:href="#g1E7r4I8Z" opacity="1" fill="#57b894" fill-opacity="1"></use><g><use xlink:href="#g1E7r4I8Z" opacity="1" fill-opacity="0" stroke="#000000" stroke-width="1" stroke-opacity="0"></use></g></g><g><use xlink:href="#agqj5SFBe" opacity="1" fill="#57b894" fill-opacity="1"></use><g><use xlink:href="#agqj5SFBe" opacity="1" fill-opacity="0" stroke="#000000" stroke-width="1" stroke-opacity="0"></use></g></g><g><use xlink:href="#b40piin9Ex" opacity="1" fill="#57b894" fill-opacity="1"></use><g><use xlink:href="#b40piin9Ex" opacity="1" fill-opacity="0" stroke="#000000" stroke-width="1" stroke-opacity="0"></use></g></g><g><use xlink:href="#i2VZPvNdig" opacity="1" fill="#000000" fill-opacity="0"></use><g><use xlink:href="#i2VZPvNdig" opacity="1" fill-opacity="0" stroke="#3f3d56" stroke-width="1" stroke-opacity="1"></use></g></g><g><use xlink:href="#a2bldho5Nk" opacity="1" fill="#6c63ff" fill-opacity="1"></use><g><use xlink:href="#a2bldho5Nk" opacity="1" fill-opacity="0" stroke="#000000" stroke-width="1" stroke-opacity="0"></use></g></g><g><use xlink:href="#fbqwoHH7Y" opacity="1" fill="#6c63ff" fill-opacity="1"></use><g><use xlink:href="#fbqwoHH7Y" opacity="1" fill-opacity="0" stroke="#000000" stroke-width="1" stroke-opacity="0"></use></g></g><g><use xlink:href="#bSljUINXj" opacity="1" fill="#6c63ff" fill-opacity="1"></use><g><use xlink:href="#bSljUINXj" opacity="1" fill-opacity="0" stroke="#000000" stroke-width="1" stroke-opacity="0"></use></g></g><g><use xlink:href="#gbdkn4yf4" opacity="1" fill="#6c63ff" fill-opacity="1"></use><g><use xlink:href="#gbdkn4yf4" opacity="1" fill-opacity="0" stroke="#000000" stroke-width="1" stroke-opacity="0"></use></g></g><g><use xlink:href="#a557omm2hv" opacity="1" fill="#6c63ff" fill-opacity="1"></use><g><use xlink:href="#a557omm2hv" opacity="1" fill-opacity="0" stroke="#000000" stroke-width="1" stroke-opacity="0"></use></g></g><g><use xlink:href="#a3ClxgcV6" opacity="1" fill="#000000" fill-opacity="0"></use><g><use xlink:href="#a3ClxgcV6" opacity="1" fill-opacity="0" stroke="#3f3d56" stroke-width="1" stroke-opacity="1"></use></g></g><g><use xlink:href="#a1PqX0lifn" opacity="1" fill="#000000" fill-opacity="0"></use><g><use xlink:href="#a1PqX0lifn" opacity="1" fill-opacity="0" stroke="#3f3d56" stroke-width="1" stroke-opacity="1"></use></g></g><g><use xlink:href="#cyygv8sS7" opacity="1" fill="#000000" fill-opacity="0"></use><g><use xlink:href="#cyygv8sS7" opacity="1" fill-opacity="0" stroke="#3f3d56" stroke-width="1" stroke-opacity="1"></use></g></g><g><use xlink:href="#b7rSjrMpr" opacity="1" fill="#000000" fill-opacity="0"></use><g><use xlink:href="#b7rSjrMpr" opacity="1" fill-opacity="0" stroke="#3f3d56" stroke-width="1" stroke-opacity="1"></use></g></g><g><use xlink:href="#b2QgjI22r4" opacity="1" fill="#000000" fill-opacity="0"></use><g><use xlink:href="#b2QgjI22r4" opacity="1" fill-opacity="0" stroke="#3f3d56" stroke-width="1" stroke-opacity="1"></use></g></g></g></svg>