<?xml version="1.0" encoding="UTF-8" standalone="no"?>
<!DOCTYPE svg PUBLIC "-//W3C//DTD SVG 1.1//EN" "http://www.w3.org/Graphics/SVG/1.1/DTD/svg11.dtd">
<svg version="1.1" xmlns="http://www.w3.org/2000/svg" xmlns:xlink="http://www.w3.org/1999/xlink" preserveAspectRatio="xMidYMid meet" viewBox="0 0 700 700" width="700" height="700"><defs><path d="M271.57 56.07C159.44 56.07 68.55 146.97 68.55 259.09C68.55 371.22 159.44 462.11 271.57 462.11C383.69 462.11 474.58 371.22 474.58 259.09C474.58 146.97 383.69 56.07 271.57 56.07Z" id="avjQpiTY"></path><path d="M272.05 446.76C272.05 446.76 357.09 422.72 401.95 353.91C446.82 285.11 434.52 197.6 434.52 197.6C434.52 197.6 349.49 221.64 304.62 290.45C259.76 359.25 278.57 415.5 272.05 446.76Z" id="a3oPc2oakz"></path><path d="M268.71 445.38C267.11 445.05 264.9 444.59 262.2 443.95C238.1 438.27 174.04 419.06 132.15 368.56C79.72 305.33 81.93 216.99 81.93 216.99C81.93 216.99 162.09 230.02 214.91 286.8C218.35 290.46 220.93 293.63 221.59 294.39C267.21 349.4 271.46 423.43 271.8 441.73C271.85 444.47 271.81 445.96 271.81 445.96C271.19 445.84 270.72 445.79 268.71 445.38Z" id="c2RKvgFch0"></path><path d="M272.05 446.76C272.05 446.76 187.02 422.72 142.15 353.91C97.29 285.11 109.58 197.6 109.58 197.6C109.58 197.6 194.61 221.64 239.48 290.45C284.34 359.25 265.54 415.5 272.05 446.76Z" id="a1yTAhG8Wu"></path><path d="M268.71 445.38C266.8 447.55 265.72 448.69 265.72 448.69C265.72 448.69 264.41 447.04 262.2 443.95C250.08 427.06 211.1 366.98 214.11 297.59C214.36 292.14 214.83 287.88 214.91 286.8C218.35 290.46 220.93 293.63 221.59 294.39C267.21 349.4 271.46 423.43 271.8 441.73C270.62 443.16 269.57 444.38 268.71 445.38Z" id="a95OsjrXm"></path><path d="M273.86 448.69C273.86 448.69 218.69 379.66 222.24 297.6C225.79 215.53 286.7 151.52 286.7 151.52C286.7 151.52 341.87 220.55 338.32 302.61C334.78 384.67 286.75 419.47 273.86 448.69Z" id="m145KRG8LT"></path><path d="M273.86 446.37L287.25 154.86" id="bwPBUeDX4"></path><path d="M663.83 453.56C663.83 464.27 523.32 472.96 350 472.96C176.68 472.96 36.17 464.27 36.17 453.56C36.17 442.85 176.68 434.16 350 434.16C523.32 434.16 663.83 442.85 663.83 453.56Z" id="a1zA6USZxb"></path><path d="M88.27 446.43L88.27 368.09" id="aanG4fViB"></path><path d="M88.27 357.01C82.15 357.01 77.19 361.97 77.19 368.09C77.19 374.21 82.15 379.17 88.27 379.17C94.38 379.17 99.34 374.21 99.34 368.09C99.34 361.97 94.38 357.01 88.27 357.01Z" id="b1fTLfqv42"></path><path d="M88.27 416.37C88.27 416.37 86.68 382.33 54.24 386.29" id="d18vfvv3PG"></path><path d="M358.09 318.53L358.09 99.13" id="d1OEbHiocq"></path><path d="M358.09 83.89C349.67 83.89 342.85 90.71 342.85 99.13C342.85 107.55 349.67 114.37 358.09 114.37C366.5 114.37 373.32 107.55 373.32 99.13C373.32 90.71 366.5 83.89 358.09 83.89Z" id="a9mdYOYfc"></path><path d="M358.09 161.19C358.09 161.19 355.91 114.37 311.28 119.81" id="a2vWRZXiN"></path><path d="M527.9 222.05C527.9 222.05 432.25 240.36 444.46 268.85C456.67 297.35 470.41 339.07 477.53 338.05C484.66 337.03 523.83 314.64 525.36 308.03C526.89 301.42 490.25 270.38 490.25 270.38C496.31 269.21 544.74 259.85 550.8 258.68C550.8 258.68 559.45 299.38 548.25 327.36C548.25 327.36 530.45 431.15 538.08 432.17C538.08 432.17 565.04 439.29 573.69 433.7C573.69 433.7 586.41 305.49 586.41 305.49C586.41 305.49 604.73 225.1 593.54 215.94C582.34 206.78 541.13 197.12 541.13 197.12C538.49 202.1 529.23 219.55 527.9 222.05Z" id="c42WDWRlBS"></path><path d="M561.92 419.81C561.92 419.81 550.23 413.66 547.77 418.58C547.77 418.58 549.61 433.35 542.23 435.19C534.84 437.04 531.77 449.96 542.23 451.19C552.69 452.42 559.46 448.73 563.15 448.73C566.84 448.73 563.15 435.81 563.15 435.81C562.9 432.61 562.16 423.01 561.92 419.81Z" id="a4ENHEfS4p"></path><path d="M506.16 317.67C506.16 317.67 493.43 314.12 492.06 319.46C492.06 319.46 496.98 333.5 490.15 336.86C483.32 340.23 483.04 353.51 493.53 352.5C504.01 351.5 509.85 346.46 513.46 345.68C517.07 344.91 510.73 333.05 510.73 333.05C509.82 329.98 507.07 320.75 506.16 317.67Z" id="br0QOPgJ5"></path><path d="M566.32 129.7C566.32 129.7 586.16 140.39 586.16 140.39C586.57 139.68 589.82 133.98 590.23 133.26C590.23 133.26 585.65 107.83 586.67 105.79C587.69 103.76 569.37 109.35 569.37 109.35C568.76 113.42 569.88 128.18 566.32 129.7Z" id="bm9S5ASyk"></path><path d="M577.86 51.24C560.63 51.24 546.66 65.21 546.66 82.44C546.66 99.67 560.63 113.63 577.86 113.63C595.09 113.63 609.05 99.67 609.05 82.44C609.05 65.21 595.09 51.24 577.86 51.24Z" id="e3KSCuZQOT"></path><path d="M580.01 40.33C572.88 40.33 567.1 46.1 567.1 53.23C567.1 60.36 572.88 66.14 580.01 66.14C587.14 66.14 592.92 60.36 592.92 53.23C592.92 46.1 587.14 40.33 580.01 40.33Z" id="b10611N9tb"></path><path d="M574.36 33.4C573.92 33.36 573.47 33.33 573.02 33.33C565.89 33.33 560.11 39.11 560.11 46.24C560.11 53.37 565.89 59.15 573.02 59.15C573.47 59.15 573.92 59.13 574.36 59.08C567.79 58.39 562.8 52.85 562.8 46.24C562.8 39.63 567.79 34.09 574.36 33.4Z" id="cXWL547pn"></path><path d="M577 76.28C565.2 76.28 555.63 85.85 555.63 97.65C555.63 109.45 565.2 119.02 577 119.02C588.8 119.02 598.37 109.45 598.37 97.65C598.37 85.85 588.8 76.28 577 76.28Z" id="bkx1t9Ka"></path><path d="M564.54 125.38C564.54 125.38 533.5 136.06 529.94 143.19C529.94 143.19 543.17 157.43 543.17 157.43C543.17 157.43 538.37 171.19 539.35 178.04C540.37 185.16 538.59 199.66 538.59 199.66C538.59 199.66 583.54 229.27 593.54 215.94C595.06 213.91 607.78 166.08 607.78 166.08C609.56 164.3 623.81 150.05 625.59 148.27C625.59 148.27 614.4 131.99 607.78 130.47C601.17 128.94 592.01 125.38 592.01 125.38C586.51 125.38 573.69 130.98 564.54 125.38Z" id="ct8kdlgL9"></path><path d="M469.14 229.93C469.14 229.93 434.54 247.74 441.67 252.83C448.79 257.92 477.79 232.99 477.79 232.99C476.06 232.37 470.87 230.54 469.14 229.93Z" id="a2jz6rB2F"></path><path d="M587.11 212.02C587.11 212.02 603.97 228.92 608.04 224.34C612.11 219.76 604.98 217.21 604.98 217.21C601.41 216.17 589.59 206.82 587.11 212.02Z" id="d4u9nsMEG1"></path><path d="M616.43 142.68C621.93 146.04 624.98 147.9 625.59 148.27C625.59 148.27 656.62 191.01 645.94 200.68C645.94 200.68 607.78 229.68 607.78 229.68C607.78 229.68 598.62 216.45 601.68 215.94C601.68 215.94 629.15 195.08 629.15 195.08C627.73 192.44 620.6 179.21 607.78 155.4L616.43 142.68Z" id="e10CW7kASy"></path><path d="M536.04 140.64L529.43 143.19L512.13 174.22C484.66 207.5 469.39 225.98 466.34 229.68C466.34 229.68 472.45 239.35 477.53 237.31C477.53 237.31 520.78 192.54 520.78 192.54C522.44 189.96 530.75 177.07 545.71 153.87L536.04 140.64Z" id="a1F5MqLAEB"></path><path d="M599.37 72.26C599.37 79.39 589.74 85.17 577.86 85.17C565.98 85.17 556.34 79.39 556.34 72.26C556.34 65.13 565.98 59.35 577.86 59.35C589.74 59.35 599.37 65.13 599.37 72.26Z" id="a477ze4h9U"></path></defs><g><g><g><use xlink:href="#avjQpiTY" opacity="1" fill="#f2f2f2" fill-opacity="1"></use><g><use xlink:href="#avjQpiTY" opacity="1" fill-opacity="0" stroke="#000000" stroke-width="1" stroke-opacity="0"></use></g></g><g><use xlink:href="#a3oPc2oakz" opacity="1" fill="#3f3d56" fill-opacity="1"></use><g><use xlink:href="#a3oPc2oakz" opacity="1" fill-opacity="0" stroke="#000000" stroke-width="1" stroke-opacity="0"></use></g></g><g><use xlink:href="#c2RKvgFch0" opacity="1" fill="#6c63ff" fill-opacity="1"></use><g><use xlink:href="#c2RKvgFch0" opacity="1" fill-opacity="0" stroke="#000000" stroke-width="1" stroke-opacity="0"></use></g></g><g><use xlink:href="#a1yTAhG8Wu" opacity="1" fill="#000000" fill-opacity="0"></use><g><use xlink:href="#a1yTAhG8Wu" opacity="1" fill-opacity="0" stroke="#3f3d56" stroke-width="2" stroke-opacity="1"></use></g></g><g><use xlink:href="#a95OsjrXm" opacity="1" fill="#000000" fill-opacity="1"></use><g><use xlink:href="#a95OsjrXm" opacity="1" fill-opacity="0" stroke="#000000" stroke-width="1" stroke-opacity="0"></use></g></g><g><use xlink:href="#m145KRG8LT" opacity="1" fill="#6c63ff" fill-opacity="1"></use><g><use xlink:href="#m145KRG8LT" opacity="1" fill-opacity="0" stroke="#000000" stroke-width="1" stroke-opacity="0"></use></g></g><g><use xlink:href="#bwPBUeDX4" opacity="1" fill="#000000" fill-opacity="0"></use><g><use xlink:href="#bwPBUeDX4" opacity="1" fill-opacity="0" stroke="#3f3d56" stroke-width="2" stroke-opacity="1"></use></g></g><g><use xlink:href="#a1zA6USZxb" opacity="1" fill="#3f3d56" fill-opacity="1"></use><g><use xlink:href="#a1zA6USZxb" opacity="1" fill-opacity="0" stroke="#000000" stroke-width="1" stroke-opacity="0"></use></g></g><g><use xlink:href="#aanG4fViB" opacity="1" fill="#3f3d56" fill-opacity="1"></use><g><use xlink:href="#aanG4fViB" opacity="1" fill-opacity="0" stroke="#3f3d56" stroke-width="2" stroke-opacity="1"></use></g></g><g><use xlink:href="#b1fTLfqv42" opacity="1" fill="#3f3d56" fill-opacity="1"></use><g><use xlink:href="#b1fTLfqv42" opacity="1" fill-opacity="0" stroke="#000000" stroke-width="1" stroke-opacity="0"></use></g></g><g><use xlink:href="#d18vfvv3PG" opacity="1" fill="#3f3d56" fill-opacity="1"></use><g><use xlink:href="#d18vfvv3PG" opacity="1" fill-opacity="0" stroke="#000000" stroke-width="1" stroke-opacity="0"></use></g></g><g><use xlink:href="#d1OEbHiocq" opacity="1" fill="#3f3d56" fill-opacity="1"></use><g><use xlink:href="#d1OEbHiocq" opacity="1" fill-opacity="0" stroke="#3f3d56" stroke-width="2" stroke-opacity="1"></use></g></g><g><use xlink:href="#a9mdYOYfc" opacity="1" fill="#3f3d56" fill-opacity="1"></use><g><use xlink:href="#a9mdYOYfc" opacity="1" fill-opacity="0" stroke="#000000" stroke-width="1" stroke-opacity="0"></use></g></g><g><use xlink:href="#a2vWRZXiN" opacity="1" fill="#3f3d56" fill-opacity="1"></use><g><use xlink:href="#a2vWRZXiN" opacity="1" fill-opacity="0" stroke="#000000" stroke-width="1" stroke-opacity="0"></use></g></g><g><use xlink:href="#c42WDWRlBS" opacity="1" fill="#2f2e41" fill-opacity="1"></use><g><use xlink:href="#c42WDWRlBS" opacity="1" fill-opacity="0" stroke="#000000" stroke-width="1" stroke-opacity="0"></use></g></g><g><use xlink:href="#a4ENHEfS4p" opacity="1" fill="#2f2e41" fill-opacity="1"></use><g><use xlink:href="#a4ENHEfS4p" opacity="1" fill-opacity="0" stroke="#000000" stroke-width="1" stroke-opacity="0"></use></g></g><g><use xlink:href="#br0QOPgJ5" opacity="1" fill="#2f2e41" fill-opacity="1"></use><g><use xlink:href="#br0QOPgJ5" opacity="1" fill-opacity="0" stroke="#000000" stroke-width="1" stroke-opacity="0"></use></g></g><g><use xlink:href="#bm9S5ASyk" opacity="1" fill="#9f616a" fill-opacity="1"></use><g><use xlink:href="#bm9S5ASyk" opacity="1" fill-opacity="0" stroke="#000000" stroke-width="1" stroke-opacity="0"></use></g></g><g><use xlink:href="#e3KSCuZQOT" opacity="1" fill="#2f2e41" fill-opacity="1"></use><g><use xlink:href="#e3KSCuZQOT" opacity="1" fill-opacity="0" stroke="#000000" stroke-width="1" stroke-opacity="0"></use></g></g><g><use xlink:href="#b10611N9tb" opacity="1" fill="#2f2e41" fill-opacity="1"></use><g><use xlink:href="#b10611N9tb" opacity="1" fill-opacity="0" stroke="#000000" stroke-width="1" stroke-opacity="0"></use></g></g><g><use xlink:href="#cXWL547pn" opacity="1" fill="#2f2e41" fill-opacity="1"></use><g><use xlink:href="#cXWL547pn" opacity="1" fill-opacity="0" stroke="#000000" stroke-width="1" stroke-opacity="0"></use></g></g><g><use xlink:href="#bkx1t9Ka" opacity="1" fill="#9f616a" fill-opacity="1"></use><g><use xlink:href="#bkx1t9Ka" opacity="1" fill-opacity="0" stroke="#000000" stroke-width="1" stroke-opacity="0"></use></g></g><g><use xlink:href="#ct8kdlgL9" opacity="1" fill="#d0cde1" fill-opacity="1"></use><g><use xlink:href="#ct8kdlgL9" opacity="1" fill-opacity="0" stroke="#000000" stroke-width="1" stroke-opacity="0"></use></g></g><g><use xlink:href="#a2jz6rB2F" opacity="1" fill="#9f616a" fill-opacity="1"></use><g><use xlink:href="#a2jz6rB2F" opacity="1" fill-opacity="0" stroke="#000000" stroke-width="1" stroke-opacity="0"></use></g></g><g><use xlink:href="#d4u9nsMEG1" opacity="1" fill="#9f616a" fill-opacity="1"></use><g><use xlink:href="#d4u9nsMEG1" opacity="1" fill-opacity="0" stroke="#000000" stroke-width="1" stroke-opacity="0"></use></g></g><g><use xlink:href="#e10CW7kASy" opacity="1" fill="#d0cde1" fill-opacity="1"></use><g><use xlink:href="#e10CW7kASy" opacity="1" fill-opacity="0" stroke="#000000" stroke-width="1" stroke-opacity="0"></use></g></g><g><use xlink:href="#a1F5MqLAEB" opacity="1" fill="#d0cde1" fill-opacity="1"></use><g><use xlink:href="#a1F5MqLAEB" opacity="1" fill-opacity="0" stroke="#000000" stroke-width="1" stroke-opacity="0"></use></g></g><g><use xlink:href="#a477ze4h9U" opacity="1" fill="#2f2e41" fill-opacity="1"></use><g><use xlink:href="#a477ze4h9U" opacity="1" fill-opacity="0" stroke="#000000" stroke-width="1" stroke-opacity="0"></use></g></g></g></g></svg>